*
*
G04 PADS VX.2 Build Number: 5060570 generated Gerber (RS-274-X) file*
G04 PC Version=2.1*
*
%IN "#22636-ESP8266_DEVKITC_"*%
*
%MOIN*%
*
%FSLAX35Y35*%
*
*
*
*
G04 PC Standard Apertures*
*
*
G04 Thermal Relief Aperture macro.*
%AMTER*
1,1,$1,0,0*
1,0,$1-$2,0,0*
21,0,$3,$4,0,0,45*
21,0,$3,$4,0,0,135*
%
*
*
G04 Annular Aperture macro.*
%AMANN*
1,1,$1,0,0*
1,0,$2,0,0*
%
*
*
G04 Odd Aperture macro.*
%AMODD*
1,1,$1,0,0*
1,0,$1-0.005,0,0*
%
*
*
G04 PC Custom Aperture Macros*
*
*
*
*
*
*
G04 PC Aperture Table*
*
%ADD010C,0.001*%
%ADD012C,0.01*%
%ADD024C,0.005*%
%ADD025C,0.006*%
%ADD030C,0.01575*%
%ADD060C,0.015*%
%ADD121C,0.05906*%
%ADD401O,0.03937X0.0315*%
%ADD404O,0.03937X0.07087*%
*
*
*
*
G04 PC Circuitry*
G04 Layer Name #22636-ESP8266_DEVKITC_ - circuitry*
%LPD*%
*
*
G04 PC Custom Flashes*
G04 Layer Name #22636-ESP8266_DEVKITC_ - flashes*
%LPD*%
*
*
G04 PC Circuitry*
G04 Layer Name #22636-ESP8266_DEVKITC_ - circuitry*
%LPD*%
*
G54D10*
G54D12*
G01X1990422Y1634903D02*
Y1636903D01*
X1991832Y1638313*
X2005222*
X2042672Y1656403D02*
X2046672Y1652403D01*
Y1629903*
X2048922Y1627653*
G54D24*
X2079275Y1629883D02*
G75*
G03X2079275I-3803J0D01*
G01X2035378Y1590568D02*
G03X2035378I-2032J0D01*
G01X2019630D02*
G03X2019630I-2032J0D01*
G01X1979275Y1599883D02*
G03X1979275I-3803J0D01*
G01Y1699883D02*
G03X1979275I-3803J0D01*
G01Y1709883D02*
G03X1979275I-3803J0D01*
G01X2081191Y1724066D02*
G03X2078504Y1726753I-2687J0D01*
G01X2042563*
G03X2042414Y1726615I0J-150*
G01X2008531D02*
G03X2042414I16941J1388D01*
G01X2008531D02*
G03X2008382Y1726753I-149J-12D01*
G01X1972441*
G03X1969754Y1724066I-0J-2687*
G01Y1578740*
G03X1972441Y1576053I2687J0*
G01X2078504*
G03X2081191Y1578740I-0J2687*
G01Y1724066*
X1988557Y1678353D02*
G03X1988407Y1678503I-150J0D01*
G01X1988348*
X1987535Y1678840D02*
G03X1988348Y1678503I813J813D01*
G01X1987535Y1678840D02*
X1986137Y1680238D01*
G03X1986012Y1680281I-106J-106*
G01X1985709Y1680262D02*
G03X1986012Y1680281I-0J2425D01*
G01X1985709Y1680262D02*
X1984921D01*
X1983557Y1680682D02*
G03X1984921Y1680262I1364J2005D01*
G01X1983557Y1680682D02*
G03X1983322Y1680558I-85J-124D01*
G01Y1678910*
G03X1983557Y1678786I150J-0*
G01X1984921Y1679206D02*
G03X1983557Y1678786I0J-2425D01*
G01X1984921Y1679206D02*
X1985709D01*
X1987857Y1677906D02*
G03X1985709Y1679206I-2148J-1125D01*
G01X1987857Y1677906D02*
G03X1988106Y1677881I133J70D01*
G01X1988490Y1678228D02*
G03X1988106Y1677881I959J-1447D01*
G01X1988490Y1678228D02*
G03X1988557Y1678353I-83J125D01*
G01X2079275Y1629883D02*
G03X2079275I-3803J0D01*
G01X2072827Y1687152D02*
G03X2079275Y1689883I2645J2731D01*
G01X2072827Y1687152D02*
G03X2072572Y1687044I-105J-108D01*
G01Y1682723*
G03X2072827Y1682615I150J-0*
G01X2079275Y1679883D02*
G03X2072827Y1682615I-3803J0D01*
G01Y1677152D02*
G03X2079275Y1679883I2645J2731D01*
G01X2072827Y1677152D02*
G03X2072572Y1677044I-105J-108D01*
G01Y1662723*
G03X2072827Y1662615I150J-0*
G01X2079275Y1659883D02*
G03X2072827Y1662615I-3803J0D01*
G01Y1657152D02*
G03X2079275Y1659883I2645J2731D01*
G01X2072827Y1657152D02*
G03X2072572Y1657044I-105J-108D01*
G01Y1654380*
G03X2072613Y1654277I150J-0*
G01X2073060Y1653153D02*
G03X2072613Y1654277I-1638J0D01*
G01X2073060Y1653153D02*
X2073060D01*
Y1653127D02*
G03Y1653153I-1638J26D01*
G01Y1653127D02*
Y1653124D01*
G03X2073295Y1653001I150J0*
G01X2079275Y1649883D02*
G03X2073295Y1653001I-3803J0D01*
G01X2071881Y1648632D02*
G03X2079275Y1649883I3591J1251D01*
G01X2071881Y1648632D02*
G03X2071740Y1648733I-141J-49D01*
G01X2071192*
X2070379Y1649070D02*
G03X2071192Y1648733I813J813D01*
G01X2070379Y1649070D02*
X2069329Y1650121D01*
G03X2069072Y1650015I-107J-106*
G01Y1647972*
G03X2069116Y1647866I150J-0*
G01X2073646Y1643336*
G03X2073817Y1643307I106J106*
G01X2079275Y1639883D02*
G03X2073817Y1643307I-3803J0D01*
G01X2071670Y1639883D02*
G03X2079275I3802J0D01*
G01X2072049Y1641538D02*
G03X2071670Y1639883I3423J-1655D01*
G01X2072049Y1641538D02*
G03X2072064Y1641603I-135J65D01*
X2072020Y1641710I-150J0*
G01X2067109Y1646620*
X2066772Y1647433D02*
G03X2067109Y1646620I1150J0D01*
G01X2066772Y1647433D02*
Y1655128D01*
X2067109Y1655941D02*
G03X2066772Y1655128I813J-813D01*
G01X2067109Y1655941D02*
X2067754Y1656586D01*
G03X2067798Y1656692I-106J106*
G01Y1674783*
G03X2067553Y1674899I-150J-0*
G01X2066024Y1674356D02*
G03X2067553Y1674899I-0J2425D01*
G01X2066024Y1674356D02*
X2065236D01*
X2063088Y1675656D02*
G03X2065236Y1674356I2148J1125D01*
G01X2063088Y1675656D02*
G03X2062839Y1675682I-133J-70D01*
G01X2061496Y1675045D02*
G03X2062839Y1675682I0J1736D01*
G01X2061496Y1675045D02*
X2058346D01*
X2056611Y1676781D02*
G03X2058346Y1675045I1735J0D01*
G01Y1678517D02*
G03X2056611Y1676781I0J-1736D01*
G01X2058346Y1678517D02*
X2061496D01*
X2062839Y1677881D02*
G03X2061496Y1678517I-1343J-1100D01*
G01X2062839Y1677881D02*
G03X2063088Y1677906I116J95D01*
G01X2065236Y1679206D02*
G03X2063088Y1677906I0J-2425D01*
G01X2065236Y1679206D02*
X2066024D01*
X2067553Y1678663D02*
G03X2066024Y1679206I-1529J-1882D01*
G01X2067553Y1678663D02*
G03X2067798Y1678779I95J116D01*
G01Y1680688*
G03X2067553Y1680805I-150J0*
G01X2066024Y1680262D02*
G03X2067553Y1680805I-0J2425D01*
G01X2066024Y1680262D02*
X2065236D01*
X2064622Y1680341D02*
G03X2065236Y1680262I614J2346D01*
G01X2064622Y1680341D02*
G03X2064478Y1680302I-38J-145D01*
G01X2063516Y1679340*
X2062703Y1679003D02*
G03X2063516Y1679340I-0J1150D01*
G01X2062703Y1679003D02*
X2053899D01*
G03X2053796Y1678962I0J-150*
G01X2051035Y1680153D02*
G03X2053796Y1678962I1637J0D01*
G01Y1681344D02*
G03X2051035Y1680153I-1124J-1191D01*
G01X2053796Y1681344D02*
G03X2053899Y1681303I103J109D01*
G01X2056920*
G03X2057070Y1681453I-0J150*
X2057033Y1681551I-150J0*
G01X2056611Y1682687D02*
G03X2057033Y1681551I1735J-0D01*
G01X2058346Y1684422D02*
G03X2056611Y1682687I0J-1735D01*
G01X2058346Y1684422D02*
X2061496D01*
X2062839Y1683786D02*
G03X2061496Y1684422I-1343J-1099D01*
G01X2062839Y1683786D02*
G03X2063088Y1683812I116J95D01*
G01X2065236Y1685111D02*
G03X2063088Y1683812I0J-2424D01*
G01X2065236Y1685111D02*
X2066024D01*
X2067553Y1684568D02*
G03X2066024Y1685111I-1529J-1881D01*
G01X2067553Y1684568D02*
G03X2067798Y1684685I95J117D01*
G01Y1686594*
G03X2067553Y1686710I-150J-0*
G01X2066024Y1686167D02*
G03X2067553Y1686710I-0J2425D01*
G01X2066024Y1686167D02*
X2065236D01*
X2063088Y1687467D02*
G03X2065236Y1686167I2148J1125D01*
G01X2063088Y1687467D02*
G03X2062839Y1687493I-133J-69D01*
G01X2061496Y1686856D02*
G03X2062839Y1687493I0J1736D01*
G01X2061496Y1686856D02*
X2058346D01*
X2056611Y1688592D02*
G03X2058346Y1686856I1735J0D01*
G01Y1690328D02*
G03X2056611Y1688592I0J-1736D01*
G01X2058346Y1690328D02*
X2061496D01*
X2062839Y1689692D02*
G03X2061496Y1690328I-1343J-1100D01*
G01X2062839Y1689692D02*
G03X2063088Y1689717I116J95D01*
G01X2065236Y1691017D02*
G03X2063088Y1689717I0J-2425D01*
G01X2065236Y1691017D02*
X2066024D01*
X2067553Y1690474D02*
G03X2066024Y1691017I-1529J-1882D01*
G01X2067553Y1690474D02*
G03X2067798Y1690590I95J116D01*
G01Y1692499*
G03X2067553Y1692616I-150J0*
G01X2066024Y1692073D02*
G03X2067553Y1692616I-0J2425D01*
G01X2066024Y1692073D02*
X2065236D01*
X2063088Y1693373D02*
G03X2065236Y1692073I2148J1125D01*
G01X2063088Y1693373D02*
G03X2062839Y1693398I-133J-70D01*
G01X2061496Y1692762D02*
G03X2062839Y1693398I0J1736D01*
G01X2061496Y1692762D02*
X2058346D01*
X2056611Y1694498D02*
G03X2058346Y1692762I1735J-0D01*
G01Y1696233D02*
G03X2056611Y1694498I0J-1735D01*
G01X2058346Y1696233D02*
X2061496D01*
X2062839Y1695597D02*
G03X2061496Y1696233I-1343J-1099D01*
G01X2062839Y1695597D02*
G03X2063088Y1695623I116J95D01*
G01X2065236Y1696922D02*
G03X2063088Y1695623I0J-2424D01*
G01X2065236Y1696922D02*
X2066024D01*
X2067553Y1696379D02*
G03X2066024Y1696922I-1529J-1881D01*
G01X2067553Y1696379D02*
G03X2067798Y1696496I95J117D01*
G01Y1696941*
G03X2067754Y1697047I-150J-0*
G01X2066782Y1698018*
G03X2066638Y1698057I-106J-106*
G01X2066024Y1697978D02*
G03X2066638Y1698057I-0J2425D01*
G01X2066024Y1697978D02*
X2065236D01*
X2063088Y1699278D02*
G03X2065236Y1697978I2148J1125D01*
G01X2063088Y1699278D02*
G03X2062839Y1699304I-133J-69D01*
G01X2061496Y1698667D02*
G03X2062839Y1699304I0J1736D01*
G01X2061496Y1698667D02*
X2058346D01*
X2056611Y1700403D02*
G03X2058346Y1698667I1735J0D01*
G01Y1702139D02*
G03X2056611Y1700403I0J-1736D01*
G01X2058346Y1702139D02*
X2061496D01*
X2062839Y1701503D02*
G03X2061496Y1702139I-1343J-1100D01*
G01X2062839Y1701503D02*
G03X2063088Y1701528I116J95D01*
G01X2065236Y1702828D02*
G03X2063088Y1701528I0J-2425D01*
G01X2065236Y1702828D02*
X2066024D01*
X2068448Y1700403D02*
G03X2066024Y1702828I-2424J0D01*
G01X2068369Y1699789D02*
G03X2068448Y1700403I-2345J614D01*
G01X2068369Y1699789D02*
G03X2068364Y1699751I145J-38D01*
G01X2068364*
G03X2068408Y1699645I150J-0*
G01X2068766Y1699287*
G03X2069022Y1699393I106J106*
G01Y1701228*
G03X2068978Y1701334I-150J-0*
G01X2066452Y1703860*
G03X2066327Y1703903I-106J-106*
G01X2066024Y1703884D02*
G03X2066327Y1703903I-0J2425D01*
G01X2066024Y1703884D02*
X2065236D01*
X2063088Y1705184D02*
G03X2065236Y1703884I2148J1125D01*
G01X2063088Y1705184D02*
G03X2062839Y1705209I-133J-70D01*
G01X2061496Y1704573D02*
G03X2062839Y1705209I0J1736D01*
G01X2061496Y1704573D02*
X2058346D01*
X2056611Y1706309D02*
G03X2058346Y1704573I1735J-0D01*
G01Y1708045D02*
G03X2056611Y1706309I0J-1736D01*
G01X2058346Y1708045D02*
X2061496D01*
X2062839Y1707408D02*
G03X2061496Y1708045I-1343J-1099D01*
G01X2062839Y1707408D02*
G03X2063088Y1707434I116J95D01*
G01X2065236Y1708733D02*
G03X2063088Y1707434I0J-2424D01*
G01X2065236Y1708733D02*
X2066024D01*
X2068448Y1706309D02*
G03X2066024Y1708733I-2424J-0D01*
G01X2068448Y1706309D02*
X2068448D01*
X2068278Y1705415D02*
G03X2068448Y1706309I-2254J894D01*
G01X2068278Y1705415D02*
G03X2068267Y1705360I139J-55D01*
X2068311Y1705254I150J-0*
G01X2070016Y1703549*
G03X2070272Y1703655I106J106*
G01Y1705883*
G03X2070228Y1705989I-150J0*
G01X2066452Y1709766*
G03X2066327Y1709808I-106J-106*
G01X2066024Y1709789D02*
G03X2066327Y1709808I-0J2425D01*
G01X2066024Y1709789D02*
X2065236D01*
X2063088Y1711089D02*
G03X2065236Y1709789I2148J1125D01*
G01X2063088Y1711089D02*
G03X2062839Y1711115I-133J-69D01*
G01X2061496Y1710478D02*
G03X2062839Y1711115I0J1736D01*
G01X2061496Y1710478D02*
X2058346D01*
X2056611Y1712214D02*
G03X2058346Y1710478I1735J0D01*
G01Y1713950D02*
G03X2056611Y1712214I0J-1736D01*
G01X2058346Y1713950D02*
X2061496D01*
X2062839Y1713314D02*
G03X2061496Y1713950I-1343J-1100D01*
G01X2062839Y1713314D02*
G03X2063088Y1713339I116J95D01*
G01X2065236Y1714639D02*
G03X2063088Y1713339I0J-2425D01*
G01X2065236Y1714639D02*
X2066024D01*
X2068448Y1712214D02*
G03X2066024Y1714639I-2424J0D01*
G01X2068448Y1712214D02*
X2068448D01*
X2068278Y1711321D02*
G03X2068448Y1712214I-2254J893D01*
G01X2068278Y1711321D02*
G03X2068267Y1711265I139J-56D01*
X2068311Y1711159I150J0*
G01X2072236Y1707235*
X2072572Y1706422D02*
G03X2072236Y1707235I-1150J-0D01*
G01X2072572Y1706422D02*
Y1692723D01*
G03X2072827Y1692615I150J-0*
G01X2079275Y1689883D02*
G03X2072827Y1692615I-3803J0D01*
G01X2071670Y1709883D02*
G03X2079275I3802J0D01*
G01X2072049Y1711538D02*
G03X2071670Y1709883I3423J-1655D01*
G01X2072049Y1711538D02*
G03X2072064Y1711603I-135J65D01*
X2072020Y1711710I-150J0*
G01X2070435Y1713295*
G03X2070329Y1713339I-106J-106*
G01X2069261*
X2068448Y1713675D02*
G03X2069261Y1713339I813J814D01*
G01X2068448Y1713675D02*
X2066452Y1715671D01*
G03X2066327Y1715714I-106J-106*
G01X2066024Y1715695D02*
G03X2066327Y1715714I-0J2425D01*
G01X2066024Y1715695D02*
X2065236D01*
X2063088Y1716995D02*
G03X2065236Y1715695I2148J1125D01*
G01X2063088Y1716995D02*
G03X2062839Y1717020I-133J-70D01*
G01X2061496Y1716384D02*
G03X2062839Y1717020I0J1736D01*
G01X2061496Y1716384D02*
X2058346D01*
X2056611Y1718120D02*
G03X2058346Y1716384I1735J-0D01*
G01Y1719856D02*
G03X2056611Y1718120I0J-1736D01*
G01X2058346Y1719856D02*
X2061496D01*
X2062839Y1719219D02*
G03X2061496Y1719856I-1343J-1099D01*
G01X2062839Y1719219D02*
G03X2063088Y1719245I116J95D01*
G01X2065236Y1720545D02*
G03X2063088Y1719245I0J-2425D01*
G01X2065236Y1720545D02*
X2066024D01*
X2068448Y1718120D02*
G03X2066024Y1720545I-2424J-0D01*
G01X2068448Y1718120D02*
X2068448D01*
X2068278Y1717226D02*
G03X2068448Y1718120I-2254J894D01*
G01X2068278Y1717226D02*
G03X2068267Y1717171I139J-55D01*
X2068311Y1717065I150J-0*
G01X2069693Y1715683*
G03X2069799Y1715639I106J106*
G01X2070867*
X2071680Y1715302D02*
G03X2070867Y1715639I-813J-813D01*
G01X2071680Y1715302D02*
X2073646Y1713336D01*
G03X2073817Y1713307I106J106*
G01X2079275Y1709883D02*
G03X2073817Y1713307I-3803J0D01*
G01X2042366Y1583638D02*
Y1580488D01*
X2036729D02*
G03X2042366I2818J0D01*
G01X2036729D02*
Y1583638D01*
X2042366D02*
G03X2036729I-2819J-0D01*
G01X2042366Y1598205D02*
Y1595055D01*
X2036729D02*
G03X2042366I2818J0D01*
G01X2036729D02*
Y1598205D01*
X2042366D02*
G03X2036729I-2819J-0D01*
G01X2054049Y1656712D02*
G03X2056810Y1657903I1123J1191D01*
G01X2054049Y1656712D02*
G03X2053946Y1656753I-103J-109D01*
G01X2051461*
G03X2051355Y1656709I-0J-150*
G01X2049866Y1655221*
G03X2049822Y1655115I106J-106*
G01Y1634880*
G03X2049863Y1634777I150J-0*
G01X2050310Y1633653D02*
G03X2049863Y1634777I-1638J0D01*
G01X2048214Y1632081D02*
G03X2050310Y1633653I458J1572D01*
G01X2048214Y1632081D02*
G03X2048022Y1631937I-42J-144D01*
G01Y1630524*
G03X2048066Y1630418I150J0*
G01X2049190Y1629295*
G03X2049264Y1629254I106J106*
G01X2050560Y1627653D02*
G03X2049264Y1629254I-1638J0D01*
G01X2047321Y1627311D02*
G03X2050560Y1627653I1601J342D01*
G01X2047321Y1627311D02*
G03X2047281Y1627386I-147J-31D01*
G01X2046079Y1628588*
G03X2045822Y1628482I-107J-106*
G01Y1625153*
X2045486Y1624340D02*
G03X2045822Y1625153I-814J813D01*
G01X2045486Y1624340D02*
X2044236Y1623090D01*
X2043422Y1622753D02*
G03X2044236Y1623090I0J1150D01*
G01X2043422Y1622753D02*
X2042649D01*
G03X2042546Y1622712I0J-150*
G01X2042237Y1622483D02*
G03X2042546Y1622712I-815J1420D01*
G01X2042237Y1622483D02*
G03X2042162Y1622353I75J-130D01*
X2042205Y1622246I150J-0*
G01X2043105Y1621347*
G03X2043211Y1621303I106J106*
G01X2049446*
G03X2049549Y1621344I-0J150*
G01X2052310Y1620153D02*
G03X2049549Y1621344I-1638J0D01*
G01Y1618962D02*
G03X2052310Y1620153I1123J1191D01*
G01X2049549Y1618962D02*
G03X2049446Y1619003I-103J-109D01*
G01X2042672*
X2041859Y1619340D02*
G03X2042672Y1619003I813J813D01*
G01X2041859Y1619340D02*
X2038859Y1622340D01*
X2038522Y1623153D02*
G03X2038859Y1622340I1150J0D01*
G01X2038522Y1623153D02*
Y1630353D01*
G03X2038372Y1630503I-150J0*
G01X2035899*
G03X2035796Y1630462I0J-150*
G01X2033035Y1631653D02*
G03X2035796Y1630462I1637J0D01*
G01Y1632844D02*
G03X2033035Y1631653I-1124J-1191D01*
G01X2035796Y1632844D02*
G03X2035899Y1632803I103J109D01*
G01X2038446*
G03X2038549Y1632844I-0J150*
G01X2041310Y1631653D02*
G03X2038549Y1632844I-1638J0D01*
G01X2040863Y1630529D02*
G03X2041310Y1631653I-1191J1124D01*
G01X2040863Y1630529D02*
G03X2040822Y1630426I109J-103D01*
G01Y1625633*
G03X2041010Y1625488I150J0*
G01X2042546Y1625094D02*
G03X2041010Y1625488I-1124J-1191D01*
G01X2042546Y1625094D02*
G03X2042649Y1625053I103J109D01*
G01X2042884*
G03X2042990Y1625097I-0J150*
G01X2043478Y1625586*
G03X2043522Y1625692I-106J106*
G01Y1634176*
G03X2043482Y1634279I-150J0*
G01X2043035Y1635403D02*
G03X2043482Y1634279I1637J0D01*
G01X2045130Y1636975D02*
G03X2043035Y1635403I-458J-1572D01*
G01X2045130Y1636975D02*
G03X2045322Y1637119I42J144D01*
G01Y1651782*
G03X2045278Y1651888I-150J-0*
G01X2042405Y1654761*
G03X2042330Y1654802I-106J-106*
G01X2041035Y1656403D02*
G03X2042330Y1654802I1637J0D01*
G01X2044274Y1656745D02*
G03X2041035Y1656403I-1602J-342D01*
G01X2044274Y1656745D02*
G03X2044314Y1656670I146J32D01*
G01X2047266Y1653718*
G03X2047522Y1653825I106J107*
G01Y1655653*
X2047859Y1656466D02*
G03X2047522Y1655653I813J-813D01*
G01X2047859Y1656466D02*
X2050109Y1658716D01*
X2050922Y1659053D02*
G03X2050109Y1658716I0J-1150D01*
G01X2050922Y1659053D02*
X2053946D01*
G03X2054049Y1659094I-0J150*
G01X2056810Y1657903D02*
G03X2054049Y1659094I-1638J0D01*
G01X2035378Y1590568D02*
G03X2035378I-2032J0D01*
G01X2019630D02*
G03X2019630I-2032J0D01*
G01X2014216Y1583638D02*
Y1580488D01*
X2008579D02*
G03X2014216I2819J0D01*
G01X2008579D02*
Y1583638D01*
X2014216D02*
G03X2008579I-2818J-0D01*
G01X2048299Y1669962D02*
G03X2051060Y1671153I1123J1191D01*
G01X2048299Y1669962D02*
G03X2048196Y1670003I-103J-109D01*
G01X2002672*
X2001859Y1670340D02*
G03X2002672Y1670003I813J813D01*
G01X2001859Y1670340D02*
X1998079Y1674121D01*
G03X1997822Y1674015I-107J-106*
G01Y1648130*
G03X1997863Y1648027I150J-0*
G01X1998310Y1646903D02*
G03X1997863Y1648027I-1638J0D01*
G01X1996720Y1645266D02*
G03X1998310Y1646903I-48J1637D01*
G01X1996720Y1645266D02*
G03X1996618Y1645223I4J-150D01*
G01X1991231Y1639835*
G03X1991187Y1639729I106J-106*
X1991386Y1639587I150J-0*
G01X1991832Y1639663D02*
G03X1991386Y1639587I0J-1350D01*
G01X1991832Y1639663D02*
X2004250D01*
G03X2004332Y1639687I0J150*
G01X2006860Y1638313D02*
G03X2004332Y1639687I-1638J0D01*
G01Y1636939D02*
G03X2006860Y1638313I890J1374D01*
G01X2004332Y1636939D02*
G03X2004250Y1636963I-82J-126D01*
G01X1992454*
G03X1992348Y1636919I-0J-150*
G01X1991816Y1636388*
G03X1991772Y1636282I106J-106*
G01Y1635875*
G03X1991797Y1635794I150J0*
G01X1992060Y1634903D02*
G03X1991797Y1635794I-1638J0D01*
G01X1990010Y1633318D02*
G03X1992060Y1634903I412J1585D01*
G01X1990010Y1633318D02*
G03X1989822Y1633173I-38J-145D01*
G01Y1612442*
G03X1989866Y1612336I150J-0*
G01X1991016Y1611186*
G03X1991272Y1611292I106J106*
G01Y1617176*
G03X1991232Y1617279I-150J0*
G01X1990785Y1618403D02*
G03X1991232Y1617279I1637J0D01*
G01X1994060Y1618403D02*
G03X1990785I-1638J0D01*
G01X1993613Y1617279D02*
G03X1994060Y1618403I-1191J1124D01*
G01X1993613Y1617279D02*
G03X1993572Y1617176I109J-103D01*
G01Y1611192*
G03X1993616Y1611086I150J-0*
G01X1994855Y1609847*
G03X1994961Y1609803I106J106*
G01X2010332*
X2011146Y1609466D02*
G03X2010332Y1609803I-814J-813D01*
G01X2011146Y1609466D02*
X2016765Y1603847D01*
G03X2016871Y1603803I106J106*
G01X2027446*
G03X2027549Y1603844I-0J150*
G01X2029838Y1603803D02*
G03X2027549Y1603844I-1166J-1150D01*
G01X2029838Y1603803D02*
G03X2030069Y1603824I107J106D01*
G01X2033060Y1602903D02*
G03X2030069Y1603824I-1638J0D01*
G01X2032683Y1601858D02*
G03X2033060Y1602903I-1261J1045D01*
G01X2032683Y1601858D02*
G03X2032648Y1601762I115J-96D01*
X2032687Y1601661I150J0*
G01X2033110Y1600563D02*
G03X2032687Y1601661I-1638J0D01*
G01X2031520Y1598926D02*
G03X2033110Y1600563I-48J1637D01*
G01X2031520Y1598926D02*
G03X2031418Y1598883I4J-150D01*
G01X2031126Y1598590*
X2030312Y1598253D02*
G03X2031126Y1598590I0J1150D01*
G01X2030312Y1598253D02*
X2015422D01*
X2014609Y1598590D02*
G03X2015422Y1598253I813J813D01*
G01X2014609Y1598590D02*
X2014438Y1598761D01*
G03X2014182Y1598655I-106J-106*
X2014184Y1598633I150J0*
G01X2014216Y1598205D02*
G03X2014184Y1598633I-2818J-0D01*
G01X2014216Y1598205D02*
Y1595055D01*
X2008579D02*
G03X2014216I2819J0D01*
G01X2008579D02*
Y1598205D01*
X2011825Y1600991D02*
G03X2008579Y1598205I-427J-2786D01*
G01X2011825Y1600991D02*
G03X2011998Y1601139I23J148D01*
X2011954Y1601245I-150J0*
G01X2009490Y1603709*
G03X2009384Y1603753I-106J-106*
G01X1992922*
X1992109Y1604090D02*
G03X1992922Y1603753I813J813D01*
G01X1992109Y1604090D02*
X1986359Y1609840D01*
X1986022Y1610653D02*
G03X1986359Y1609840I1150J0D01*
G01X1986022Y1610653D02*
Y1618603D01*
G03X1985872Y1618753I-150J0*
G01X1979212*
G03X1979070Y1618652I0J-150*
G01X1971670Y1619883D02*
G03X1979070Y1618652I3802J0D01*
G01X1979057Y1621153D02*
G03X1971670Y1619883I-3585J-1270D01*
G01X1979057Y1621153D02*
G03X1979198Y1621053I141J50D01*
G01X1985872*
G03X1986022Y1621203I0J150*
G01Y1639903*
X1986359Y1640716D02*
G03X1986022Y1639903I813J-813D01*
G01X1986359Y1640716D02*
X1994228Y1648586D01*
G03X1994272Y1648692I-106J106*
G01Y1675670*
G03X1994001Y1675759I-150J0*
G01X1992598Y1675045D02*
G03X1994001Y1675759I0J1736D01*
G01X1992598Y1675045D02*
X1989449D01*
X1988106Y1675682D02*
G03X1989449Y1675045I1343J1099D01*
G01X1988106Y1675682D02*
G03X1987857Y1675656I-116J-96D01*
G01X1985709Y1674356D02*
G03X1987857Y1675656I-0J2425D01*
G01X1985709Y1674356D02*
X1984921D01*
X1983557Y1674777D02*
G03X1984921Y1674356I1364J2004D01*
G01X1983557Y1674777D02*
G03X1983322Y1674653I-85J-124D01*
G01Y1636583*
X1982986Y1635770D02*
G03X1983322Y1636583I-814J813D01*
G01X1982986Y1635770D02*
X1978925Y1631710D01*
X1978925D02*
G03X1978881Y1631603I106J-107D01*
X1978896Y1631538I150J0*
G01X1979275Y1629883D02*
G03X1978896Y1631538I-3803J0D01*
G01X1971670Y1629883D02*
G03X1979275I3802J0D01*
G01X1977127Y1633307D02*
G03X1971670Y1629883I-1655J-3424D01*
G01X1977127Y1633307D02*
G03X1977299Y1633336I66J135D01*
G01X1980978Y1637016*
G03X1981022Y1637122I-106J106*
G01Y1643445*
G03X1980766Y1643551I-150J-0*
G01X1978925Y1641710*
X1978925D02*
G03X1978881Y1641603I106J-107D01*
X1978896Y1641538I150J0*
G01X1979275Y1639883D02*
G03X1978896Y1641538I-3803J0D01*
G01X1971670Y1639883D02*
G03X1979275I3802J0D01*
G01X1977127Y1643307D02*
G03X1971670Y1639883I-1655J-3424D01*
G01X1977127Y1643307D02*
G03X1977299Y1643336I66J135D01*
G01X1979478Y1645516*
G03X1979522Y1645622I-106J106*
G01Y1649239*
G03X1979224Y1649264I-150J0*
G01X1971670Y1649883D02*
G03X1979224Y1649264I3802J0D01*
G01X1977127Y1653307D02*
G03X1971670Y1649883I-1655J-3424D01*
G01X1977127Y1653307D02*
G03X1977299Y1653336I66J135D01*
G01X1978228Y1654266*
G03X1978272Y1654372I-106J106*
G01Y1656950*
G03X1978022Y1657062I-150J0*
G01X1971670Y1659883D02*
G03X1978022Y1657062I3802J0D01*
G01Y1662705D02*
G03X1971670Y1659883I-2550J-2822D01*
G01X1978022Y1662705D02*
G03X1978272Y1662816I100J111D01*
G01Y1666950*
G03X1978022Y1667062I-150J0*
G01X1971670Y1669883D02*
G03X1978022Y1667062I3802J0D01*
G01Y1672705D02*
G03X1971670Y1669883I-2550J-2822D01*
G01X1978022Y1672705D02*
G03X1978272Y1672816I100J111D01*
G01Y1686950*
G03X1978022Y1687062I-150J0*
G01X1971670Y1689883D02*
G03X1978022Y1687062I3802J0D01*
G01Y1692705D02*
G03X1971670Y1689883I-2550J-2822D01*
G01X1978022Y1692705D02*
G03X1978272Y1692816I100J111D01*
G01Y1694511*
X1978609Y1695324D02*
G03X1978272Y1694511I813J-813D01*
G01X1978609Y1695324D02*
X1982634Y1699348D01*
G03X1982678Y1699454I-106J106*
X1982667Y1699510I-150J0*
G01X1982496Y1700403D02*
G03X1982667Y1699510I2425J0D01*
G01X1982496Y1700403D02*
X1982496D01*
X1984921Y1702828D02*
G03X1982496Y1700403I0J-2425D01*
G01X1984921Y1702828D02*
X1985709D01*
X1987857Y1701528D02*
G03X1985709Y1702828I-2148J-1125D01*
G01X1987857Y1701528D02*
G03X1988106Y1701503I133J70D01*
G01X1989449Y1702139D02*
G03X1988106Y1701503I-0J-1736D01*
G01X1989449Y1702139D02*
X1992598D01*
X1994334Y1700403D02*
G03X1992598Y1702139I-1736J0D01*
G01Y1698667D02*
G03X1994334Y1700403I0J1736D01*
G01X1992598Y1698667D02*
X1989449D01*
X1988106Y1699304D02*
G03X1989449Y1698667I1343J1099D01*
G01X1988106Y1699304D02*
G03X1987857Y1699278I-116J-95D01*
G01X1985709Y1697978D02*
G03X1987857Y1699278I-0J2425D01*
G01X1985709Y1697978D02*
X1984921D01*
X1984618Y1697997D02*
G03X1984921Y1697978I303J2406D01*
G01X1984618Y1697997D02*
G03X1984493Y1697955I-19J-148D01*
G01X1980616Y1694078*
G03X1980572Y1693972I106J-106*
G01Y1691744*
G03X1980829Y1691638I150J-0*
G01X1982634Y1693443*
G03X1982678Y1693549I-106J106*
X1982667Y1693604I-150J-0*
G01X1982496Y1694498D02*
G03X1982667Y1693604I2425J-0D01*
G01X1982496Y1694498D02*
X1982496D01*
X1984921Y1696922D02*
G03X1982496Y1694498I0J-2424D01*
G01X1984921Y1696922D02*
X1985709D01*
X1987857Y1695623D02*
G03X1985709Y1696922I-2148J-1125D01*
G01X1987857Y1695623D02*
G03X1988106Y1695597I133J69D01*
G01X1989449Y1696233D02*
G03X1988106Y1695597I-0J-1735D01*
G01X1989449Y1696233D02*
X1992598D01*
X1994334Y1694498D02*
G03X1992598Y1696233I-1736J-0D01*
G01Y1692762D02*
G03X1994334Y1694498I0J1736D01*
G01X1992598Y1692762D02*
X1989449D01*
X1988106Y1693398D02*
G03X1989449Y1692762I1343J1100D01*
G01X1988106Y1693398D02*
G03X1987857Y1693373I-116J-95D01*
G01X1985709Y1692073D02*
G03X1987857Y1693373I-0J2425D01*
G01X1985709Y1692073D02*
X1984921D01*
X1984618Y1692092D02*
G03X1984921Y1692073I303J2406D01*
G01X1984618Y1692092D02*
G03X1984493Y1692049I-19J-149D01*
G01X1981866Y1689423*
G03X1981822Y1689317I106J-106*
G01Y1687088*
G03X1982079Y1686982I150J0*
G01X1982634Y1687537*
G03X1982678Y1687643I-106J106*
X1982667Y1687699I-150J0*
G01X1982496Y1688592D02*
G03X1982667Y1687699I2425J0D01*
G01X1982496Y1688592D02*
X1982496D01*
X1984921Y1691017D02*
G03X1982496Y1688592I0J-2425D01*
G01X1984921Y1691017D02*
X1985709D01*
X1987857Y1689717D02*
G03X1985709Y1691017I-2148J-1125D01*
G01X1987857Y1689717D02*
G03X1988106Y1689692I133J70D01*
G01X1989449Y1690328D02*
G03X1988106Y1689692I-0J-1736D01*
G01X1989449Y1690328D02*
X1992598D01*
X1994334Y1688592D02*
G03X1992598Y1690328I-1736J0D01*
G01Y1686856D02*
G03X1994334Y1688592I0J1736D01*
G01X1992598Y1686856D02*
X1989449D01*
X1988106Y1687493D02*
G03X1989449Y1686856I1343J1099D01*
G01X1988106Y1687493D02*
G03X1987857Y1687467I-116J-95D01*
G01X1985709Y1686167D02*
G03X1987857Y1687467I-0J2425D01*
G01X1985709Y1686167D02*
X1984921D01*
X1984618Y1686186D02*
G03X1984921Y1686167I303J2406D01*
G01X1984618Y1686186D02*
G03X1984493Y1686144I-19J-148D01*
G01X1983366Y1685017*
G03X1983322Y1684911I106J-106*
G01Y1684815*
G03X1983557Y1684691I150J0*
G01X1984921Y1685111D02*
G03X1983557Y1684691I0J-2424D01*
G01X1984921Y1685111D02*
X1985709D01*
X1987857Y1683812D02*
G03X1985709Y1685111I-2148J-1125D01*
G01X1987857Y1683812D02*
G03X1988106Y1683786I133J69D01*
G01X1989449Y1684422D02*
G03X1988106Y1683786I-0J-1735D01*
G01X1989449Y1684422D02*
X1992598D01*
X1994334Y1682687D02*
G03X1992598Y1684422I-1736J-0D01*
G01X1993263Y1681083D02*
G03X1994334Y1682687I-665J1604D01*
G01X1993263Y1681083D02*
G03X1993171Y1680945I58J-138D01*
X1993304Y1680796I150J-0*
G01X1993986Y1680466D02*
G03X1993304Y1680796I-814J-813D01*
G01X1993986Y1680466D02*
X1995266Y1679186D01*
G03X1995522Y1679292I106J106*
G01Y1711115*
G03X1995478Y1711221I-150J-0*
G01X1994580Y1712120*
G03X1994324Y1712029I-106J-106*
G01X1992598Y1710478D02*
G03X1994324Y1712029I0J1736D01*
G01X1992598Y1710478D02*
X1989449D01*
X1988106Y1711115D02*
G03X1989449Y1710478I1343J1099D01*
G01X1988106Y1711115D02*
G03X1987857Y1711089I-116J-95D01*
G01X1985709Y1709789D02*
G03X1987857Y1711089I-0J2425D01*
G01X1985709Y1709789D02*
X1984921D01*
X1982496Y1712214D02*
G03X1984921Y1709789I2425J0D01*
G01Y1714639D02*
G03X1982496Y1712214I0J-2425D01*
G01X1984921Y1714639D02*
X1985709D01*
X1987857Y1713339D02*
G03X1985709Y1714639I-2148J-1125D01*
G01X1987857Y1713339D02*
G03X1988106Y1713314I133J70D01*
G01X1988315Y1713528D02*
G03X1988106Y1713314I1134J-1314D01*
G01X1988315Y1713528D02*
G03X1988367Y1713642I-98J114D01*
X1988253Y1713787I-150J-0*
G01X1987718Y1714090D02*
G03X1988253Y1713787I813J813D01*
G01X1987718Y1714090D02*
X1986137Y1715671D01*
G03X1986012Y1715714I-106J-106*
G01X1985709Y1715695D02*
G03X1986012Y1715714I-0J2425D01*
G01X1985709Y1715695D02*
X1984921D01*
X1982496Y1718120D02*
G03X1984921Y1715695I2425J-0D01*
G01Y1720545D02*
G03X1982496Y1718120I0J-2425D01*
G01X1984921Y1720545D02*
X1985709D01*
X1987857Y1719245D02*
G03X1985709Y1720545I-2148J-1125D01*
G01X1987857Y1719245D02*
G03X1988106Y1719219I133J69D01*
G01X1989449Y1719856D02*
G03X1988106Y1719219I-0J-1736D01*
G01X1989449Y1719856D02*
X1992598D01*
X1994334Y1718120D02*
G03X1992598Y1719856I-1736J-0D01*
G01Y1716384D02*
G03X1994334Y1718120I0J1736D01*
G01X1992598Y1716384D02*
X1989449D01*
X1989017Y1716438D02*
G03X1989449Y1716384I432J1682D01*
G01X1989017Y1716438D02*
G03X1988830Y1716293I-37J-145D01*
X1988874Y1716187I150J0*
G01X1988964Y1716097*
G03X1989070Y1716053I106J106*
G01X1993422*
X1994236Y1715716D02*
G03X1993422Y1716053I-814J-813D01*
G01X1994236Y1715716D02*
X1997486Y1712466D01*
X1997822Y1711653D02*
G03X1997486Y1712466I-1150J0D01*
G01X1997822Y1711653D02*
Y1699133D01*
G03X1998010Y1698988I150J0*
G01X2000060Y1697403D02*
G03X1998010Y1698988I-1638J0D01*
G01X1999613Y1696279D02*
G03X2000060Y1697403I-1191J1124D01*
G01X1999613Y1696279D02*
G03X1999572Y1696176I109J-103D01*
G01Y1675942*
G03X1999616Y1675836I150J-0*
G01X2003105Y1672347*
G03X2003211Y1672303I106J106*
G01X2048196*
G03X2048299Y1672344I-0J150*
G01X2051060Y1671153D02*
G03X2048299Y1672344I-1638J0D01*
G01X2066024Y1721600D02*
G03X2068448Y1724025I-0J2425D01*
G01X2066024Y1721600D02*
X2065236D01*
X2063088Y1722900D02*
G03X2065236Y1721600I2148J1125D01*
G01X2063088Y1722900D02*
G03X2062839Y1722926I-133J-69D01*
G01X2061496Y1722289D02*
G03X2062839Y1722926I0J1736D01*
G01X2061496Y1722289D02*
X2058346D01*
X2056611Y1724025D02*
G03X2058346Y1722289I1735J0D01*
G01Y1725761D02*
G03X2056611Y1724025I0J-1736D01*
G01X2058346Y1725761D02*
X2061496D01*
X2062839Y1725125D02*
G03X2061496Y1725761I-1343J-1100D01*
G01X2062839Y1725125D02*
G03X2063088Y1725150I116J95D01*
G01X2065236Y1726450D02*
G03X2063088Y1725150I0J-2425D01*
G01X2065236Y1726450D02*
X2066024D01*
X2068448Y1724025D02*
G03X2066024Y1726450I-2424J0D01*
G01X2021099Y1637872D02*
G03X2023860Y1639063I1123J1191D01*
G01X2021099Y1637872D02*
G03X2020996Y1637913I-103J-109D01*
G01X2015371*
G03X2015265Y1637869I-0J-150*
G01X2014366Y1636971*
G03X2014322Y1636865I106J-106*
G01Y1613442*
G03X2014366Y1613336I150J-0*
G01X2016855Y1610847*
G03X2016961Y1610803I106J106*
G01X2017696*
G03X2017799Y1610844I-0J150*
G01X2020560Y1609653D02*
G03X2017799Y1610844I-1638J0D01*
G01X2020093Y1608508D02*
G03X2020560Y1609653I-1171J1145D01*
G01X2020093Y1608508D02*
G03X2020050Y1608403I107J-105D01*
X2020093Y1608298I150J0*
G01X2020560Y1607153D02*
G03X2020093Y1608298I-1638J0D01*
G01X2017799Y1605962D02*
G03X2020560Y1607153I1123J1191D01*
G01X2017799Y1605962D02*
G03X2017696Y1606003I-103J-109D01*
G01X2016172*
X2015359Y1606340D02*
G03X2016172Y1606003I813J813D01*
G01X2015359Y1606340D02*
X2010859Y1610840D01*
X2010522Y1611653D02*
G03X2010859Y1610840I1150J0D01*
G01X2010522Y1611653D02*
Y1618258D01*
G03X2010314Y1618397I-150J0*
G01X2008035Y1619903D02*
G03X2010314Y1618397I1637J0D01*
G01X2008482Y1621027D02*
G03X2008035Y1619903I1190J-1124D01*
G01X2008482Y1621027D02*
G03X2008522Y1621130I-110J103D01*
G01Y1630426*
G03X2008482Y1630529I-150J0*
G01X2008035Y1631653D02*
G03X2008482Y1630529I1637J0D01*
G01X2010314Y1633160D02*
G03X2008035Y1631653I-642J-1507D01*
G01X2010314Y1633160D02*
G03X2010522Y1633298I58J138D01*
G01Y1638153*
X2010859Y1638966D02*
G03X2010522Y1638153I813J-813D01*
G01X2010859Y1638966D02*
X2013519Y1641626D01*
X2014332Y1641963D02*
G03X2013519Y1641626I0J-1150D01*
G01X2014332Y1641963D02*
X2018996D01*
G03X2019099Y1642004I-0J150*
G01X2021860Y1640836D02*
G03X2019099Y1642004I-1638J-23D01*
G01X2021860Y1640836D02*
G03X2022028Y1640689I150J2D01*
G01X2023860Y1639063D02*
G03X2022028Y1640689I-1638J0D01*
G01X1979275Y1599883D02*
G03X1979275I-3803J0D01*
G01X1992598Y1704573D02*
G03X1994334Y1706309I0J1736D01*
G01X1992598Y1704573D02*
X1989449D01*
X1988106Y1705209D02*
G03X1989449Y1704573I1343J1100D01*
G01X1988106Y1705209D02*
G03X1987857Y1705184I-116J-95D01*
G01X1985709Y1703884D02*
G03X1987857Y1705184I-0J2425D01*
G01X1985709Y1703884D02*
X1984921D01*
X1982496Y1706309D02*
G03X1984921Y1703884I2425J-0D01*
G01Y1708733D02*
G03X1982496Y1706309I0J-2424D01*
G01X1984921Y1708733D02*
X1985709D01*
X1987857Y1707434D02*
G03X1985709Y1708733I-2148J-1125D01*
G01X1987857Y1707434D02*
G03X1988106Y1707408I133J69D01*
G01X1989449Y1708045D02*
G03X1988106Y1707408I-0J-1736D01*
G01X1989449Y1708045D02*
X1992598D01*
X1994334Y1706309D02*
G03X1992598Y1708045I-1736J-0D01*
G01Y1722289D02*
G03X1994334Y1724025I0J1736D01*
G01X1992598Y1722289D02*
X1989449D01*
X1988106Y1722926D02*
G03X1989449Y1722289I1343J1099D01*
G01X1988106Y1722926D02*
G03X1987857Y1722900I-116J-95D01*
G01X1985709Y1721600D02*
G03X1987857Y1722900I-0J2425D01*
G01X1985709Y1721600D02*
X1984921D01*
X1982496Y1724025D02*
G03X1984921Y1721600I2425J0D01*
G01Y1726450D02*
G03X1982496Y1724025I0J-2425D01*
G01X1984921Y1726450D02*
X1985709D01*
X1987857Y1725150D02*
G03X1985709Y1726450I-2148J-1125D01*
G01X1987857Y1725150D02*
G03X1988106Y1725125I133J70D01*
G01X1989449Y1725761D02*
G03X1988106Y1725125I-0J-1736D01*
G01X1989449Y1725761D02*
X1992598D01*
X1994334Y1724025D02*
G03X1992598Y1725761I-1736J0D01*
G01X1979275Y1699883D02*
G03X1979275I-3803J0D01*
G01Y1709883D02*
G03X1979275I-3803J0D01*
G01X2068420Y1723652D02*
X2081191D01*
X2068304Y1723202D02*
X2081191D01*
X2068087Y1722752D02*
X2081191D01*
X2067729Y1722302D02*
X2081191D01*
X2067099Y1721852D02*
X2081191D01*
X2041136Y1721402D02*
X2081191D01*
X2040939Y1720952D02*
X2081191D01*
X2066476Y1720502D02*
X2081191D01*
X2067489Y1720052D02*
X2081191D01*
X2067943Y1719602D02*
X2081191D01*
X2068218Y1719152D02*
X2081191D01*
X2068378Y1718702D02*
X2081191D01*
X2068445Y1718252D02*
X2081191D01*
X2068428Y1717802D02*
X2081191D01*
X2068324Y1717352D02*
X2081191D01*
X2068474Y1716902D02*
X2081191D01*
X2068924Y1716452D02*
X2081191D01*
X2069374Y1716002D02*
X2081191D01*
X2071305Y1715552D02*
X2081191D01*
X2071880Y1715102D02*
X2081191D01*
X2072330Y1714652D02*
X2081191D01*
X2072780Y1714202D02*
X2081191D01*
X2073230Y1713752D02*
X2081191D01*
X2077138Y1713302D02*
X2081191D01*
X2077849Y1712852D02*
X2081191D01*
X2078322Y1712402D02*
X2081191D01*
X2078663Y1711952D02*
X2081191D01*
X2078914Y1711502D02*
X2081191D01*
X2079091Y1711052D02*
X2081191D01*
X2079207Y1710602D02*
X2081191D01*
X2079266Y1710152D02*
X2081191D01*
X2079271Y1709702D02*
X2081191D01*
X2079222Y1709252D02*
X2081191D01*
X2079118Y1708802D02*
X2081191D01*
X2078953Y1708352D02*
X2081191D01*
X2078718Y1707902D02*
X2081191D01*
X2078396Y1707452D02*
X2081191D01*
X2077954Y1707002D02*
X2081191D01*
X2077306Y1706552D02*
X2081191D01*
X2075876Y1706102D02*
X2081191D01*
X2072572Y1705652D02*
X2081191D01*
X2072572Y1705202D02*
X2081191D01*
X2072572Y1704752D02*
X2081191D01*
X2072572Y1704302D02*
X2081191D01*
X2072572Y1703852D02*
X2081191D01*
X2072572Y1703402D02*
X2081191D01*
X2072572Y1702952D02*
X2081191D01*
X2072572Y1702502D02*
X2081191D01*
X2072572Y1702052D02*
X2081191D01*
X2072572Y1701602D02*
X2081191D01*
X2072572Y1701152D02*
X2081191D01*
X2072572Y1700702D02*
X2081191D01*
X2072572Y1700252D02*
X2081191D01*
X2072572Y1699802D02*
X2081191D01*
X2072572Y1699352D02*
X2081191D01*
X2072572Y1698902D02*
X2081191D01*
X2072572Y1698452D02*
X2081191D01*
X2072572Y1698002D02*
X2081191D01*
X2072572Y1697552D02*
X2081191D01*
X2072572Y1697102D02*
X2081191D01*
X2072572Y1696652D02*
X2081191D01*
X2072572Y1696202D02*
X2081191D01*
X2072572Y1695752D02*
X2081191D01*
X2072572Y1695302D02*
X2081191D01*
X2072572Y1694852D02*
X2081191D01*
X2072572Y1694402D02*
X2081191D01*
X2072572Y1693952D02*
X2081191D01*
X2076641Y1693502D02*
X2081191D01*
X2077575Y1693052D02*
X2081191D01*
X2078131Y1692602D02*
X2081191D01*
X2078524Y1692152D02*
X2081191D01*
X2078812Y1691702D02*
X2081191D01*
X2079020Y1691252D02*
X2081191D01*
X2079163Y1690802D02*
X2081191D01*
X2079246Y1690352D02*
X2081191D01*
X2079275Y1689902D02*
X2081191D01*
X2079251Y1689452D02*
X2081191D01*
X2079172Y1689002D02*
X2081191D01*
X2079035Y1688552D02*
X2081191D01*
X2078832Y1688102D02*
X2081191D01*
X2078552Y1687652D02*
X2081191D01*
X2078169Y1687202D02*
X2081191D01*
X2077630Y1686752D02*
X2081191D01*
X2076751Y1686302D02*
X2081191D01*
X2072572Y1685852D02*
X2081191D01*
X2072572Y1685402D02*
X2081191D01*
X2072572Y1684952D02*
X2081191D01*
X2072572Y1684502D02*
X2081191D01*
X2072572Y1684052D02*
X2081191D01*
X2076268Y1683602D02*
X2081191D01*
X2077416Y1683152D02*
X2081191D01*
X2078025Y1682702D02*
X2081191D01*
X2078447Y1682252D02*
X2081191D01*
X2078756Y1681802D02*
X2081191D01*
X2078980Y1681352D02*
X2081191D01*
X2079136Y1680902D02*
X2081191D01*
X2079232Y1680452D02*
X2081191D01*
X2079273Y1680002D02*
X2081191D01*
X2079261Y1679552D02*
X2081191D01*
X2079194Y1679102D02*
X2081191D01*
X2079070Y1678652D02*
X2081191D01*
X2078883Y1678202D02*
X2081191D01*
X2078622Y1677752D02*
X2081191D01*
X2078265Y1677302D02*
X2081191D01*
X2077769Y1676852D02*
X2081191D01*
X2077003Y1676402D02*
X2081191D01*
X2072572Y1675952D02*
X2081191D01*
X2072572Y1675502D02*
X2081191D01*
X2072572Y1675052D02*
X2081191D01*
X2072572Y1674602D02*
X2081191D01*
X2072572Y1674152D02*
X2081191D01*
X2072572Y1673702D02*
X2081191D01*
X2072572Y1673252D02*
X2081191D01*
X2072572Y1672802D02*
X2081191D01*
X2072572Y1672352D02*
X2081191D01*
X2072572Y1671902D02*
X2081191D01*
X2072572Y1671452D02*
X2081191D01*
X2072572Y1671002D02*
X2081191D01*
X2072572Y1670552D02*
X2081191D01*
X2072572Y1670102D02*
X2081191D01*
X2072572Y1669652D02*
X2081191D01*
X2072572Y1669202D02*
X2081191D01*
X2072572Y1668752D02*
X2081191D01*
X2072572Y1668302D02*
X2081191D01*
X2072572Y1667852D02*
X2081191D01*
X2072572Y1667402D02*
X2081191D01*
X2072572Y1666952D02*
X2081191D01*
X2072572Y1666502D02*
X2081191D01*
X2072572Y1666052D02*
X2081191D01*
X2072572Y1665602D02*
X2081191D01*
X2072572Y1665152D02*
X2081191D01*
X2072572Y1664702D02*
X2081191D01*
X2072572Y1664252D02*
X2081191D01*
X2072572Y1663802D02*
X2081191D01*
X2077031Y1663352D02*
X2081191D01*
X2077785Y1662902D02*
X2081191D01*
X2078277Y1662452D02*
X2081191D01*
X2078630Y1662002D02*
X2081191D01*
X2078890Y1661552D02*
X2081191D01*
X2079075Y1661102D02*
X2081191D01*
X2079197Y1660652D02*
X2081191D01*
X2079262Y1660202D02*
X2081191D01*
X2079273Y1659752D02*
X2081191D01*
X2079231Y1659302D02*
X2081191D01*
X2079133Y1658852D02*
X2081191D01*
X2078975Y1658402D02*
X2081191D01*
X2078748Y1657952D02*
X2081191D01*
X2078437Y1657502D02*
X2081191D01*
X2078011Y1657052D02*
X2081191D01*
X2077394Y1656602D02*
X2081191D01*
X2076206Y1656152D02*
X2081191D01*
X2072572Y1655702D02*
X2081191D01*
X2072572Y1655252D02*
X2081191D01*
X2072572Y1654802D02*
X2081191D01*
X2072575Y1654352D02*
X2081191D01*
X2072879Y1653902D02*
X2081191D01*
X2076786Y1653452D02*
X2081191D01*
X2077648Y1653002D02*
X2081191D01*
X2078182Y1652552D02*
X2081191D01*
X2078561Y1652102D02*
X2081191D01*
X2078839Y1651652D02*
X2081191D01*
X2079039Y1651202D02*
X2081191D01*
X2079175Y1650752D02*
X2081191D01*
X2079252Y1650302D02*
X2081191D01*
X2079275Y1649852D02*
X2081191D01*
X2079245Y1649402D02*
X2081191D01*
X2079159Y1648952D02*
X2081191D01*
X2079015Y1648502D02*
X2081191D01*
X2078805Y1648052D02*
X2081191D01*
X2078515Y1647602D02*
X2081191D01*
X2078118Y1647152D02*
X2081191D01*
X2077556Y1646702D02*
X2081191D01*
X2076602Y1646252D02*
X2081191D01*
X2071180Y1645802D02*
X2081191D01*
X2071630Y1645352D02*
X2081191D01*
X2072080Y1644902D02*
X2081191D01*
X2072530Y1644452D02*
X2081191D01*
X2072980Y1644002D02*
X2081191D01*
X2076473Y1643552D02*
X2081191D01*
X2077498Y1643102D02*
X2081191D01*
X2078079Y1642652D02*
X2081191D01*
X2078487Y1642202D02*
X2081191D01*
X2078784Y1641752D02*
X2081191D01*
X2079001Y1641302D02*
X2081191D01*
X2079150Y1640852D02*
X2081191D01*
X2079240Y1640402D02*
X2081191D01*
X2079275Y1639952D02*
X2081191D01*
X2079256Y1639502D02*
X2081191D01*
X2079183Y1639052D02*
X2081191D01*
X2079053Y1638602D02*
X2081191D01*
X2078858Y1638152D02*
X2081191D01*
X2078587Y1637702D02*
X2081191D01*
X2078218Y1637252D02*
X2081191D01*
X2077701Y1636802D02*
X2081191D01*
X2076884Y1636352D02*
X2081191D01*
X2049822Y1635902D02*
X2081191D01*
X2049822Y1635452D02*
X2081191D01*
X2049822Y1635002D02*
X2081191D01*
X2050041Y1634552D02*
X2081191D01*
X2050247Y1634102D02*
X2081191D01*
X2075980Y1633652D02*
X2081191D01*
X2077329Y1633202D02*
X2081191D01*
X2077969Y1632752D02*
X2081191D01*
X2078407Y1632302D02*
X2081191D01*
X2078726Y1631852D02*
X2081191D01*
X2078959Y1631402D02*
X2081191D01*
X2079122Y1630952D02*
X2081191D01*
X2079225Y1630502D02*
X2081191D01*
X2079271Y1630052D02*
X2081191D01*
X2079265Y1629602D02*
X2081191D01*
X2079204Y1629152D02*
X2081191D01*
X2079087Y1628702D02*
X2081191D01*
X2078908Y1628252D02*
X2081191D01*
X2078655Y1627802D02*
X2081191D01*
X2078310Y1627352D02*
X2081191D01*
X2077833Y1626902D02*
X2081191D01*
X2077112Y1626452D02*
X2081191D01*
X2045822Y1626002D02*
X2081191D01*
X2045822Y1625552D02*
X2081191D01*
X2045821Y1625102D02*
X2081191D01*
X2045707Y1624652D02*
X2081191D01*
X2045348Y1624202D02*
X2081191D01*
X2044898Y1623752D02*
X2081191D01*
X2044448Y1623302D02*
X2081191D01*
X2043889Y1622852D02*
X2081191D01*
X2042170Y1622402D02*
X2081191D01*
X2042500Y1621952D02*
X2081191D01*
X2051601Y1621502D02*
X2081191D01*
X2052041Y1621052D02*
X2081191D01*
X2052247Y1620602D02*
X2081191D01*
X2052310Y1620152D02*
X2081191D01*
X2052246Y1619702D02*
X2081191D01*
X2052039Y1619252D02*
X2081191D01*
X2051597Y1618802D02*
X2081191D01*
X2014322Y1618352D02*
X2081191D01*
X2014322Y1617902D02*
X2081191D01*
X2014322Y1617452D02*
X2081191D01*
X2014322Y1617002D02*
X2081191D01*
X2014322Y1616552D02*
X2081191D01*
X2014322Y1616102D02*
X2081191D01*
X2014322Y1615652D02*
X2081191D01*
X2014322Y1615202D02*
X2081191D01*
X2014322Y1614752D02*
X2081191D01*
X2014322Y1614302D02*
X2081191D01*
X2014322Y1613852D02*
X2081191D01*
X2014328Y1613402D02*
X2081191D01*
X2014750Y1612952D02*
X2081191D01*
X2015200Y1612502D02*
X2081191D01*
X2015650Y1612052D02*
X2081191D01*
X2016100Y1611602D02*
X2081191D01*
X2019582Y1611152D02*
X2081191D01*
X2020180Y1610702D02*
X2081191D01*
X2020446Y1610252D02*
X2081191D01*
X2020553Y1609802D02*
X2081191D01*
X2020532Y1609352D02*
X2081191D01*
X2020377Y1608902D02*
X2081191D01*
X2020058Y1608452D02*
X2081191D01*
X2020323Y1608002D02*
X2081191D01*
X2020511Y1607552D02*
X2081191D01*
X2020559Y1607102D02*
X2081191D01*
X2020481Y1606652D02*
X2081191D01*
X2020255Y1606202D02*
X2081191D01*
X2019770Y1605752D02*
X2081191D01*
X2015310Y1605302D02*
X2081191D01*
X2015760Y1604852D02*
X2081191D01*
X2032082Y1604402D02*
X2081191D01*
X2032680Y1603952D02*
X2081191D01*
X2032946Y1603502D02*
X2081191D01*
X2033053Y1603052D02*
X2081191D01*
X2033032Y1602602D02*
X2081191D01*
X2032877Y1602152D02*
X2081191D01*
X2032661Y1601702D02*
X2081191D01*
X2032958Y1601252D02*
X2081191D01*
X2040643Y1600802D02*
X2081191D01*
X2041373Y1600352D02*
X2081191D01*
X2041798Y1599902D02*
X2081191D01*
X2042075Y1599452D02*
X2081191D01*
X2042251Y1599002D02*
X2081191D01*
X2042344Y1598552D02*
X2081191D01*
X2042366Y1598102D02*
X2081191D01*
X2042366Y1597652D02*
X2081191D01*
X2042366Y1597202D02*
X2081191D01*
X2042366Y1596752D02*
X2081191D01*
X2042366Y1596302D02*
X2081191D01*
X2042366Y1595852D02*
X2081191D01*
X2042366Y1595402D02*
X2081191D01*
X2042364Y1594952D02*
X2081191D01*
X2042311Y1594502D02*
X2081191D01*
X2042181Y1594052D02*
X2081191D01*
X2041962Y1593602D02*
X2081191D01*
X2041626Y1593152D02*
X2081191D01*
X2041098Y1592702D02*
X2081191D01*
X2039839Y1592252D02*
X2081191D01*
X2034960Y1591802D02*
X2081191D01*
X2035220Y1591352D02*
X2081191D01*
X2035350Y1590902D02*
X2081191D01*
X2035374Y1590452D02*
X2081191D01*
X2035297Y1590002D02*
X2081191D01*
X2035105Y1589552D02*
X2081191D01*
X2034752Y1589102D02*
X2081191D01*
X2034019Y1588652D02*
X2081191D01*
X1969754Y1588202D02*
X2081191D01*
X1969754Y1587752D02*
X2081191D01*
X1969754Y1587302D02*
X2081191D01*
X1969754Y1586852D02*
X2081191D01*
X2040099Y1586402D02*
X2081191D01*
X2041157Y1585952D02*
X2081191D01*
X2041661Y1585502D02*
X2081191D01*
X2041985Y1585052D02*
X2081191D01*
X2042196Y1584602D02*
X2081191D01*
X2042319Y1584152D02*
X2081191D01*
X2042365Y1583702D02*
X2081191D01*
X2042366Y1583252D02*
X2081191D01*
X2042366Y1582802D02*
X2081191D01*
X2042366Y1582352D02*
X2081191D01*
X2042366Y1581902D02*
X2081191D01*
X2042366Y1581452D02*
X2081191D01*
X2042366Y1581002D02*
X2081191D01*
X2042366Y1580552D02*
X2081191D01*
X2042339Y1580102D02*
X2081191D01*
X2042239Y1579652D02*
X2081191D01*
X2042055Y1579202D02*
X2081191D01*
X2041767Y1578752D02*
X2081191D01*
X2068447Y1724102D02*
X2081191D01*
X2041326Y1578302D02*
X2081155D01*
X2068391Y1724552D02*
X2081147D01*
X2040544Y1577852D02*
X2081040D01*
X2068243Y1725002D02*
X2081023D01*
X1970111Y1577402D02*
X2080834D01*
X2067984Y1725452D02*
X2080806D01*
X1970435Y1576952D02*
X2080509D01*
X2067559Y1725902D02*
X2080466D01*
X1970954Y1576502D02*
X2079991D01*
X2066707Y1726352D02*
X2079917D01*
X2072572Y1706102D02*
X2075069D01*
X2050310Y1633652D02*
X2074965D01*
X2072572Y1656152D02*
X2074739D01*
X2072572Y1683602D02*
X2074677D01*
X2073430Y1643552D02*
X2074472D01*
X2070730Y1646252D02*
X2074343D01*
X2072572Y1693502D02*
X2074304D01*
X2072572Y1686302D02*
X2074194D01*
X2073032Y1653452D02*
X2074159D01*
X2049822Y1636352D02*
X2074061D01*
X2072572Y1676402D02*
X2073942D01*
X2072572Y1663352D02*
X2073914D01*
X2050035Y1626452D02*
X2073833D01*
X2073699Y1713302D02*
X2073806D01*
X2072565Y1706552D02*
X2073638D01*
X2050246Y1633202D02*
X2073616D01*
X2072572Y1656602D02*
X2073550D01*
X2072572Y1683152D02*
X2073529D01*
X2070280Y1646702D02*
X2073389D01*
X2072572Y1693052D02*
X2073370D01*
X2072572Y1686752D02*
X2073315D01*
X2073123Y1653002D02*
X2073296D01*
X2049822Y1636802D02*
X2073244D01*
X2072572Y1676852D02*
X2073176D01*
X2072572Y1662902D02*
X2073160D01*
X2050377Y1626902D02*
X2073112D01*
X2072415Y1707002D02*
X2072991D01*
X2050039Y1632752D02*
X2072976D01*
X2072573Y1657052D02*
X2072934D01*
X2072574Y1682702D02*
X2072920D01*
X2069830Y1647152D02*
X2072826D01*
X2072633Y1692602D02*
X2072812D01*
X2049822Y1637252D02*
X2072727D01*
X2050532Y1627352D02*
X2072635D01*
X2072019Y1707452D02*
X2072548D01*
X2049597Y1632302D02*
X2072538D01*
X2069380Y1647602D02*
X2072430D01*
X2049822Y1637702D02*
X2072357D01*
X2050553Y1627802D02*
X2072290D01*
X2071569Y1707902D02*
X2072227D01*
X2048022Y1631852D02*
X2072219D01*
X2069072Y1648052D02*
X2072140D01*
X2049822Y1638152D02*
X2072087D01*
X2050446Y1628252D02*
X2072037D01*
X2068341Y1711502D02*
X2072031D01*
X2071119Y1708352D02*
X2071992D01*
X2048022Y1631402D02*
X2071986D01*
X2049822Y1641752D02*
X2071977D01*
X2049822Y1641302D02*
X2071944D01*
X2069072Y1648502D02*
X2071929D01*
X2049822Y1638602D02*
X2071892D01*
X2050180Y1628702D02*
X2071858D01*
X2068419Y1711052D02*
X2071854D01*
X2070669Y1708802D02*
X2071827D01*
X2048022Y1630952D02*
X2071823D01*
X2049822Y1640852D02*
X2071795D01*
X2068434Y1711952D02*
X2071777D01*
X2049822Y1639052D02*
X2071762D01*
X2049582Y1629152D02*
X2071741D01*
X2068869Y1710602D02*
X2071738D01*
X2070219Y1709252D02*
X2071722D01*
X2048024Y1630502D02*
X2071720D01*
X2049822Y1640402D02*
X2071705D01*
X2049822Y1639502D02*
X2071689D01*
X2048883Y1629602D02*
X2071680D01*
X2069319Y1710152D02*
X2071679D01*
X2069769Y1709702D02*
X2071674D01*
X2048433Y1630052D02*
X2071673D01*
X2049822Y1639952D02*
X2071670D01*
X2049822Y1642202D02*
X2071527D01*
X2068441Y1712402D02*
X2071327D01*
X2049822Y1642652D02*
X2071077D01*
X2068363Y1712852D02*
X2070877D01*
X2049822Y1643102D02*
X2070627D01*
X2069072Y1648952D02*
X2070518D01*
X2068191Y1713302D02*
X2070427D01*
X2068358Y1705652D02*
X2070272D01*
X2068363Y1705202D02*
X2070272D01*
X2068813Y1704752D02*
X2070272D01*
X2069263Y1704302D02*
X2070272D01*
X2069713Y1703852D02*
X2070272D01*
X2049822Y1643552D02*
X2070177D01*
X2068440Y1706102D02*
X2070116D01*
X2069072Y1649402D02*
X2070047D01*
X2049822Y1644002D02*
X2069727D01*
X2068436Y1706552D02*
X2069666D01*
X2069072Y1649852D02*
X2069597D01*
X2049822Y1644452D02*
X2069277D01*
X2068347Y1707002D02*
X2069216D01*
X2068330Y1701152D02*
X2069022D01*
X2068430Y1700702D02*
X2069022D01*
X2068444Y1700252D02*
X2069022D01*
X2068373Y1699802D02*
X2069022D01*
X2068701Y1699352D02*
X2069017D01*
X2049822Y1644902D02*
X2068827D01*
X2068162Y1707452D02*
X2068766D01*
X2068131Y1701602D02*
X2068710D01*
X2049822Y1645352D02*
X2068377D01*
X2067899Y1713752D02*
X2068371D01*
X2067852Y1707902D02*
X2068316D01*
X2067802Y1702052D02*
X2068260D01*
X2049822Y1645802D02*
X2067927D01*
X2067412Y1714202D02*
X2067921D01*
X2067329Y1708352D02*
X2067866D01*
X2067238Y1702502D02*
X2067810D01*
X2067137Y1696652D02*
X2067798D01*
X2066638Y1692152D02*
X2067798D01*
X1999572Y1691702D02*
X2067798D01*
X1999572Y1691252D02*
X2067798D01*
X2067022Y1690802D02*
X2067798D01*
X2066820Y1686302D02*
X2067798D01*
X1999572Y1685852D02*
X2067798D01*
X1999572Y1685402D02*
X2067798D01*
X2066889Y1684952D02*
X2067798D01*
X2066965Y1680452D02*
X2067798D01*
X2064178Y1680002D02*
X2067798D01*
X2063728Y1679552D02*
X2067798D01*
X2066726Y1679102D02*
X2067798D01*
X2067087Y1674602D02*
X2067798D01*
X2001300Y1674152D02*
X2067798D01*
X2001750Y1673702D02*
X2067798D01*
X2002200Y1673252D02*
X2067798D01*
X2002650Y1672802D02*
X2067798D01*
X2050538Y1672352D02*
X2067798D01*
X2050879Y1671902D02*
X2067798D01*
X2051032Y1671452D02*
X2067798D01*
X2051053Y1671002D02*
X2067798D01*
X2050945Y1670552D02*
X2067798D01*
X2050678Y1670102D02*
X2067798D01*
X2050076Y1669652D02*
X2067798D01*
X1997822Y1669202D02*
X2067798D01*
X1997822Y1668752D02*
X2067798D01*
X1997822Y1668302D02*
X2067798D01*
X1997822Y1667852D02*
X2067798D01*
X1997822Y1667402D02*
X2067798D01*
X1997822Y1666952D02*
X2067798D01*
X1997822Y1666502D02*
X2067798D01*
X1997822Y1666052D02*
X2067798D01*
X1997822Y1665602D02*
X2067798D01*
X1997822Y1665152D02*
X2067798D01*
X1997822Y1664702D02*
X2067798D01*
X1997822Y1664252D02*
X2067798D01*
X1997822Y1663802D02*
X2067798D01*
X1997822Y1663352D02*
X2067798D01*
X1997822Y1662902D02*
X2067798D01*
X1997822Y1662452D02*
X2067798D01*
X1997822Y1662002D02*
X2067798D01*
X1997822Y1661552D02*
X2067798D01*
X1997822Y1661102D02*
X2067798D01*
X1997822Y1660652D02*
X2067798D01*
X1997822Y1660202D02*
X2067798D01*
X1997822Y1659752D02*
X2067798D01*
X2056024Y1659302D02*
X2067798D01*
X2056507Y1658852D02*
X2067798D01*
X2056732Y1658402D02*
X2067798D01*
X2056809Y1657952D02*
X2067798D01*
X2056760Y1657502D02*
X2067798D01*
X2056571Y1657052D02*
X2067798D01*
X2056166Y1656602D02*
X2067768D01*
X2067536Y1692602D02*
X2067757D01*
X2067568Y1678652D02*
X2067727D01*
X2000032Y1697102D02*
X2067699D01*
X2049822Y1646252D02*
X2067477D01*
X2035993Y1714652D02*
X2067471D01*
X1997822Y1708802D02*
X2067416D01*
X1997822Y1702952D02*
X2067360D01*
X2050798Y1656152D02*
X2067320D01*
X2000053Y1697552D02*
X2067249D01*
X2049822Y1646702D02*
X2067035D01*
X2036540Y1715102D02*
X2067021D01*
X1997822Y1709252D02*
X2066966D01*
X2050348Y1655702D02*
X2066926D01*
X1997822Y1703402D02*
X2066910D01*
X2049822Y1647152D02*
X2066807D01*
X2066361Y1698002D02*
X2066799D01*
X2049898Y1655252D02*
X2066779D01*
X2049822Y1654802D02*
X2066772D01*
X2049822Y1654352D02*
X2066772D01*
X2049822Y1653902D02*
X2066772D01*
X2049822Y1653452D02*
X2066772D01*
X2049822Y1653002D02*
X2066772D01*
X2049822Y1652552D02*
X2066772D01*
X2049822Y1652102D02*
X2066772D01*
X2049822Y1651652D02*
X2066772D01*
X2049822Y1651202D02*
X2066772D01*
X2049822Y1650752D02*
X2066772D01*
X2049822Y1650302D02*
X2066772D01*
X2049822Y1649852D02*
X2066772D01*
X2049822Y1649402D02*
X2066772D01*
X2049822Y1648952D02*
X2066772D01*
X2049822Y1648502D02*
X2066772D01*
X2049822Y1648052D02*
X2066772D01*
X2049822Y1647602D02*
X2066772D01*
X2037044Y1715552D02*
X2066571D01*
X1997822Y1709702D02*
X2066516D01*
X1997822Y1703852D02*
X2066460D01*
X1999946Y1698002D02*
X2064899D01*
X2040726Y1720502D02*
X2064783D01*
X1999572Y1692152D02*
X2064622D01*
X2042390Y1726352D02*
X2064553D01*
X2063169Y1679102D02*
X2064533D01*
X1999572Y1686302D02*
X2064440D01*
X1999572Y1684952D02*
X2064371D01*
X1999572Y1690802D02*
X2064238D01*
X2000850Y1674602D02*
X2064173D01*
X2041318Y1721852D02*
X2064161D01*
X1999877Y1696652D02*
X2064123D01*
X2037510Y1716002D02*
X2064055D01*
X1997822Y1702502D02*
X2064022D01*
X1997822Y1710152D02*
X2063961D01*
X1997822Y1708352D02*
X2063930D01*
X1997822Y1704302D02*
X2063875D01*
X2035395Y1714202D02*
X2063847D01*
X1999680Y1698452D02*
X2063797D01*
X2040496Y1720052D02*
X2063771D01*
X1999572Y1692602D02*
X2063724D01*
X2042340Y1725902D02*
X2063701D01*
X2053326Y1678652D02*
X2063693D01*
X1999572Y1686752D02*
X2063657D01*
X1999572Y1684502D02*
X2063629D01*
X1999572Y1690352D02*
X2063568D01*
X2061647Y1675052D02*
X2063536D01*
X2061704Y1722302D02*
X2063530D01*
X2061826Y1696202D02*
X2063511D01*
X2061977Y1716452D02*
X2063476D01*
X2062039Y1702052D02*
X2063458D01*
X2062139Y1710602D02*
X2063425D01*
X2062185Y1707902D02*
X2063408D01*
X2062264Y1704752D02*
X2063377D01*
X2062301Y1713752D02*
X2063361D01*
X2062367Y1698902D02*
X2063332D01*
X2062400Y1719602D02*
X2063317D01*
X2062457Y1693052D02*
X2063290D01*
X2062485Y1725452D02*
X2063276D01*
X2062493Y1678202D02*
X2063271D01*
X2062535Y1687202D02*
X2063250D01*
X2062568Y1684052D02*
X2063232D01*
X2062635Y1689902D02*
X2063196D01*
X2062669Y1675502D02*
X2063176D01*
X2062676Y1722752D02*
X2063173D01*
X2062696Y1695752D02*
X2063161D01*
X2062733Y1716902D02*
X2063139D01*
X2062752Y1701602D02*
X2063128D01*
X2062785Y1711052D02*
X2063108D01*
X2062802Y1707452D02*
X2063098D01*
X2062833Y1705202D02*
X2063077D01*
X2062850Y1713302D02*
X2063060D01*
X2062911Y1699352D02*
X2063000D01*
X2000400Y1675052D02*
X2058195D01*
X2041486Y1722302D02*
X2058138D01*
X1999575Y1696202D02*
X2058017D01*
X2037942Y1716452D02*
X2057865D01*
X1997822Y1702052D02*
X2057803D01*
X1997822Y1710602D02*
X2057703D01*
X1997822Y1707902D02*
X2057657D01*
X1997822Y1704752D02*
X2057579D01*
X2034737Y1713752D02*
X2057541D01*
X1999082Y1698902D02*
X2057475D01*
X2040249Y1719602D02*
X2057443D01*
X1999572Y1693052D02*
X2057386D01*
X2042278Y1725452D02*
X2057358D01*
X1999572Y1678202D02*
X2057349D01*
X1999572Y1687202D02*
X2057307D01*
X1999572Y1684052D02*
X2057274D01*
X1999572Y1689902D02*
X2057207D01*
X1999950Y1675502D02*
X2057173D01*
X2041639Y1722752D02*
X2057167D01*
X1999572Y1695752D02*
X2057146D01*
X2038345Y1716902D02*
X2057109D01*
X1997822Y1701602D02*
X2057091D01*
X2026732Y1711052D02*
X2057057D01*
X1997822Y1707452D02*
X2057040D01*
X2053788Y1681352D02*
X2057031D01*
X1997822Y1705202D02*
X2057009D01*
X2034005Y1713302D02*
X2056994D01*
X1997822Y1699352D02*
X2056965D01*
X2039984Y1719152D02*
X2056951D01*
X1999572Y1693502D02*
X2056925D01*
X2042203Y1725002D02*
X2056911D01*
X1999572Y1677752D02*
X2056907D01*
X1999572Y1687652D02*
X2056887D01*
X1999572Y1683602D02*
X2056872D01*
X1999572Y1681802D02*
X2056853D01*
X1999572Y1689452D02*
X2056838D01*
X1999572Y1675952D02*
X2056821D01*
X2041778Y1723202D02*
X2056818D01*
X1999572Y1695302D02*
X2056808D01*
X2038719Y1717352D02*
X2056790D01*
X1997822Y1701152D02*
X2056780D01*
X2029552Y1711502D02*
X2056763D01*
X1997822Y1707002D02*
X2056755D01*
X1997822Y1705652D02*
X2056740D01*
X2033178Y1712852D02*
X2056732D01*
X1997822Y1699802D02*
X2056718D01*
X2039700Y1718702D02*
X2056711D01*
X1999572Y1693952D02*
X2056699D01*
X2042116Y1724552D02*
X2056692D01*
X1999572Y1677302D02*
X2056691D01*
X1999572Y1688102D02*
X2056681D01*
X1999572Y1683152D02*
X2056674D01*
X1999572Y1682252D02*
X2056666D01*
X1999572Y1689002D02*
X2056660D01*
X1999572Y1676402D02*
X2056653D01*
X2041904Y1723652D02*
X2056651D01*
X1999572Y1694852D02*
X2056647D01*
X2039069Y1717802D02*
X2056640D01*
X1997822Y1700702D02*
X2056637D01*
X2031066Y1711952D02*
X2056631D01*
X1997822Y1706552D02*
X2056628D01*
X1997822Y1706102D02*
X2056623D01*
X2032220Y1712402D02*
X2056621D01*
X1997822Y1700252D02*
X2056617D01*
X2039395Y1718252D02*
X2056616D01*
X1999572Y1694402D02*
X2056613D01*
X2042017Y1724102D02*
X2056612D01*
X1999572Y1676852D02*
X2056612D01*
X1999572Y1688552D02*
X2056611D01*
X1999572Y1682702D02*
X2056611D01*
X1997822Y1659302D02*
X2054321D01*
X2051248Y1656602D02*
X2054179D01*
X1999572Y1678652D02*
X2052019D01*
X1999572Y1681352D02*
X2051557D01*
X1999572Y1679102D02*
X2051417D01*
X1999572Y1680902D02*
X2051216D01*
X1999572Y1679552D02*
X2051149D01*
X1999572Y1680452D02*
X2051062D01*
X1999572Y1680002D02*
X2051042D01*
X1997822Y1658852D02*
X2050272D01*
X1997822Y1658402D02*
X2049795D01*
X2014322Y1618802D02*
X2049748D01*
X2042950Y1621502D02*
X2049744D01*
X2043204Y1657952D02*
X2049345D01*
X2043887Y1657502D02*
X2048895D01*
X1997822Y1669652D02*
X2048769D01*
X2044176Y1657052D02*
X2048445D01*
X2003100Y1672352D02*
X2048307D01*
X2044383Y1656602D02*
X2047995D01*
X2045822Y1626452D02*
X2047810D01*
X2044833Y1656152D02*
X2047636D01*
X2045283Y1655702D02*
X2047523D01*
X2045733Y1655252D02*
X2047522D01*
X2046183Y1654802D02*
X2047522D01*
X2046633Y1654352D02*
X2047522D01*
X2047083Y1653902D02*
X2047522D01*
X2045822Y1626902D02*
X2047468D01*
X2045822Y1627352D02*
X2047306D01*
X2045822Y1627802D02*
X2046865D01*
X2045822Y1628252D02*
X2046415D01*
X1997822Y1651652D02*
X2045322D01*
X1997822Y1651202D02*
X2045322D01*
X1997822Y1650752D02*
X2045322D01*
X1997822Y1650302D02*
X2045322D01*
X1997822Y1649852D02*
X2045322D01*
X1997822Y1649402D02*
X2045322D01*
X1997822Y1648952D02*
X2045322D01*
X1997822Y1648502D02*
X2045322D01*
X1997844Y1648052D02*
X2045322D01*
X1998153Y1647602D02*
X2045322D01*
X1998291Y1647152D02*
X2045322D01*
X1998297Y1646702D02*
X2045322D01*
X1998175Y1646252D02*
X2045322D01*
X1997884Y1645802D02*
X2045322D01*
X1997197Y1645352D02*
X2045322D01*
X1996298Y1644902D02*
X2045322D01*
X1995848Y1644452D02*
X2045322D01*
X1995398Y1644002D02*
X2045322D01*
X1994948Y1643552D02*
X2045322D01*
X1994498Y1643102D02*
X2045322D01*
X1994048Y1642652D02*
X2045322D01*
X2021090Y1642202D02*
X2045322D01*
X2021564Y1641752D02*
X2045322D01*
X2021785Y1641302D02*
X2045322D01*
X2021859Y1640852D02*
X2045322D01*
X2023165Y1640402D02*
X2045322D01*
X2023598Y1639952D02*
X2045322D01*
X2023800Y1639502D02*
X2045322D01*
X2023860Y1639052D02*
X2045322D01*
X2023794Y1638602D02*
X2045322D01*
X2023583Y1638152D02*
X2045322D01*
X2023132Y1637702D02*
X2045322D01*
X2014648Y1637252D02*
X2045322D01*
X1997822Y1652102D02*
X2045065D01*
X1997822Y1652552D02*
X2044615D01*
X1997822Y1653002D02*
X2044165D01*
X2014322Y1636802D02*
X2043821D01*
X1997822Y1653452D02*
X2043715D01*
X2014322Y1634102D02*
X2043522D01*
X2014322Y1633652D02*
X2043522D01*
X2040204Y1633202D02*
X2043522D01*
X2040887Y1632752D02*
X2043522D01*
X2041176Y1632302D02*
X2043522D01*
X2041298Y1631852D02*
X2043522D01*
X2041290Y1631402D02*
X2043522D01*
X2041152Y1630952D02*
X2043522D01*
X2040843Y1630502D02*
X2043522D01*
X2040822Y1630052D02*
X2043522D01*
X2040822Y1629602D02*
X2043522D01*
X2040822Y1629152D02*
X2043522D01*
X2040822Y1628702D02*
X2043522D01*
X2040822Y1628252D02*
X2043522D01*
X2040822Y1627802D02*
X2043522D01*
X2040822Y1627352D02*
X2043522D01*
X2040822Y1626902D02*
X2043522D01*
X2040822Y1626452D02*
X2043522D01*
X2040822Y1626002D02*
X2043522D01*
X2040846Y1625552D02*
X2043445D01*
X2014322Y1636352D02*
X2043338D01*
X2014322Y1634552D02*
X2043274D01*
X1997822Y1653902D02*
X2043265D01*
X2014322Y1635902D02*
X2043113D01*
X2014322Y1635002D02*
X2043085D01*
X2014322Y1635452D02*
X2043036D01*
X2042538Y1625102D02*
X2042995D01*
X1997822Y1654352D02*
X2042815D01*
X1997822Y1654802D02*
X2042330D01*
X1997822Y1657952D02*
X2042141D01*
X2014322Y1619252D02*
X2041958D01*
X1997822Y1655252D02*
X2041508D01*
X2014322Y1619702D02*
X2041497D01*
X1997822Y1657502D02*
X2041458D01*
X1997822Y1655702D02*
X2041193D01*
X1997822Y1657052D02*
X2041169D01*
X1997822Y1656152D02*
X2041054D01*
X2014322Y1620152D02*
X2041047D01*
X1997822Y1656602D02*
X2041047D01*
X2014322Y1620602D02*
X2040597D01*
X2014322Y1621052D02*
X2040147D01*
X2014322Y1621502D02*
X2039697D01*
X2034483Y1592252D02*
X2039256D01*
X2014322Y1621952D02*
X2039247D01*
X2035204Y1633202D02*
X2039141D01*
X2011950Y1586402D02*
X2038995D01*
X2014322Y1622402D02*
X2038802D01*
X2014322Y1622852D02*
X2038563D01*
X2012394Y1577852D02*
X2038551D01*
X2035015Y1630052D02*
X2038522D01*
X2014322Y1629602D02*
X2038522D01*
X2014322Y1629152D02*
X2038522D01*
X2014322Y1628702D02*
X2038522D01*
X2014322Y1628252D02*
X2038522D01*
X2014322Y1627802D02*
X2038522D01*
X2014322Y1627352D02*
X2038522D01*
X2014322Y1626902D02*
X2038522D01*
X2014322Y1626452D02*
X2038522D01*
X2014322Y1626002D02*
X2038522D01*
X2014322Y1625552D02*
X2038522D01*
X2014322Y1625102D02*
X2038522D01*
X2014322Y1624652D02*
X2038522D01*
X2014322Y1624202D02*
X2038522D01*
X2014322Y1623752D02*
X2038522D01*
X2014322Y1623302D02*
X2038522D01*
X2033092Y1600802D02*
X2038452D01*
X2035880Y1630502D02*
X2038392D01*
X2012949Y1592702D02*
X2037996D01*
X2013007Y1585952D02*
X2037938D01*
X2013176Y1578302D02*
X2037769D01*
X2033096Y1600352D02*
X2037721D01*
X2013476Y1593152D02*
X2037469D01*
X2013512Y1585502D02*
X2037433D01*
X2013618Y1578752D02*
X2037327D01*
X2032970Y1599902D02*
X2037297D01*
X2013813Y1593602D02*
X2037132D01*
X2013836Y1585052D02*
X2037109D01*
X2013905Y1579202D02*
X2037039D01*
X2032675Y1599452D02*
X2037020D01*
X2014031Y1594052D02*
X2036913D01*
X2014046Y1584602D02*
X2036899D01*
X2014089Y1579652D02*
X2036856D01*
X2031966Y1599002D02*
X2036844D01*
X2014161Y1594502D02*
X2036784D01*
X2014169Y1584152D02*
X2036776D01*
X2014190Y1580102D02*
X2036755D01*
X2031086Y1598552D02*
X2036750D01*
X2014214Y1594952D02*
X2036731D01*
X2014215Y1583702D02*
X2036729D01*
X2014216Y1598102D02*
X2036729D01*
X2014216Y1597652D02*
X2036729D01*
X2014216Y1597202D02*
X2036729D01*
X2014216Y1596752D02*
X2036729D01*
X2014216Y1596302D02*
X2036729D01*
X2014216Y1595852D02*
X2036729D01*
X2014216Y1595402D02*
X2036729D01*
X2014216Y1583252D02*
X2036729D01*
X2014216Y1582802D02*
X2036729D01*
X2014216Y1582352D02*
X2036729D01*
X2014216Y1581902D02*
X2036729D01*
X2014216Y1581452D02*
X2036729D01*
X2014216Y1581002D02*
X2036729D01*
X2014216Y1580552D02*
X2036729D01*
X2014322Y1630052D02*
X2034330D01*
X2014322Y1633202D02*
X2034141D01*
X2014322Y1630502D02*
X2033508D01*
X2014322Y1632752D02*
X2033458D01*
X2014322Y1630952D02*
X2033193D01*
X2014322Y1632302D02*
X2033169D01*
X2014322Y1631402D02*
X2033054D01*
X2014322Y1631852D02*
X2033047D01*
X2018271Y1588652D02*
X2032674D01*
X2018735Y1592252D02*
X2032210D01*
X2019004Y1589102D02*
X2031941D01*
X2019212Y1591802D02*
X2031733D01*
X2019357Y1589552D02*
X2031588D01*
X2019472Y1591352D02*
X2031473D01*
X2019549Y1590002D02*
X2031396D01*
X2019602Y1590902D02*
X2031343D01*
X2019626Y1590452D02*
X2031319D01*
X2016210Y1604402D02*
X2030763D01*
X2029670Y1603952D02*
X2030165D01*
X2016660D02*
X2027675D01*
X1997822Y1711052D02*
X2024212D01*
X1997822Y1711502D02*
X2021393D01*
X2015098Y1637702D02*
X2021312D01*
X1997783Y1711952D02*
X2019879D01*
X1993598Y1642202D02*
X2019355D01*
X1997545Y1712402D02*
X2018725D01*
X2016550Y1611152D02*
X2018263D01*
X2014860Y1605752D02*
X2018075D01*
X1997100Y1712852D02*
X2017767D01*
X1996650Y1713302D02*
X2016940D01*
X1969754Y1588652D02*
X2016926D01*
X2011689Y1592252D02*
X2016462D01*
X1996200Y1713752D02*
X2016208D01*
X1969754Y1589102D02*
X2016193D01*
X1969754Y1591802D02*
X2015985D01*
X1969754Y1589552D02*
X2015840D01*
X1969754Y1591352D02*
X2015724D01*
X1969754Y1590002D02*
X2015648D01*
X1969754Y1590902D02*
X2015595D01*
X1969754Y1590452D02*
X2015571D01*
X1995750Y1714202D02*
X2015550D01*
X2014410Y1606202D02*
X2015526D01*
X2013960Y1606652D02*
X2015047D01*
X1995300Y1714652D02*
X2014952D01*
X2014195Y1598552D02*
X2014649D01*
X2013510Y1607102D02*
X2014597D01*
X1994850Y1715102D02*
X2014405D01*
X2013060Y1607552D02*
X2014147D01*
X1994400Y1715552D02*
X2013901D01*
X2012610Y1608002D02*
X2013697D01*
X1993148Y1641752D02*
X2013668D01*
X1993762Y1716002D02*
X2013435D01*
X2012160Y1608452D02*
X2013247D01*
X1992698Y1641302D02*
X2013195D01*
X1993080Y1716452D02*
X2013002D01*
X2011710Y1608902D02*
X2012797D01*
X1992248Y1640852D02*
X2012745D01*
X1993835Y1716902D02*
X2012600D01*
X2011260Y1609352D02*
X2012347D01*
X1991798Y1640402D02*
X2012295D01*
X1994155Y1717352D02*
X2012225D01*
X1979020Y1601252D02*
X2011947D01*
X2010387Y1609802D02*
X2011897D01*
X1994305Y1717802D02*
X2011876D01*
X1991348Y1639952D02*
X2011845D01*
X1994329Y1718252D02*
X2011550D01*
X1978812Y1601702D02*
X2011497D01*
X1994450Y1610252D02*
X2011447D01*
X2006349Y1639502D02*
X2011395D01*
X1994234Y1718702D02*
X2011245D01*
X1969754Y1592252D02*
X2011106D01*
X1978524Y1602152D02*
X2011047D01*
X1994000Y1610702D02*
X2010997D01*
X1993994Y1719152D02*
X2010961D01*
X2006684Y1639052D02*
X2010945D01*
X1969754Y1586402D02*
X2010845D01*
X1993502Y1719602D02*
X2010696D01*
X1993578Y1611152D02*
X2010637D01*
X2006834Y1638602D02*
X2010614D01*
X1978131Y1602602D02*
X2010597D01*
X1993572Y1611602D02*
X2010524D01*
X2006852Y1638152D02*
X2010522D01*
X2006741Y1637702D02*
X2010522D01*
X2006469Y1637252D02*
X2010522D01*
X2005853Y1636802D02*
X2010522D01*
X1991790Y1636352D02*
X2010522D01*
X1991772Y1635902D02*
X2010522D01*
X1991965Y1635452D02*
X2010522D01*
X1992057Y1635002D02*
X2010522D01*
X1992022Y1634552D02*
X2010522D01*
X1991850Y1634102D02*
X2010522D01*
X1991479Y1633652D02*
X2010522D01*
X1993981Y1617902D02*
X2010522D01*
X1993755Y1617452D02*
X2010522D01*
X1993572Y1617002D02*
X2010522D01*
X1993572Y1616552D02*
X2010522D01*
X1993572Y1616102D02*
X2010522D01*
X1993572Y1615652D02*
X2010522D01*
X1993572Y1615202D02*
X2010522D01*
X1993572Y1614752D02*
X2010522D01*
X1993572Y1614302D02*
X2010522D01*
X1993572Y1613852D02*
X2010522D01*
X1993572Y1613402D02*
X2010522D01*
X1993572Y1612952D02*
X2010522D01*
X1993572Y1612502D02*
X2010522D01*
X1993572Y1612052D02*
X2010522D01*
X2010197Y1618352D02*
X2010490D01*
X2010204Y1633202D02*
X2010488D01*
X1987174Y1720052D02*
X2010449D01*
X1969905Y1577852D02*
X2010401D01*
X1979163Y1600802D02*
X2010302D01*
X1986161Y1720502D02*
X2010219D01*
X1977575Y1603052D02*
X2010147D01*
X1969754Y1720952D02*
X2010006D01*
X1969754Y1592702D02*
X2009847D01*
X1969754Y1721402D02*
X2009809D01*
X1969754Y1585952D02*
X2009788D01*
X1976641Y1603502D02*
X2009697D01*
X1986784Y1721852D02*
X2009626D01*
X1969790Y1578302D02*
X2009619D01*
X1979246Y1600352D02*
X2009572D01*
X1992806Y1722302D02*
X2009459D01*
X1969754Y1593152D02*
X2009319D01*
X1993778Y1722752D02*
X2009306D01*
X1969754Y1585502D02*
X2009283D01*
X1969754Y1578752D02*
X2009178D01*
X1994127Y1723202D02*
X2009167D01*
X1994059Y1618352D02*
X2009148D01*
X1979275Y1599902D02*
X2009147D01*
X1989825Y1633202D02*
X2009141D01*
X1994294Y1723652D02*
X2009041D01*
X1969754Y1593602D02*
X2008983D01*
X1969754Y1585052D02*
X2008959D01*
X1994333Y1724102D02*
X2008928D01*
X1969754Y1579202D02*
X2008890D01*
X1979251Y1599452D02*
X2008870D01*
X1994252Y1724552D02*
X2008828D01*
X1969754Y1594052D02*
X2008764D01*
X1969754Y1584602D02*
X2008749D01*
X1994033Y1725002D02*
X2008741D01*
X1969754Y1579652D02*
X2008706D01*
X1979172Y1599002D02*
X2008694D01*
X1993587Y1725452D02*
X2008667D01*
X1969754Y1594502D02*
X2008634D01*
X1969754Y1584152D02*
X2008626D01*
X1969754Y1580102D02*
X2008606D01*
X1987244Y1725902D02*
X2008605D01*
X1979035Y1598552D02*
X2008601D01*
X1969754Y1594952D02*
X2008581D01*
X1969754Y1583702D02*
X2008580D01*
X1978832Y1598102D02*
X2008579D01*
X1978552Y1597652D02*
X2008579D01*
X1978169Y1597202D02*
X2008579D01*
X1977630Y1596752D02*
X2008579D01*
X1976751Y1596302D02*
X2008579D01*
X1969754Y1595852D02*
X2008579D01*
X1969754Y1595402D02*
X2008579D01*
X1969754Y1583252D02*
X2008579D01*
X1969754Y1582802D02*
X2008579D01*
X1969754Y1582352D02*
X2008579D01*
X1969754Y1581902D02*
X2008579D01*
X1969754Y1581452D02*
X2008579D01*
X1969754Y1581002D02*
X2008579D01*
X1969754Y1580552D02*
X2008579D01*
X1986392Y1726352D02*
X2008555D01*
X1989822Y1630052D02*
X2008522D01*
X1989822Y1629602D02*
X2008522D01*
X1989822Y1629152D02*
X2008522D01*
X1989822Y1628702D02*
X2008522D01*
X1989822Y1628252D02*
X2008522D01*
X1989822Y1627802D02*
X2008522D01*
X1989822Y1627352D02*
X2008522D01*
X1989822Y1626902D02*
X2008522D01*
X1989822Y1626452D02*
X2008522D01*
X1989822Y1626002D02*
X2008522D01*
X1989822Y1625552D02*
X2008522D01*
X1989822Y1625102D02*
X2008522D01*
X1989822Y1624652D02*
X2008522D01*
X1989822Y1624202D02*
X2008522D01*
X1989822Y1623752D02*
X2008522D01*
X1989822Y1623302D02*
X2008522D01*
X1989822Y1622852D02*
X2008522D01*
X1989822Y1622402D02*
X2008522D01*
X1989822Y1621952D02*
X2008522D01*
X1989822Y1621502D02*
X2008522D01*
X1989822Y1630502D02*
X2008502D01*
X1989822Y1621052D02*
X2008501D01*
X1994011Y1618802D02*
X2008461D01*
X1989822Y1632752D02*
X2008458D01*
X1989822Y1630952D02*
X2008193D01*
X1989822Y1620602D02*
X2008192D01*
X1993823Y1619252D02*
X2008170D01*
X1989822Y1632302D02*
X2008169D01*
X1989822Y1631402D02*
X2008054D01*
X1989822Y1620152D02*
X2008054D01*
X1993420Y1619702D02*
X2008047D01*
X1989822Y1631852D02*
X2008047D01*
X1992230Y1636802D02*
X2004592D01*
X1997822Y1670102D02*
X2002206D01*
X1997822Y1670552D02*
X2001647D01*
X1997822Y1671002D02*
X2001197D01*
X1997822Y1671452D02*
X2000747D01*
X1997822Y1671902D02*
X2000297D01*
X1997822Y1672352D02*
X1999847D01*
X1997822Y1672802D02*
X1999397D01*
X1997822Y1673252D02*
X1998947D01*
X1997822Y1673702D02*
X1998497D01*
X1997912Y1674152D02*
X1998033D01*
X1993888Y1711052D02*
X1995522D01*
X1993242Y1710602D02*
X1995522D01*
X1986984Y1710152D02*
X1995522D01*
X1979271Y1709702D02*
X1995522D01*
X1979222Y1709252D02*
X1995522D01*
X1979118Y1708802D02*
X1995522D01*
X1987014Y1708352D02*
X1995522D01*
X1993288Y1707902D02*
X1995522D01*
X1993905Y1707452D02*
X1995522D01*
X1994190Y1707002D02*
X1995522D01*
X1994317Y1706552D02*
X1995522D01*
X1994322Y1706102D02*
X1995522D01*
X1994205Y1705652D02*
X1995522D01*
X1993936Y1705202D02*
X1995522D01*
X1993366Y1704752D02*
X1995522D01*
X1987070Y1704302D02*
X1995522D01*
X1969754Y1703852D02*
X1995522D01*
X1976915Y1703402D02*
X1995522D01*
X1977718Y1702952D02*
X1995522D01*
X1986923Y1702502D02*
X1995522D01*
X1993141Y1702052D02*
X1995522D01*
X1993854Y1701602D02*
X1995522D01*
X1994165Y1701152D02*
X1995522D01*
X1994308Y1700702D02*
X1995522D01*
X1994328Y1700252D02*
X1995522D01*
X1994227Y1699802D02*
X1995522D01*
X1993980Y1699352D02*
X1995522D01*
X1993470Y1698902D02*
X1995522D01*
X1987148Y1698452D02*
X1995522D01*
X1986046Y1698002D02*
X1995522D01*
X1984090Y1697552D02*
X1995522D01*
X1983640Y1697102D02*
X1995522D01*
X1986822Y1696652D02*
X1995522D01*
X1992928Y1696202D02*
X1995522D01*
X1993798Y1695752D02*
X1995522D01*
X1994137Y1695302D02*
X1995522D01*
X1994298Y1694852D02*
X1995522D01*
X1994332Y1694402D02*
X1995522D01*
X1994246Y1693952D02*
X1995522D01*
X1994020Y1693502D02*
X1995522D01*
X1993559Y1693052D02*
X1995522D01*
X1987221Y1692602D02*
X1995522D01*
X1986323Y1692152D02*
X1995522D01*
X1984146Y1691702D02*
X1995522D01*
X1983696Y1691252D02*
X1995522D01*
X1986707Y1690802D02*
X1995522D01*
X1987377Y1690352D02*
X1995522D01*
X1993738Y1689902D02*
X1995522D01*
X1994106Y1689452D02*
X1995522D01*
X1994285Y1689002D02*
X1995522D01*
X1994334Y1688552D02*
X1995522D01*
X1994264Y1688102D02*
X1995522D01*
X1994058Y1687652D02*
X1995522D01*
X1993638Y1687202D02*
X1995522D01*
X1987288Y1686752D02*
X1995522D01*
X1986505Y1686302D02*
X1995522D01*
X1984201Y1685852D02*
X1995522D01*
X1983751Y1685402D02*
X1995522D01*
X1986574Y1684952D02*
X1995522D01*
X1987316Y1684502D02*
X1995522D01*
X1993670Y1684052D02*
X1995522D01*
X1994073Y1683602D02*
X1995522D01*
X1994271Y1683152D02*
X1995522D01*
X1994334Y1682702D02*
X1995522D01*
X1994279Y1682252D02*
X1995522D01*
X1994092Y1681802D02*
X1995522D01*
X1993708Y1681352D02*
X1995522D01*
X1993177Y1680902D02*
X1995522D01*
X1994000Y1680452D02*
X1995522D01*
X1994450Y1680002D02*
X1995522D01*
X1994900Y1679552D02*
X1995522D01*
X1994181Y1711502D02*
X1995197D01*
X1994314Y1711952D02*
X1994747D01*
X1993772Y1675502D02*
X1994272D01*
X1992750Y1675052D02*
X1994272D01*
X1986772Y1674602D02*
X1994272D01*
X1983322Y1674152D02*
X1994272D01*
X1983322Y1673702D02*
X1994272D01*
X1983322Y1673252D02*
X1994272D01*
X1983322Y1672802D02*
X1994272D01*
X1983322Y1672352D02*
X1994272D01*
X1983322Y1671902D02*
X1994272D01*
X1983322Y1671452D02*
X1994272D01*
X1983322Y1671002D02*
X1994272D01*
X1983322Y1670552D02*
X1994272D01*
X1983322Y1670102D02*
X1994272D01*
X1983322Y1669652D02*
X1994272D01*
X1983322Y1669202D02*
X1994272D01*
X1983322Y1668752D02*
X1994272D01*
X1983322Y1668302D02*
X1994272D01*
X1983322Y1667852D02*
X1994272D01*
X1983322Y1667402D02*
X1994272D01*
X1983322Y1666952D02*
X1994272D01*
X1983322Y1666502D02*
X1994272D01*
X1983322Y1666052D02*
X1994272D01*
X1983322Y1665602D02*
X1994272D01*
X1983322Y1665152D02*
X1994272D01*
X1983322Y1664702D02*
X1994272D01*
X1983322Y1664252D02*
X1994272D01*
X1983322Y1663802D02*
X1994272D01*
X1983322Y1663352D02*
X1994272D01*
X1983322Y1662902D02*
X1994272D01*
X1983322Y1662452D02*
X1994272D01*
X1983322Y1662002D02*
X1994272D01*
X1983322Y1661552D02*
X1994272D01*
X1983322Y1661102D02*
X1994272D01*
X1983322Y1660652D02*
X1994272D01*
X1983322Y1660202D02*
X1994272D01*
X1983322Y1659752D02*
X1994272D01*
X1983322Y1659302D02*
X1994272D01*
X1983322Y1658852D02*
X1994272D01*
X1983322Y1658402D02*
X1994272D01*
X1983322Y1657952D02*
X1994272D01*
X1983322Y1657502D02*
X1994272D01*
X1983322Y1657052D02*
X1994272D01*
X1983322Y1656602D02*
X1994272D01*
X1983322Y1656152D02*
X1994272D01*
X1983322Y1655702D02*
X1994272D01*
X1983322Y1655252D02*
X1994272D01*
X1983322Y1654802D02*
X1994272D01*
X1983322Y1654352D02*
X1994272D01*
X1983322Y1653902D02*
X1994272D01*
X1983322Y1653452D02*
X1994272D01*
X1983322Y1653002D02*
X1994272D01*
X1983322Y1652552D02*
X1994272D01*
X1983322Y1652102D02*
X1994272D01*
X1983322Y1651652D02*
X1994272D01*
X1983322Y1651202D02*
X1994272D01*
X1983322Y1650752D02*
X1994272D01*
X1983322Y1650302D02*
X1994272D01*
X1983322Y1649852D02*
X1994272D01*
X1983322Y1649402D02*
X1994272D01*
X1983322Y1648952D02*
X1994272D01*
X1983322Y1648502D02*
X1994145D01*
X1983322Y1648052D02*
X1993695D01*
X1983322Y1647602D02*
X1993245D01*
X1983322Y1647152D02*
X1992795D01*
X1983322Y1646702D02*
X1992345D01*
X1969754Y1603952D02*
X1992276D01*
X1983322Y1646252D02*
X1991895D01*
X1969754Y1604402D02*
X1991797D01*
X1983322Y1645802D02*
X1991445D01*
X1989822Y1619702D02*
X1991425D01*
X1969754Y1604852D02*
X1991347D01*
X1989822Y1617002D02*
X1991272D01*
X1989822Y1616552D02*
X1991272D01*
X1989822Y1616102D02*
X1991272D01*
X1989822Y1615652D02*
X1991272D01*
X1989822Y1615202D02*
X1991272D01*
X1989822Y1614752D02*
X1991272D01*
X1989822Y1614302D02*
X1991272D01*
X1989822Y1613852D02*
X1991272D01*
X1989822Y1613402D02*
X1991272D01*
X1989822Y1612952D02*
X1991272D01*
X1989822Y1612502D02*
X1991272D01*
X1990150Y1612052D02*
X1991272D01*
X1990600Y1611602D02*
X1991272D01*
X1991068Y1611152D02*
X1991177D01*
X1989822Y1617452D02*
X1991090D01*
X1989822Y1619252D02*
X1991022D01*
X1983322Y1645352D02*
X1990995D01*
X1969754Y1605302D02*
X1990897D01*
X1989822Y1617902D02*
X1990864D01*
X1989822Y1618802D02*
X1990834D01*
X1989822Y1618352D02*
X1990786D01*
X1983322Y1644902D02*
X1990545D01*
X1969754Y1605752D02*
X1990447D01*
X1983322Y1644452D02*
X1990095D01*
X1969754Y1606202D02*
X1989997D01*
X1983322Y1644002D02*
X1989645D01*
X1969754Y1606652D02*
X1989547D01*
X1987409Y1675052D02*
X1989298D01*
X1987414Y1722302D02*
X1989241D01*
X1983322Y1643552D02*
X1989195D01*
X1987434Y1696202D02*
X1989119D01*
X1969754Y1607102D02*
X1989097D01*
X1987487Y1702052D02*
X1988906D01*
X1987520Y1710602D02*
X1988806D01*
X1987537Y1707902D02*
X1988760D01*
X1983322Y1643102D02*
X1988745D01*
X1987568Y1704752D02*
X1988681D01*
X1969754Y1607552D02*
X1988647D01*
X1987613Y1698902D02*
X1988577D01*
X1987628Y1719602D02*
X1988545D01*
X1987655Y1693052D02*
X1988488D01*
X1987669Y1725452D02*
X1988460D01*
X1987695Y1687202D02*
X1988409D01*
X1987713Y1684052D02*
X1988377D01*
X1987584Y1713752D02*
X1988319D01*
X1987749Y1689902D02*
X1988310D01*
X1983322Y1642652D02*
X1988295D01*
X1987769Y1675502D02*
X1988275D01*
X1987772Y1722752D02*
X1988269D01*
X1987784Y1695752D02*
X1988249D01*
X1969754Y1608002D02*
X1988197D01*
X1987816Y1701602D02*
X1988193D01*
X1987837Y1711052D02*
X1988160D01*
X1987847Y1707452D02*
X1988143D01*
X1987868Y1705202D02*
X1988112D01*
X1987884Y1713302D02*
X1988095D01*
X1987945Y1699352D02*
X1988034D01*
X1983322Y1642202D02*
X1987845D01*
X1969754Y1608452D02*
X1987747D01*
X1987098Y1714202D02*
X1987606D01*
X1983322Y1641752D02*
X1987395D01*
X1969754Y1608902D02*
X1987297D01*
X1969754Y1714652D02*
X1987156D01*
X1983322Y1641302D02*
X1986945D01*
X1969754Y1609352D02*
X1986847D01*
X1969754Y1715102D02*
X1986706D01*
X1983322Y1640852D02*
X1986495D01*
X1969754Y1609802D02*
X1986397D01*
X1969754Y1715552D02*
X1986256D01*
X1983322Y1640402D02*
X1986136D01*
X1969754Y1610252D02*
X1986095D01*
X1983322Y1639952D02*
X1986023D01*
X1983322Y1639502D02*
X1986022D01*
X1983322Y1639052D02*
X1986022D01*
X1983322Y1638602D02*
X1986022D01*
X1983322Y1638152D02*
X1986022D01*
X1983322Y1637702D02*
X1986022D01*
X1983322Y1637252D02*
X1986022D01*
X1983322Y1636802D02*
X1986022D01*
X1983299Y1636352D02*
X1986022D01*
X1983099Y1635902D02*
X1986022D01*
X1982668Y1635452D02*
X1986022D01*
X1982218Y1635002D02*
X1986022D01*
X1981768Y1634552D02*
X1986022D01*
X1981318Y1634102D02*
X1986022D01*
X1980868Y1633652D02*
X1986022D01*
X1980418Y1633202D02*
X1986022D01*
X1979968Y1632752D02*
X1986022D01*
X1979518Y1632302D02*
X1986022D01*
X1979068Y1631852D02*
X1986022D01*
X1978959Y1631402D02*
X1986022D01*
X1979122Y1630952D02*
X1986022D01*
X1979225Y1630502D02*
X1986022D01*
X1979271Y1630052D02*
X1986022D01*
X1979265Y1629602D02*
X1986022D01*
X1979204Y1629152D02*
X1986022D01*
X1979087Y1628702D02*
X1986022D01*
X1978908Y1628252D02*
X1986022D01*
X1978655Y1627802D02*
X1986022D01*
X1978310Y1627352D02*
X1986022D01*
X1977833Y1626902D02*
X1986022D01*
X1977112Y1626452D02*
X1986022D01*
X1969754Y1626002D02*
X1986022D01*
X1969754Y1625552D02*
X1986022D01*
X1969754Y1625102D02*
X1986022D01*
X1969754Y1624652D02*
X1986022D01*
X1969754Y1624202D02*
X1986022D01*
X1969754Y1623752D02*
X1986022D01*
X1977138Y1623302D02*
X1986022D01*
X1977849Y1622852D02*
X1986022D01*
X1978322Y1622402D02*
X1986022D01*
X1978663Y1621952D02*
X1986022D01*
X1978914Y1621502D02*
X1986022D01*
X1978953Y1618352D02*
X1986022D01*
X1978718Y1617902D02*
X1986022D01*
X1978396Y1617452D02*
X1986022D01*
X1977954Y1617002D02*
X1986022D01*
X1977306Y1616552D02*
X1986022D01*
X1975876Y1616102D02*
X1986022D01*
X1969754Y1615652D02*
X1986022D01*
X1969754Y1615202D02*
X1986022D01*
X1969754Y1614752D02*
X1986022D01*
X1969754Y1614302D02*
X1986022D01*
X1969754Y1613852D02*
X1986022D01*
X1969754Y1613402D02*
X1986022D01*
X1969754Y1612952D02*
X1986022D01*
X1969754Y1612502D02*
X1986022D01*
X1969754Y1612052D02*
X1986022D01*
X1969754Y1611602D02*
X1986022D01*
X1969754Y1611152D02*
X1986022D01*
X1969754Y1610702D02*
X1986022D01*
X1969754Y1720502D02*
X1984468D01*
X1971028Y1726352D02*
X1984238D01*
X1983328Y1684952D02*
X1984056D01*
X1983246Y1690802D02*
X1983923D01*
X1983322Y1674602D02*
X1983858D01*
X1969754Y1721852D02*
X1983846D01*
X1983190Y1696652D02*
X1983808D01*
X1969754Y1716002D02*
X1983740D01*
X1978230Y1702502D02*
X1983707D01*
X1979266Y1710152D02*
X1983646D01*
X1978953Y1708352D02*
X1983615D01*
X1969754Y1704302D02*
X1983560D01*
X1969754Y1714202D02*
X1983532D01*
X1969754Y1720052D02*
X1983456D01*
X1970479Y1725902D02*
X1983386D01*
X1982796Y1690352D02*
X1983253D01*
X1969754Y1722302D02*
X1983215D01*
X1982740Y1696202D02*
X1983196D01*
X1969754Y1716452D02*
X1983161D01*
X1978596Y1702052D02*
X1983143D01*
X1979207Y1710602D02*
X1983110D01*
X1978718Y1707902D02*
X1983093D01*
X1969754Y1704752D02*
X1983062D01*
X1969754Y1713752D02*
X1983046D01*
X1969754Y1719602D02*
X1983002D01*
X1970139Y1725452D02*
X1982961D01*
X1982346Y1689902D02*
X1982881D01*
X1969754Y1722752D02*
X1982858D01*
X1982290Y1695752D02*
X1982846D01*
X1969754Y1716902D02*
X1982824D01*
X1978865Y1701602D02*
X1982813D01*
X1979091Y1711052D02*
X1982793D01*
X1978396Y1707452D02*
X1982783D01*
X1969754Y1705202D02*
X1982764D01*
X1977138Y1713302D02*
X1982754D01*
X1969754Y1719152D02*
X1982727D01*
X1969922Y1725002D02*
X1982702D01*
X1981822Y1687652D02*
X1982677D01*
X1980572Y1693502D02*
X1982670D01*
X1981896Y1689452D02*
X1982654D01*
X1969754Y1723202D02*
X1982640D01*
X1979238Y1699352D02*
X1982637D01*
X1981840Y1695302D02*
X1982634D01*
X1969754Y1717352D02*
X1982621D01*
X1979057Y1701152D02*
X1982615D01*
X1978914Y1711502D02*
X1982603D01*
X1977954Y1707002D02*
X1982598D01*
X1969754Y1705652D02*
X1982587D01*
X1977849Y1712852D02*
X1982582D01*
X1979274Y1699802D02*
X1982572D01*
X1969754Y1718702D02*
X1982567D01*
X1980572Y1693952D02*
X1982559D01*
X1969798Y1724552D02*
X1982554D01*
X1981822Y1688102D02*
X1982547D01*
X1981822Y1689002D02*
X1982531D01*
X1969754Y1723652D02*
X1982525D01*
X1981390Y1694852D02*
X1982522D01*
X1969754Y1717802D02*
X1982517D01*
X1979186Y1700702D02*
X1982515D01*
X1978663Y1711952D02*
X1982511D01*
X1977306Y1706552D02*
X1982509D01*
X1975876Y1706102D02*
X1982505D01*
X1978322Y1712402D02*
X1982504D01*
X1979257Y1700252D02*
X1982501D01*
X1969754Y1718252D02*
X1982500D01*
X1980940Y1694402D02*
X1982498D01*
X1969754Y1724102D02*
X1982498D01*
X1981822Y1688552D02*
X1982497D01*
X1981822Y1687202D02*
X1982298D01*
X1980572Y1693052D02*
X1982243D01*
X1979146Y1698902D02*
X1982187D01*
X1980572Y1692602D02*
X1981793D01*
X1978996Y1698452D02*
X1981737D01*
X1980572Y1692152D02*
X1981343D01*
X1978777Y1698002D02*
X1981287D01*
X1980318Y1643102D02*
X1981022D01*
X1979868Y1642652D02*
X1981022D01*
X1979418Y1642202D02*
X1981022D01*
X1978968Y1641752D02*
X1981022D01*
X1979001Y1641302D02*
X1981022D01*
X1979150Y1640852D02*
X1981022D01*
X1979240Y1640402D02*
X1981022D01*
X1979275Y1639952D02*
X1981022D01*
X1979256Y1639502D02*
X1981022D01*
X1979183Y1639052D02*
X1981022D01*
X1979053Y1638602D02*
X1981022D01*
X1978858Y1638152D02*
X1981022D01*
X1978587Y1637702D02*
X1981022D01*
X1978218Y1637252D02*
X1981022D01*
X1980768Y1643552D02*
X1980977D01*
X1980578Y1691702D02*
X1980893D01*
X1978477Y1697552D02*
X1980837D01*
X1977701Y1636802D02*
X1980765D01*
X1978066Y1697102D02*
X1980387D01*
X1976884Y1636352D02*
X1980315D01*
X1977477Y1696652D02*
X1979937D01*
X1969754Y1635902D02*
X1979865D01*
X1979159Y1648952D02*
X1979522D01*
X1979015Y1648502D02*
X1979522D01*
X1978805Y1648052D02*
X1979522D01*
X1978515Y1647602D02*
X1979522D01*
X1978118Y1647152D02*
X1979522D01*
X1977556Y1646702D02*
X1979522D01*
X1976602Y1646252D02*
X1979522D01*
X1969754Y1645802D02*
X1979522D01*
X1976426Y1696202D02*
X1979487D01*
X1969754Y1635452D02*
X1979415D01*
X1969754Y1645352D02*
X1979315D01*
X1969754Y1695752D02*
X1979037D01*
X1969754Y1635002D02*
X1978965D01*
X1969754Y1644902D02*
X1978865D01*
X1969754Y1695302D02*
X1978588D01*
X1969754Y1634552D02*
X1978515D01*
X1969754Y1644452D02*
X1978415D01*
X1969754Y1694852D02*
X1978324D01*
X1969754Y1694402D02*
X1978272D01*
X1969754Y1693952D02*
X1978272D01*
X1976641Y1693502D02*
X1978272D01*
X1977575Y1693052D02*
X1978272D01*
X1977630Y1686752D02*
X1978272D01*
X1976751Y1686302D02*
X1978272D01*
X1969754Y1685852D02*
X1978272D01*
X1969754Y1685402D02*
X1978272D01*
X1969754Y1684952D02*
X1978272D01*
X1969754Y1684502D02*
X1978272D01*
X1969754Y1684052D02*
X1978272D01*
X1969754Y1683602D02*
X1978272D01*
X1969754Y1683152D02*
X1978272D01*
X1969754Y1682702D02*
X1978272D01*
X1969754Y1682252D02*
X1978272D01*
X1969754Y1681802D02*
X1978272D01*
X1969754Y1681352D02*
X1978272D01*
X1969754Y1680902D02*
X1978272D01*
X1969754Y1680452D02*
X1978272D01*
X1969754Y1680002D02*
X1978272D01*
X1969754Y1679552D02*
X1978272D01*
X1969754Y1679102D02*
X1978272D01*
X1969754Y1678652D02*
X1978272D01*
X1969754Y1678202D02*
X1978272D01*
X1969754Y1677752D02*
X1978272D01*
X1969754Y1677302D02*
X1978272D01*
X1969754Y1676852D02*
X1978272D01*
X1969754Y1676402D02*
X1978272D01*
X1969754Y1675952D02*
X1978272D01*
X1969754Y1675502D02*
X1978272D01*
X1969754Y1675052D02*
X1978272D01*
X1969754Y1674602D02*
X1978272D01*
X1969754Y1674152D02*
X1978272D01*
X1969754Y1673702D02*
X1978272D01*
X1977237Y1673252D02*
X1978272D01*
X1977213Y1666502D02*
X1978272D01*
X1969754Y1666052D02*
X1978272D01*
X1969754Y1665602D02*
X1978272D01*
X1969754Y1665152D02*
X1978272D01*
X1969754Y1664702D02*
X1978272D01*
X1969754Y1664252D02*
X1978272D01*
X1969754Y1663802D02*
X1978272D01*
X1977031Y1663352D02*
X1978272D01*
X1977785Y1662902D02*
X1978272D01*
X1977394Y1656602D02*
X1978272D01*
X1976206Y1656152D02*
X1978272D01*
X1969754Y1655702D02*
X1978272D01*
X1969754Y1655252D02*
X1978272D01*
X1969754Y1654802D02*
X1978272D01*
X1977895Y1666952D02*
X1978272D01*
X1977910Y1672802D02*
X1978272D01*
X1969754Y1654352D02*
X1978271D01*
X1978011Y1657052D02*
X1978233D01*
X1969754Y1634102D02*
X1978065D01*
X1969754Y1644002D02*
X1977965D01*
X1969754Y1653902D02*
X1977865D01*
X1975980Y1633652D02*
X1977615D01*
X1976473Y1643552D02*
X1977515D01*
X1976786Y1653452D02*
X1977415D01*
X1969754Y1706102D02*
X1975069D01*
X1969754Y1616102D02*
X1975069D01*
X1969754Y1633652D02*
X1974965D01*
X1969754Y1656152D02*
X1974739D01*
X1969754Y1696202D02*
X1974519D01*
X1969754Y1643552D02*
X1974472D01*
X1969754Y1646252D02*
X1974343D01*
X1969754Y1693502D02*
X1974304D01*
X1969754Y1603502D02*
X1974304D01*
X1969754Y1686302D02*
X1974194D01*
X1969754Y1596302D02*
X1974194D01*
X1969754Y1653452D02*
X1974159D01*
X1969754Y1636352D02*
X1974061D01*
X1969754Y1703402D02*
X1974030D01*
X1969754Y1663352D02*
X1973914D01*
X1969754Y1626452D02*
X1973833D01*
X1969754Y1713302D02*
X1973807D01*
X1969754Y1623302D02*
X1973807D01*
X1969754Y1666502D02*
X1973732D01*
X1969754Y1673252D02*
X1973708D01*
X1969754Y1706552D02*
X1973638D01*
X1969754Y1616552D02*
X1973638D01*
X1969754Y1633202D02*
X1973616D01*
X1969754Y1656602D02*
X1973550D01*
X1969754Y1696652D02*
X1973467D01*
X1969754Y1643102D02*
X1973447D01*
X1969754Y1646702D02*
X1973389D01*
X1969754Y1693052D02*
X1973370D01*
X1969754Y1603052D02*
X1973370D01*
X1969754Y1686752D02*
X1973315D01*
X1969754Y1596752D02*
X1973315D01*
X1969754Y1653002D02*
X1973296D01*
X1969754Y1636802D02*
X1973244D01*
X1969754Y1702952D02*
X1973227D01*
X1969754Y1662902D02*
X1973160D01*
X1969754Y1626902D02*
X1973112D01*
X1969754Y1712852D02*
X1973096D01*
X1969754Y1622852D02*
X1973096D01*
X1969754Y1666952D02*
X1973050D01*
X1969754Y1672802D02*
X1973035D01*
X1969754Y1707002D02*
X1972991D01*
X1969754Y1617002D02*
X1972991D01*
X1969754Y1632752D02*
X1972976D01*
X1969754Y1657052D02*
X1972934D01*
X1969754Y1697102D02*
X1972879D01*
X1969754Y1642652D02*
X1972866D01*
X1969754Y1647152D02*
X1972826D01*
X1969754Y1692602D02*
X1972814D01*
X1969754Y1602602D02*
X1972814D01*
X1969754Y1687202D02*
X1972776D01*
X1969754Y1597202D02*
X1972776D01*
X1969754Y1652552D02*
X1972763D01*
X1969754Y1637252D02*
X1972727D01*
X1969754Y1702502D02*
X1972715D01*
X1969754Y1662452D02*
X1972668D01*
X1969754Y1627352D02*
X1972635D01*
X1969754Y1712402D02*
X1972623D01*
X1969754Y1622402D02*
X1972623D01*
X1969754Y1667402D02*
X1972591D01*
X1969754Y1672352D02*
X1972580D01*
X1969754Y1707452D02*
X1972548D01*
X1969754Y1617452D02*
X1972548D01*
X1969754Y1632302D02*
X1972538D01*
X1969754Y1657502D02*
X1972508D01*
X1969754Y1697552D02*
X1972468D01*
X1969754Y1642202D02*
X1972458D01*
X1969754Y1647602D02*
X1972430D01*
X1969754Y1692152D02*
X1972421D01*
X1969754Y1602152D02*
X1972421D01*
X1969754Y1687652D02*
X1972393D01*
X1969754Y1597652D02*
X1972393D01*
X1969754Y1652102D02*
X1972384D01*
X1969754Y1637702D02*
X1972357D01*
X1969754Y1702052D02*
X1972349D01*
X1969754Y1662002D02*
X1972315D01*
X1969754Y1627802D02*
X1972290D01*
X1969754Y1711952D02*
X1972282D01*
X1969754Y1621952D02*
X1972282D01*
X1969754Y1667852D02*
X1972258D01*
X1969754Y1671902D02*
X1972250D01*
X1969754Y1707902D02*
X1972227D01*
X1969754Y1617902D02*
X1972227D01*
X1969754Y1631852D02*
X1972219D01*
X1969754Y1657952D02*
X1972197D01*
X1969754Y1698002D02*
X1972168D01*
X1969754Y1641752D02*
X1972160D01*
X1969754Y1648052D02*
X1972140D01*
X1969754Y1691702D02*
X1972133D01*
X1969754Y1601702D02*
X1972133D01*
X1969754Y1688102D02*
X1972113D01*
X1969754Y1598102D02*
X1972113D01*
X1969754Y1651652D02*
X1972106D01*
X1969754Y1638152D02*
X1972087D01*
X1969754Y1701602D02*
X1972080D01*
X1969754Y1661552D02*
X1972055D01*
X1969754Y1628252D02*
X1972037D01*
X1969754Y1711502D02*
X1972031D01*
X1969754Y1621502D02*
X1972031D01*
X1969754Y1668302D02*
X1972014D01*
X1969754Y1671452D02*
X1972008D01*
X1969754Y1708352D02*
X1971992D01*
X1969754Y1618352D02*
X1971992D01*
X1969754Y1631402D02*
X1971986D01*
X1969754Y1658402D02*
X1971970D01*
X1969754Y1698452D02*
X1971949D01*
X1969754Y1641302D02*
X1971944D01*
X1969754Y1648502D02*
X1971929D01*
X1969754Y1691252D02*
X1971925D01*
X1969754Y1601252D02*
X1971925D01*
X1969754Y1688552D02*
X1971910D01*
X1969754Y1598552D02*
X1971910D01*
X1969754Y1651202D02*
X1971906D01*
X1969754Y1638602D02*
X1971892D01*
X1969754Y1701152D02*
X1971888D01*
X1969754Y1661102D02*
X1971870D01*
X1969754Y1628702D02*
X1971858D01*
X1969754Y1711052D02*
X1971854D01*
X1969754Y1621052D02*
X1971854D01*
X1969754Y1668752D02*
X1971842D01*
X1969754Y1671002D02*
X1971838D01*
X1969754Y1708802D02*
X1971827D01*
X1969754Y1618802D02*
X1971827D01*
X1969754Y1630952D02*
X1971823D01*
X1969754Y1658852D02*
X1971812D01*
X1969754Y1698902D02*
X1971798D01*
X1969754Y1640852D02*
X1971795D01*
X1969754Y1648952D02*
X1971785D01*
X1969754Y1690802D02*
X1971782D01*
X1969754Y1600802D02*
X1971782D01*
X1969754Y1689002D02*
X1971773D01*
X1969754Y1599002D02*
X1971773D01*
X1969754Y1650752D02*
X1971770D01*
X1969754Y1639052D02*
X1971762D01*
X1969754Y1700702D02*
X1971759D01*
X1969754Y1660652D02*
X1971748D01*
X1969754Y1629152D02*
X1971741D01*
X1969754Y1710602D02*
X1971738D01*
X1969754Y1620602D02*
X1971738D01*
X1969754Y1669202D02*
X1971731D01*
X1969754Y1670552D02*
X1971729D01*
X1969754Y1709252D02*
X1971722D01*
X1969754Y1619252D02*
X1971722D01*
X1969754Y1630502D02*
X1971720D01*
X1969754Y1659302D02*
X1971714D01*
X1969754Y1699352D02*
X1971707D01*
X1969754Y1640402D02*
X1971705D01*
X1969754Y1649402D02*
X1971700D01*
X1969754Y1690352D02*
X1971699D01*
X1969754Y1600352D02*
X1971699D01*
X1969754Y1689452D02*
X1971694D01*
X1969754Y1599452D02*
X1971694D01*
X1969754Y1650302D02*
X1971693D01*
X1969754Y1639502D02*
X1971689D01*
X1969754Y1700252D02*
X1971688D01*
X1969754Y1660202D02*
X1971683D01*
X1969754Y1629602D02*
X1971680D01*
X1969754Y1710152D02*
X1971679D01*
X1969754Y1620152D02*
X1971679D01*
X1969754Y1669652D02*
X1971677D01*
X1969754Y1670102D02*
X1971676D01*
X1969754Y1709702D02*
X1971674D01*
X1969754Y1619702D02*
X1971674D01*
X1969754Y1630052D02*
X1971673D01*
X1969754Y1659752D02*
X1971672D01*
X1969754Y1699802D02*
X1971671D01*
X1969754Y1639952D02*
X1971670D01*
X1969754Y1649852D02*
X1971670D01*
X1969754Y1689902D02*
X1971670D01*
X1969754Y1599902D02*
X1971670D01*
X1987674Y1678202D02*
X1988452D01*
X1987251Y1678652D02*
X1987783D01*
X1986411Y1679102D02*
X1987273D01*
X1983322Y1679552D02*
X1986823D01*
X1983322Y1680002D02*
X1986373D01*
X1983322Y1679102D02*
X1984219D01*
X1983322Y1680452D02*
X1983980D01*
X1968504Y1578740D02*
G03X1972441Y1574803I3937J0D01*
G01X2078504*
G03X2082441Y1578740I-0J3937*
G01Y1724066*
G03X2078504Y1728003I-3937J0*
G01X2041220*
X2009724D02*
G03X2041220I15748J0D01*
G01X2009724D02*
X1972441D01*
G03X1968504Y1724066I-0J-3937*
G01Y1578740*
G54D25*
X1988672Y1611903D02*
X1993922Y1606653D01*
X1996422*
X1988672Y1611903D02*
Y1638903D01*
X1996672Y1646903*
X1996422Y1606653D02*
X2010172D01*
X2015922Y1600903*
X2029422*
X2031422Y1602903*
X2011672Y1611653D02*
Y1638153D01*
X2014332Y1640813*
X2020222*
X2011672Y1611653D02*
X2016172Y1607153D01*
X2018922*
X1975472Y1619883D02*
Y1619903D01*
X1987172*
Y1610653*
X1992922Y1604903*
X2009922*
X2015422Y1599403*
X2030312*
X2031472Y1600563*
X1987172Y1619903D02*
Y1639903D01*
X1995422Y1648153*
Y1677403*
X1992422Y1618403D02*
Y1610653D01*
X1994422Y1608653*
X2010332*
X2016332Y1602653*
X2028672*
X2009672Y1619903D02*
Y1631653D01*
X2041422Y1623903D02*
X2043422D01*
X2044672Y1625153*
Y1635403*
X1975472Y1629883D02*
X1982172Y1636583D01*
Y1685450*
X1985315Y1688592*
X2034672Y1631653D02*
X2039672D01*
Y1623153*
X2042672Y1620153*
X2050672*
X2048672Y1633653D02*
Y1655653D01*
X2050922Y1657903*
X2055172*
X1975472Y1639883D02*
X1980672Y1645083D01*
Y1689855*
X1985315Y1694498*
X2013172Y1637403D02*
X2014832Y1639063D01*
X2022222*
X2013172Y1637403D02*
Y1612903D01*
X2016422Y1609653*
X2018922*
X1975472Y1649883D02*
X1979422Y1653833D01*
Y1694511*
X1985315Y1700403*
X2069422Y1651653D02*
Y1654153D01*
X2070172Y1654903*
Y1701766*
X2069422Y1651653D02*
X2071192Y1649883D01*
X2075472*
X2067922Y1647433D02*
Y1655128D01*
X2068948Y1656153*
Y1697479*
X2067922Y1647433D02*
X2075472Y1639883D01*
X1985315Y1682687D02*
X1988348Y1679653D01*
X1993172*
X1995422Y1677403*
X2052672Y1680153D02*
X2062703D01*
X2065236Y1682687*
X2065630*
X1998422Y1697403D02*
Y1675403D01*
X2002672Y1671153*
X2049422*
X2065630Y1700403D02*
X2066024D01*
X2068948Y1697479*
X2065630Y1712214D02*
X2071422Y1706422D01*
Y1653153*
X2065630Y1706309D02*
X2070172Y1701766D01*
X1985315Y1718120D02*
X1988531Y1714903D01*
X1993422*
X1996672Y1711653*
Y1646903*
X2065630Y1718120D02*
X2069261Y1714489D01*
X2070867*
X2075472Y1709883*
G54D30*
X1990504Y1582803D03*
Y1579803D03*
X2017504Y1577803D03*
X2030504D03*
X2023504D03*
X2035504D03*
X2060504Y1583803D03*
Y1579803D03*
X1985504Y1590803D03*
X1991504D03*
X1995504D03*
X2034504Y1593803D03*
X2059391Y1589816D03*
X2055391D03*
X2051391D03*
X2064504Y1584803D03*
Y1589803D03*
Y1593803D03*
X2002504Y1601803D03*
X2028672Y1602653D03*
X2031472Y1600563D03*
X2031422Y1602903D03*
X2034504Y1596803D03*
X2048504Y1601803D03*
X2064504Y1597803D03*
Y1602803D03*
X1984504Y1613803D03*
X1996422Y1606653D03*
X2018922Y1609653D03*
Y1607153D03*
X2018504Y1612803D03*
X2029504D03*
X2023504D03*
X2038391Y1613816D03*
X2051391D03*
X2069391D03*
Y1608816D03*
X2063391D03*
Y1613816D03*
X1984504Y1622803D03*
Y1616803D03*
X1992422Y1618403D03*
X1998504Y1615803D03*
Y1623803D03*
X2009672Y1619903D03*
X2017391Y1620816D03*
X2027391D03*
X2022391D03*
X2050672Y1620153D03*
X2041422Y1623903D03*
X2062504Y1623803D03*
X2070504Y1620803D03*
X2067504D03*
X1998504Y1631803D03*
X2009672Y1631653D03*
X2017391Y1625816D03*
Y1630816D03*
X2027391Y1625816D03*
Y1630816D03*
X2022391D03*
Y1625816D03*
X2034672Y1631653D03*
X2039672D03*
X2048672Y1633653D03*
X2048922Y1627653D03*
X2054504Y1624803D03*
X2064504Y1631803D03*
X1990422Y1634903D03*
X1998504Y1635803D03*
X2005222Y1638313D03*
X2009504Y1637803D03*
X2020222Y1640813D03*
X2022222Y1639063D03*
X2025504Y1638803D03*
X2031504Y1637803D03*
Y1641803D03*
X2044672Y1635403D03*
X2057504Y1642803D03*
X2052504D03*
X2067504Y1640803D03*
X2064504D03*
X1984504Y1644803D03*
X1986504Y1646803D03*
X1996672Y1646903D03*
X2019504Y1645803D03*
Y1650803D03*
X2025504Y1645803D03*
Y1650803D03*
X2057504Y1646803D03*
X2052504D03*
X2064504D03*
X2071422Y1653153D03*
X1985504Y1660803D03*
X1986504Y1654803D03*
X2000504Y1655803D03*
X2018504Y1663803D03*
X2015504D03*
X2027504Y1660803D03*
X2023504D03*
X2021504Y1663803D03*
X2042672Y1656403D03*
X2055172Y1657903D03*
X2059504Y1656803D03*
X2062504Y1660803D03*
X1984391Y1671816D03*
Y1667816D03*
X2000504Y1669803D03*
X1992504D03*
X2018504Y1666803D03*
X2015504D03*
X2030504D03*
X2027504D03*
X2024504D03*
X2021504D03*
X2039504D03*
X2036504D03*
X2033504D03*
X2049422Y1671153D03*
X2058504Y1666803D03*
Y1671803D03*
X2062504Y1666803D03*
Y1671803D03*
X2020504Y1681803D03*
X2012504D03*
X2029504D03*
X2039504D03*
X2052672Y1680153D03*
X2012504Y1691803D03*
X2020504D03*
Y1686803D03*
X2012504D03*
X2029504Y1691803D03*
Y1686803D03*
X2039504Y1691803D03*
Y1686803D03*
X2047504Y1691803D03*
Y1686803D03*
X1998422Y1697403D03*
X2012504Y1696803D03*
X2020504D03*
X2012504Y1701803D03*
X2020504D03*
X2029504Y1696803D03*
Y1701803D03*
X2039504Y1696803D03*
Y1701803D03*
X2047504Y1696803D03*
Y1701803D03*
X2011504Y1712803D03*
X2020504Y1706803D03*
X2012504D03*
X2029504D03*
X2039504D03*
X2041504Y1712803D03*
X2047504Y1706803D03*
X2008504Y1715803D03*
X2005504Y1718803D03*
X2002504Y1721803D03*
X2050504D03*
X2047504Y1718803D03*
X2044504Y1715803D03*
G54D60*
X2065630Y1692073D02*
Y1692923D01*
Y1696922D02*
Y1696072D01*
X1985315Y1674356D02*
Y1675206D01*
Y1679206D02*
Y1678356D01*
X2042366Y1582063D02*
X2041516D01*
X2039547Y1586456D02*
Y1585606D01*
X2036729Y1582063D02*
X2037579D01*
X2039547Y1577670D02*
Y1578520D01*
X2014216Y1582063D02*
X2013366D01*
X2011398Y1586456D02*
Y1585606D01*
X2008579Y1582063D02*
X2009429D01*
X2011398Y1577670D02*
Y1578520D01*
X2042366Y1596630D02*
X2041516D01*
X2039547Y1601023D02*
Y1600173D01*
X2036729Y1596630D02*
X2037579D01*
X2039547Y1592237D02*
Y1593087D01*
X2014216Y1596630D02*
X2013366D01*
X2011398Y1601023D02*
Y1600173D01*
X2008579Y1596630D02*
X2009429D01*
X2011398Y1592237D02*
Y1593087D01*
X2065630Y1721600D02*
Y1722450D01*
X2068448Y1724025D02*
X2067598D01*
G54D121*
X1975472Y1719883D03*
Y1709883D03*
Y1699883D03*
Y1689883D03*
Y1679883D03*
Y1669883D03*
Y1659883D03*
Y1649883D03*
Y1639883D03*
Y1629883D03*
Y1619883D03*
Y1609883D03*
Y1599883D03*
Y1589883D03*
Y1579883D03*
X2075472Y1719883D03*
Y1709883D03*
Y1699883D03*
Y1689883D03*
Y1679883D03*
Y1669883D03*
Y1659883D03*
Y1649883D03*
Y1639883D03*
Y1629883D03*
Y1619883D03*
Y1609883D03*
Y1599883D03*
Y1589883D03*
Y1579883D03*
G54D401*
X1985315Y1724025D03*
Y1718120D03*
Y1712214D03*
Y1706309D03*
Y1700403D03*
Y1694498D03*
Y1688592D03*
Y1682687D03*
Y1676781D03*
X2065630D03*
Y1682687D03*
Y1688592D03*
Y1694498D03*
Y1700403D03*
Y1706309D03*
Y1712214D03*
Y1718120D03*
Y1724025D03*
G54D404*
X2011398Y1596630D03*
X2039547D03*
X2011398Y1582063D03*
X2039547D03*
G74*
X0Y0D02*
M02*
