*
*
G04 PADS VX.2 Build Number: 5060570 generated Gerber (RS-274-X) file*
G04 PC Version=2.1*
*
%IN "#22636-ESP8266_DEVKITC_"*%
*
%MOIN*%
*
%FSLAX35Y35*%
*
*
*
*
G04 PC Standard Apertures*
*
*
G04 Thermal Relief Aperture macro.*
%AMTER*
1,1,$1,0,0*
1,0,$1-$2,0,0*
21,0,$3,$4,0,0,45*
21,0,$3,$4,0,0,135*
%
*
*
G04 Annular Aperture macro.*
%AMANN*
1,1,$1,0,0*
1,0,$2,0,0*
%
*
*
G04 Odd Aperture macro.*
%AMODD*
1,1,$1,0,0*
1,0,$1-0.005,0,0*
%
*
*
G04 PC Custom Aperture Macros*
*
*
*
*
*
*
G04 PC Aperture Table*
*
%ADD010C,0.001*%
%ADD012C,0.01*%
%ADD024C,0.005*%
*
*
*
*
G04 PC Circuitry*
G04 Layer Name #22636-ESP8266_DEVKITC_ - circuitry*
%LPD*%
*
*
G04 PC Custom Flashes*
G04 Layer Name #22636-ESP8266_DEVKITC_ - flashes*
%LPD*%
*
*
G04 PC Circuitry*
G04 Layer Name #22636-ESP8266_DEVKITC_ - circuitry*
%LPD*%
*
G54D10*
G01X1968504Y1574803D02*
X1968507D01*
X1968504Y1728003D02*
X1968507D01*
X2082441Y1574803D02*
X2082444D01*
X1968504D02*
X1968507D01*
G54D12*
X1985449Y1720025D02*
X1993449D01*
X1985449Y1728025*
X1993449*
X1985449Y1720025*
X1988598D02*
X1996598D01*
X1988598Y1728025*
X1996598*
X1988598Y1720025*
X1989449Y1724911D02*
G75*
G03Y1723139I-0J-886D01*
G01X1992598*
G03Y1724911I0J886*
G01X1989449*
X2054346Y1720025D02*
X2062346D01*
X2054346Y1728025*
X2062346*
X2054346Y1720025*
X2057496D02*
X2065496D01*
X2057496Y1728025*
X2065496*
X2057496Y1720025*
X2058346Y1724911D02*
G03Y1723139I0J-886D01*
G01X2061496*
G03Y1724911I0J886*
G01X2058346*
X1985449Y1714120D02*
X1993449D01*
X1985449Y1722120*
X1993449*
X1985449Y1714120*
X1988598D02*
X1996598D01*
X1988598Y1722120*
X1996598*
X1988598Y1714120*
X1989449Y1719006D02*
G03Y1717234I-0J-886D01*
G01X1992598*
G03Y1719006I0J886*
G01X1989449*
X1985449Y1708214D02*
X1993449D01*
X1985449Y1716214*
X1993449*
X1985449Y1708214*
X1988598D02*
X1996598D01*
X1988598Y1716214*
X1996598*
X1988598Y1708214*
X1989449Y1713100D02*
G03Y1711328I-0J-886D01*
G01X1992598*
G03Y1713100I0J886*
G01X1989449*
X1985449Y1702309D02*
X1993449D01*
X1985449Y1710309*
X1993449*
X1985449Y1702309*
X1988598D02*
X1996598D01*
X1988598Y1710309*
X1996598*
X1988598Y1702309*
X1989449Y1707194D02*
G03Y1705423I-0J-885D01*
G01X1992598*
G03Y1707194I0J886*
G01X1989449*
X1985449Y1696403D02*
X1993449D01*
X1985449Y1704403*
X1993449*
X1985449Y1696403*
X1988598D02*
X1996598D01*
X1988598Y1704403*
X1996598*
X1988598Y1696403*
X1989449Y1701289D02*
G03Y1699517I-0J-886D01*
G01X1992598*
G03Y1701289I0J886*
G01X1989449*
X1985449Y1690498D02*
X1993449D01*
X1985449Y1698498*
X1993449*
X1985449Y1690498*
X1988598D02*
X1996598D01*
X1988598Y1698498*
X1996598*
X1988598Y1690498*
X1989449Y1695383D02*
G03Y1693612I-0J-885D01*
G01X1992598*
G03Y1695383I0J886*
G01X1989449*
X1985449Y1684592D02*
X1993449D01*
X1985449Y1692592*
X1993449*
X1985449Y1684592*
X1988598D02*
X1996598D01*
X1988598Y1692592*
X1996598*
X1988598Y1684592*
X1989449Y1689478D02*
G03Y1687706I-0J-886D01*
G01X1992598*
G03Y1689478I0J886*
G01X1989449*
X1985449Y1678687D02*
X1993449D01*
X1985449Y1686687*
X1993449*
X1985449Y1678687*
X1988598D02*
X1996598D01*
X1988598Y1686687*
X1996598*
X1988598Y1678687*
X1989449Y1683572D02*
G03Y1681801I-0J-885D01*
G01X1992598*
G03Y1683572I0J886*
G01X1989449*
X1985449Y1672781D02*
X1993449D01*
X1985449Y1680781*
X1993449*
X1985449Y1672781*
X1988598D02*
X1996598D01*
X1988598Y1680781*
X1996598*
X1988598Y1672781*
X1989449Y1677667D02*
G03Y1675895I-0J-886D01*
G01X1992598*
G03Y1677667I0J886*
G01X1989449*
X2054346Y1714120D02*
X2062346D01*
X2054346Y1722120*
X2062346*
X2054346Y1714120*
X2057496D02*
X2065496D01*
X2057496Y1722120*
X2065496*
X2057496Y1714120*
X2058346Y1719006D02*
G03Y1717234I0J-886D01*
G01X2061496*
G03Y1719006I0J886*
G01X2058346*
X2054346Y1708214D02*
X2062346D01*
X2054346Y1716214*
X2062346*
X2054346Y1708214*
X2057496D02*
X2065496D01*
X2057496Y1716214*
X2065496*
X2057496Y1708214*
X2058346Y1713100D02*
G03Y1711328I0J-886D01*
G01X2061496*
G03Y1713100I0J886*
G01X2058346*
X2054346Y1702309D02*
X2062346D01*
X2054346Y1710309*
X2062346*
X2054346Y1702309*
X2057496D02*
X2065496D01*
X2057496Y1710309*
X2065496*
X2057496Y1702309*
X2058346Y1707194D02*
G03Y1705423I0J-885D01*
G01X2061496*
G03Y1707194I0J886*
G01X2058346*
X2054346Y1696403D02*
X2062346D01*
X2054346Y1704403*
X2062346*
X2054346Y1696403*
X2057496D02*
X2065496D01*
X2057496Y1704403*
X2065496*
X2057496Y1696403*
X2058346Y1701289D02*
G03Y1699517I0J-886D01*
G01X2061496*
G03Y1701289I0J886*
G01X2058346*
X2054346Y1690498D02*
X2062346D01*
X2054346Y1698498*
X2062346*
X2054346Y1690498*
X2057496D02*
X2065496D01*
X2057496Y1698498*
X2065496*
X2057496Y1690498*
X2058346Y1695383D02*
G03Y1693612I0J-885D01*
G01X2061496*
G03Y1695383I0J886*
G01X2058346*
X2054346Y1684592D02*
X2062346D01*
X2054346Y1692592*
X2062346*
X2054346Y1684592*
X2057496D02*
X2065496D01*
X2057496Y1692592*
X2065496*
X2057496Y1684592*
X2058346Y1689478D02*
G03Y1687706I0J-886D01*
G01X2061496*
G03Y1689478I0J886*
G01X2058346*
X2054346Y1678687D02*
X2062346D01*
X2054346Y1686687*
X2062346*
X2054346Y1678687*
X2057496D02*
X2065496D01*
X2057496Y1686687*
X2065496*
X2057496Y1678687*
X2058346Y1683572D02*
G03Y1681801I0J-885D01*
G01X2061496*
G03Y1683572I0J886*
G01X2058346*
X2054346Y1672781D02*
X2062346D01*
X2054346Y1680781*
X2062346*
X2054346Y1672781*
X2057496D02*
X2065496D01*
X2057496Y1680781*
X2065496*
X2057496Y1672781*
X2058346Y1677667D02*
G03Y1675895I0J-886D01*
G01X2061496*
G03Y1677667I0J886*
G01X2058346*
X2007398Y1591055D02*
X2015398D01*
Y1599055*
X2007398*
Y1591055*
X2011398Y1595055D02*
Y1599055D01*
X2007398Y1594205D02*
X2015398D01*
Y1602205*
X2007398*
Y1594205*
X2011398Y1598205D02*
Y1602205D01*
X2010217Y1595055D02*
G03X2012579I1181J0D01*
G01Y1598205*
G03X2010217I-1181J-0*
G01Y1595055*
X2035547Y1591055D02*
X2043547D01*
Y1599055*
X2035547*
Y1591055*
X2039547Y1595055D02*
Y1599055D01*
X2035547Y1594205D02*
X2043547D01*
Y1602205*
X2035547*
Y1594205*
X2039547Y1598205D02*
Y1602205D01*
X2038366Y1595055D02*
G03X2040728I1181J0D01*
G01Y1598205*
G03X2038366I-1181J-0*
G01Y1595055*
X2007398Y1576488D02*
X2015398D01*
Y1584488*
X2007398*
Y1576488*
X2011398Y1580488D02*
Y1584488D01*
X2007398Y1579638D02*
X2015398D01*
Y1587638*
X2007398*
Y1579638*
X2011398Y1583638D02*
Y1587638D01*
X2010217Y1580488D02*
G03X2012579I1181J0D01*
G01Y1583638*
G03X2010217I-1181J-0*
G01Y1580488*
X2035547Y1576488D02*
X2043547D01*
Y1584488*
X2035547*
Y1576488*
X2039547Y1580488D02*
Y1584488D01*
X2035547Y1579638D02*
X2043547D01*
Y1587638*
X2035547*
Y1579638*
X2039547Y1583638D02*
Y1587638D01*
X2038366Y1580488D02*
G03X2040728I1181J0D01*
G01Y1583638*
G03X2038366I-1181J-0*
G01Y1580488*
X1971472Y1719883D02*
X1979472D01*
X1975472Y1715883D02*
Y1723883D01*
X1971472Y1709883D02*
X1979472D01*
X1975472Y1705883D02*
Y1713883D01*
X1971472Y1699883D02*
X1979472D01*
X1975472Y1695883D02*
Y1703883D01*
X1971472Y1689883D02*
X1979472D01*
X1975472Y1685883D02*
Y1693883D01*
X1971472Y1679883D02*
X1979472D01*
X1975472Y1675883D02*
Y1683883D01*
X1971472Y1669883D02*
X1979472D01*
X1975472Y1665883D02*
Y1673883D01*
X1971472Y1659883D02*
X1979472D01*
X1975472Y1655883D02*
Y1663883D01*
X1971472Y1649883D02*
X1979472D01*
X1975472Y1645883D02*
Y1653883D01*
X1971472Y1639883D02*
X1979472D01*
X1975472Y1635883D02*
Y1643883D01*
X1971472Y1629883D02*
X1979472D01*
X1975472Y1625883D02*
Y1633883D01*
X1971472Y1619883D02*
X1979472D01*
X1975472Y1615883D02*
Y1623883D01*
X1971472Y1609883D02*
X1979472D01*
X1975472Y1605883D02*
Y1613883D01*
X1971472Y1599883D02*
X1979472D01*
X1975472Y1595883D02*
Y1603883D01*
X1971472Y1589883D02*
X1979472D01*
X1975472Y1585883D02*
Y1593883D01*
X1971472Y1579883D02*
X1979472D01*
X1975472Y1575883D02*
Y1583883D01*
X1981315Y1720025D02*
X1989315Y1728025D01*
Y1720025*
X1981315Y1728025*
Y1720025*
Y1714120D02*
X1989315Y1722120D01*
Y1714120*
X1981315Y1722120*
Y1714120*
Y1708214D02*
X1989315Y1716214D01*
Y1708214*
X1981315Y1716214*
Y1708214*
Y1702309D02*
X1989315Y1710309D01*
Y1702309*
X1981315Y1710309*
Y1702309*
Y1696403D02*
X1989315Y1704403D01*
Y1696403*
X1981315Y1704403*
Y1696403*
Y1690498D02*
X1989315Y1698498D01*
Y1690498*
X1981315Y1698498*
Y1690498*
Y1684592D02*
X1989315Y1692592D01*
Y1684592*
X1981315Y1692592*
Y1684592*
Y1678687D02*
X1989315Y1686687D01*
Y1678687*
X1981315Y1686687*
Y1678687*
Y1672781D02*
X1989315Y1680781D01*
Y1672781*
X1981315Y1680781*
Y1672781*
X2061630D02*
X2069630Y1680781D01*
Y1672781*
X2061630Y1680781*
Y1672781*
Y1678687D02*
X2069630Y1686687D01*
Y1678687*
X2061630Y1686687*
Y1678687*
Y1684592D02*
X2069630Y1692592D01*
Y1684592*
X2061630Y1692592*
Y1684592*
Y1690498D02*
X2069630Y1698498D01*
Y1690498*
X2061630Y1698498*
Y1690498*
Y1696403D02*
X2069630Y1704403D01*
Y1696403*
X2061630Y1704403*
Y1696403*
Y1702309D02*
X2069630Y1710309D01*
Y1702309*
X2061630Y1710309*
Y1702309*
Y1708214D02*
X2069630Y1716214D01*
Y1708214*
X2061630Y1716214*
Y1708214*
Y1714120D02*
X2069630Y1722120D01*
Y1714120*
X2061630Y1722120*
Y1714120*
Y1720025D02*
X2069630Y1728025D01*
Y1720025*
X2061630Y1728025*
Y1720025*
X2017598Y1586568D02*
X2021598Y1590568D01*
X2017598Y1594568*
X2013598Y1590568*
X2017598Y1586568*
Y1590568D02*
Y1594568D01*
X2033346Y1586568D02*
X2037346Y1590568D01*
X2033346Y1594568*
X2029346Y1590568*
X2033346Y1586568*
Y1590568D02*
Y1594568D01*
X2071472Y1719883D02*
X2079472D01*
X2075472Y1715883D02*
Y1723883D01*
X2071472Y1709883D02*
X2079472D01*
X2075472Y1705883D02*
Y1713883D01*
X2071472Y1699883D02*
X2079472D01*
X2075472Y1695883D02*
Y1703883D01*
X2071472Y1689883D02*
X2079472D01*
X2075472Y1685883D02*
Y1693883D01*
X2071472Y1679883D02*
X2079472D01*
X2075472Y1675883D02*
Y1683883D01*
X2071472Y1669883D02*
X2079472D01*
X2075472Y1665883D02*
Y1673883D01*
X2071472Y1659883D02*
X2079472D01*
X2075472Y1655883D02*
Y1663883D01*
X2071472Y1649883D02*
X2079472D01*
X2075472Y1645883D02*
Y1653883D01*
X2071472Y1639883D02*
X2079472D01*
X2075472Y1635883D02*
Y1643883D01*
X2071472Y1629883D02*
X2079472D01*
X2075472Y1625883D02*
Y1633883D01*
X2071472Y1619883D02*
X2079472D01*
X2075472Y1615883D02*
Y1623883D01*
X2071472Y1609883D02*
X2079472D01*
X2075472Y1605883D02*
Y1613883D01*
X2071472Y1599883D02*
X2079472D01*
X2075472Y1595883D02*
Y1603883D01*
X2071472Y1589883D02*
X2079472D01*
X2075472Y1585883D02*
Y1593883D01*
X2071472Y1579883D02*
X2079472D01*
X2075472Y1575883D02*
Y1583883D01*
X1986504Y1578803D02*
X1994504Y1586803D01*
X1986504D02*
X1994504Y1578803D01*
X1986504Y1575803D02*
X1994504Y1583803D01*
X1986504D02*
X1994504Y1575803D01*
X2013504Y1573803D02*
X2021504Y1581803D01*
X2013504D02*
X2021504Y1573803D01*
X2026504D02*
X2034504Y1581803D01*
X2026504D02*
X2034504Y1573803D01*
X2019504D02*
X2027504Y1581803D01*
X2019504D02*
X2027504Y1573803D01*
X2031504D02*
X2039504Y1581803D01*
X2031504D02*
X2039504Y1573803D01*
X2056504Y1579803D02*
X2064504Y1587803D01*
X2056504D02*
X2064504Y1579803D01*
X2056504Y1575803D02*
X2064504Y1583803D01*
X2056504D02*
X2064504Y1575803D01*
X1981504Y1586803D02*
X1989504Y1594803D01*
X1981504D02*
X1989504Y1586803D01*
X1987504D02*
X1995504Y1594803D01*
X1987504D02*
X1995504Y1586803D01*
X1991504D02*
X1999504Y1594803D01*
X1991504D02*
X1999504Y1586803D01*
X2030504Y1589803D02*
X2038504Y1597803D01*
X2030504D02*
X2038504Y1589803D01*
X2055391Y1585816D02*
X2063391Y1593816D01*
X2055391D02*
X2063391Y1585816D01*
X2051391D02*
X2059391Y1593816D01*
X2051391D02*
X2059391Y1585816D01*
X2047391D02*
X2055391Y1593816D01*
X2047391D02*
X2055391Y1585816D01*
X2060504Y1580803D02*
X2068504Y1588803D01*
X2060504D02*
X2068504Y1580803D01*
X2060504Y1585803D02*
X2068504Y1593803D01*
X2060504D02*
X2068504Y1585803D01*
X2060504Y1589803D02*
X2068504Y1597803D01*
X2060504D02*
X2068504Y1589803D01*
X1998504Y1597803D02*
X2006504Y1605803D01*
X1998504D02*
X2006504Y1597803D01*
X2024672Y1598653D02*
X2032672Y1606653D01*
X2024672D02*
X2032672Y1598653D01*
X2027472Y1596563D02*
X2035472Y1604563D01*
X2027472D02*
X2035472Y1596563D01*
X2027422Y1598903D02*
X2035422Y1606903D01*
X2027422D02*
X2035422Y1598903D01*
X2030504Y1592803D02*
X2038504Y1600803D01*
X2030504D02*
X2038504Y1592803D01*
X2044504Y1597803D02*
X2052504Y1605803D01*
X2044504D02*
X2052504Y1597803D01*
X2060504Y1593803D02*
X2068504Y1601803D01*
X2060504D02*
X2068504Y1593803D01*
X2060504Y1598803D02*
X2068504Y1606803D01*
X2060504D02*
X2068504Y1598803D01*
X1980504Y1609803D02*
X1988504Y1617803D01*
X1980504D02*
X1988504Y1609803D01*
X1992422Y1602653D02*
X2000422Y1610653D01*
X1992422D02*
X2000422Y1602653D01*
X2014922Y1605653D02*
X2022922Y1613653D01*
X2014922D02*
X2022922Y1605653D01*
X2014922Y1603153D02*
X2022922Y1611153D01*
X2014922D02*
X2022922Y1603153D01*
X2014504Y1608803D02*
X2022504Y1616803D01*
X2014504D02*
X2022504Y1608803D01*
X2025504D02*
X2033504Y1616803D01*
X2025504D02*
X2033504Y1608803D01*
X2019504D02*
X2027504Y1616803D01*
X2019504D02*
X2027504Y1608803D01*
X2034391Y1609816D02*
X2042391Y1617816D01*
X2034391D02*
X2042391Y1609816D01*
X2047391D02*
X2055391Y1617816D01*
X2047391D02*
X2055391Y1609816D01*
X2065391D02*
X2073391Y1617816D01*
X2065391D02*
X2073391Y1609816D01*
X2065391Y1604816D02*
X2073391Y1612816D01*
X2065391D02*
X2073391Y1604816D01*
X2059391D02*
X2067391Y1612816D01*
X2059391D02*
X2067391Y1604816D01*
X2059391Y1609816D02*
X2067391Y1617816D01*
X2059391D02*
X2067391Y1609816D01*
X1980504Y1618803D02*
X1988504Y1626803D01*
X1980504D02*
X1988504Y1618803D01*
X1980504Y1612803D02*
X1988504Y1620803D01*
X1980504D02*
X1988504Y1612803D01*
X1988422Y1614403D02*
X1996422Y1622403D01*
X1988422D02*
X1996422Y1614403D01*
X1994504Y1611803D02*
X2002504Y1619803D01*
X1994504D02*
X2002504Y1611803D01*
X1994504Y1619803D02*
X2002504Y1627803D01*
X1994504D02*
X2002504Y1619803D01*
X2005672Y1615903D02*
X2013672Y1623903D01*
X2005672D02*
X2013672Y1615903D01*
X2013391Y1616816D02*
X2021391Y1624816D01*
X2013391D02*
X2021391Y1616816D01*
X2023391D02*
X2031391Y1624816D01*
X2023391D02*
X2031391Y1616816D01*
X2018391D02*
X2026391Y1624816D01*
X2018391D02*
X2026391Y1616816D01*
X2046672Y1616153D02*
X2054672Y1624153D01*
X2046672D02*
X2054672Y1616153D01*
X2037422Y1619903D02*
X2045422Y1627903D01*
X2037422D02*
X2045422Y1619903D01*
X2058504Y1619803D02*
X2066504Y1627803D01*
X2058504D02*
X2066504Y1619803D01*
Y1616803D02*
X2074504Y1624803D01*
X2066504D02*
X2074504Y1616803D01*
X2063504D02*
X2071504Y1624803D01*
X2063504D02*
X2071504Y1616803D01*
X1994504Y1627803D02*
X2002504Y1635803D01*
X1994504D02*
X2002504Y1627803D01*
X2005672Y1627653D02*
X2013672Y1635653D01*
X2005672D02*
X2013672Y1627653D01*
X2013391Y1621816D02*
X2021391Y1629816D01*
X2013391D02*
X2021391Y1621816D01*
X2013391Y1626816D02*
X2021391Y1634816D01*
X2013391D02*
X2021391Y1626816D01*
X2023391Y1621816D02*
X2031391Y1629816D01*
X2023391D02*
X2031391Y1621816D01*
X2023391Y1626816D02*
X2031391Y1634816D01*
X2023391D02*
X2031391Y1626816D01*
X2018391D02*
X2026391Y1634816D01*
X2018391D02*
X2026391Y1626816D01*
X2018391Y1621816D02*
X2026391Y1629816D01*
X2018391D02*
X2026391Y1621816D01*
X2030672Y1627653D02*
X2038672Y1635653D01*
X2030672D02*
X2038672Y1627653D01*
X2035672D02*
X2043672Y1635653D01*
X2035672D02*
X2043672Y1627653D01*
X2044672Y1629653D02*
X2052672Y1637653D01*
X2044672D02*
X2052672Y1629653D01*
X2044922Y1623653D02*
X2052922Y1631653D01*
X2044922D02*
X2052922Y1623653D01*
X2050504Y1620803D02*
X2058504Y1628803D01*
X2050504D02*
X2058504Y1620803D01*
X2060504Y1627803D02*
X2068504Y1635803D01*
X2060504D02*
X2068504Y1627803D01*
X1986422Y1630903D02*
X1994422Y1638903D01*
X1986422D02*
X1994422Y1630903D01*
X1994504Y1631803D02*
X2002504Y1639803D01*
X1994504D02*
X2002504Y1631803D01*
X2001222Y1634313D02*
X2009222Y1642313D01*
X2001222D02*
X2009222Y1634313D01*
X2005504Y1633803D02*
X2013504Y1641803D01*
X2005504D02*
X2013504Y1633803D01*
X2016222Y1636813D02*
X2024222Y1644813D01*
X2016222D02*
X2024222Y1636813D01*
X2018222Y1635063D02*
X2026222Y1643063D01*
X2018222D02*
X2026222Y1635063D01*
X2021504Y1634803D02*
X2029504Y1642803D01*
X2021504D02*
X2029504Y1634803D01*
X2027504Y1633803D02*
X2035504Y1641803D01*
X2027504D02*
X2035504Y1633803D01*
X2027504Y1637803D02*
X2035504Y1645803D01*
X2027504D02*
X2035504Y1637803D01*
X2040672Y1631403D02*
X2048672Y1639403D01*
X2040672D02*
X2048672Y1631403D01*
X2053504Y1638803D02*
X2061504Y1646803D01*
X2053504D02*
X2061504Y1638803D01*
X2048504D02*
X2056504Y1646803D01*
X2048504D02*
X2056504Y1638803D01*
X2063504Y1636803D02*
X2071504Y1644803D01*
X2063504D02*
X2071504Y1636803D01*
X2060504D02*
X2068504Y1644803D01*
X2060504D02*
X2068504Y1636803D01*
X1980504Y1640803D02*
X1988504Y1648803D01*
X1980504D02*
X1988504Y1640803D01*
X1982504Y1642803D02*
X1990504Y1650803D01*
X1982504D02*
X1990504Y1642803D01*
X1992672Y1642903D02*
X2000672Y1650903D01*
X1992672D02*
X2000672Y1642903D01*
X2015504Y1641803D02*
X2023504Y1649803D01*
X2015504D02*
X2023504Y1641803D01*
X2015504Y1646803D02*
X2023504Y1654803D01*
X2015504D02*
X2023504Y1646803D01*
X2021504Y1641803D02*
X2029504Y1649803D01*
X2021504D02*
X2029504Y1641803D01*
X2021504Y1646803D02*
X2029504Y1654803D01*
X2021504D02*
X2029504Y1646803D01*
X2053504Y1642803D02*
X2061504Y1650803D01*
X2053504D02*
X2061504Y1642803D01*
X2048504D02*
X2056504Y1650803D01*
X2048504D02*
X2056504Y1642803D01*
X2060504D02*
X2068504Y1650803D01*
X2060504D02*
X2068504Y1642803D01*
X2067422Y1649153D02*
X2075422Y1657153D01*
X2067422D02*
X2075422Y1649153D01*
X1981504Y1656803D02*
X1989504Y1664803D01*
X1981504D02*
X1989504Y1656803D01*
X1982504Y1650803D02*
X1990504Y1658803D01*
X1982504D02*
X1990504Y1650803D01*
X1996504Y1651803D02*
X2004504Y1659803D01*
X1996504D02*
X2004504Y1651803D01*
X2014504Y1659803D02*
X2022504Y1667803D01*
X2014504D02*
X2022504Y1659803D01*
X2011504D02*
X2019504Y1667803D01*
X2011504D02*
X2019504Y1659803D01*
X2023504Y1656803D02*
X2031504Y1664803D01*
X2023504D02*
X2031504Y1656803D01*
X2019504D02*
X2027504Y1664803D01*
X2019504D02*
X2027504Y1656803D01*
X2017504Y1659803D02*
X2025504Y1667803D01*
X2017504D02*
X2025504Y1659803D01*
X2038672Y1652403D02*
X2046672Y1660403D01*
X2038672D02*
X2046672Y1652403D01*
X2051172Y1653903D02*
X2059172Y1661903D01*
X2051172D02*
X2059172Y1653903D01*
X2055504Y1652803D02*
X2063504Y1660803D01*
X2055504D02*
X2063504Y1652803D01*
X2058504Y1656803D02*
X2066504Y1664803D01*
X2058504D02*
X2066504Y1656803D01*
X1980391Y1667816D02*
X1988391Y1675816D01*
X1980391D02*
X1988391Y1667816D01*
X1980391Y1663816D02*
X1988391Y1671816D01*
X1980391D02*
X1988391Y1663816D01*
X1996504Y1665803D02*
X2004504Y1673803D01*
X1996504D02*
X2004504Y1665803D01*
X1988504D02*
X1996504Y1673803D01*
X1988504D02*
X1996504Y1665803D01*
X2014504Y1662803D02*
X2022504Y1670803D01*
X2014504D02*
X2022504Y1662803D01*
X2011504D02*
X2019504Y1670803D01*
X2011504D02*
X2019504Y1662803D01*
X2026504D02*
X2034504Y1670803D01*
X2026504D02*
X2034504Y1662803D01*
X2023504D02*
X2031504Y1670803D01*
X2023504D02*
X2031504Y1662803D01*
X2020504D02*
X2028504Y1670803D01*
X2020504D02*
X2028504Y1662803D01*
X2017504D02*
X2025504Y1670803D01*
X2017504D02*
X2025504Y1662803D01*
X2035504D02*
X2043504Y1670803D01*
X2035504D02*
X2043504Y1662803D01*
X2032504D02*
X2040504Y1670803D01*
X2032504D02*
X2040504Y1662803D01*
X2029504D02*
X2037504Y1670803D01*
X2029504D02*
X2037504Y1662803D01*
X2045422Y1667153D02*
X2053422Y1675153D01*
X2045422D02*
X2053422Y1667153D01*
X2054504Y1662803D02*
X2062504Y1670803D01*
X2054504D02*
X2062504Y1662803D01*
X2054504Y1667803D02*
X2062504Y1675803D01*
X2054504D02*
X2062504Y1667803D01*
X2058504Y1662803D02*
X2066504Y1670803D01*
X2058504D02*
X2066504Y1662803D01*
X2058504Y1667803D02*
X2066504Y1675803D01*
X2058504D02*
X2066504Y1667803D01*
X2016504Y1677803D02*
X2024504Y1685803D01*
X2016504D02*
X2024504Y1677803D01*
X2008504D02*
X2016504Y1685803D01*
X2008504D02*
X2016504Y1677803D01*
X2025504D02*
X2033504Y1685803D01*
X2025504D02*
X2033504Y1677803D01*
X2035504D02*
X2043504Y1685803D01*
X2035504D02*
X2043504Y1677803D01*
X2048672Y1676153D02*
X2056672Y1684153D01*
X2048672D02*
X2056672Y1676153D01*
X2008504Y1687803D02*
X2016504Y1695803D01*
X2008504D02*
X2016504Y1687803D01*
X2024504Y1695803*
X2016504D02*
X2024504Y1687803D01*
X2016504Y1682803D02*
X2024504Y1690803D01*
X2016504D02*
X2024504Y1682803D01*
X2008504D02*
X2016504Y1690803D01*
X2008504D02*
X2016504Y1682803D01*
X2025504Y1687803D02*
X2033504Y1695803D01*
X2025504D02*
X2033504Y1687803D01*
X2025504Y1682803D02*
X2033504Y1690803D01*
X2025504D02*
X2033504Y1682803D01*
X2035504Y1687803D02*
X2043504Y1695803D01*
X2035504D02*
X2043504Y1687803D01*
X2035504Y1682803D02*
X2043504Y1690803D01*
X2035504D02*
X2043504Y1682803D01*
Y1687803D02*
X2051504Y1695803D01*
X2043504D02*
X2051504Y1687803D01*
X2043504Y1682803D02*
X2051504Y1690803D01*
X2043504D02*
X2051504Y1682803D01*
X1994422Y1693403D02*
X2002422Y1701403D01*
X1994422D02*
X2002422Y1693403D01*
X2008504Y1692803D02*
X2016504Y1700803D01*
X2008504D02*
X2016504Y1692803D01*
X2024504Y1700803*
X2016504D02*
X2024504Y1692803D01*
X2008504Y1697803D02*
X2016504Y1705803D01*
X2008504D02*
X2016504Y1697803D01*
X2024504Y1705803*
X2016504D02*
X2024504Y1697803D01*
X2025504Y1692803D02*
X2033504Y1700803D01*
X2025504D02*
X2033504Y1692803D01*
X2025504Y1697803D02*
X2033504Y1705803D01*
X2025504D02*
X2033504Y1697803D01*
X2035504Y1692803D02*
X2043504Y1700803D01*
X2035504D02*
X2043504Y1692803D01*
X2035504Y1697803D02*
X2043504Y1705803D01*
X2035504D02*
X2043504Y1697803D01*
Y1692803D02*
X2051504Y1700803D01*
X2043504D02*
X2051504Y1692803D01*
X2043504Y1697803D02*
X2051504Y1705803D01*
X2043504D02*
X2051504Y1697803D01*
X2007504Y1708803D02*
X2015504Y1716803D01*
X2007504D02*
X2015504Y1708803D01*
X2016504Y1702803D02*
X2024504Y1710803D01*
X2016504D02*
X2024504Y1702803D01*
X2008504D02*
X2016504Y1710803D01*
X2008504D02*
X2016504Y1702803D01*
X2025504D02*
X2033504Y1710803D01*
X2025504D02*
X2033504Y1702803D01*
X2035504D02*
X2043504Y1710803D01*
X2035504D02*
X2043504Y1702803D01*
X2037504Y1708803D02*
X2045504Y1716803D01*
X2037504D02*
X2045504Y1708803D01*
X2043504Y1702803D02*
X2051504Y1710803D01*
X2043504D02*
X2051504Y1702803D01*
X2004504Y1711803D02*
X2012504Y1719803D01*
X2004504D02*
X2012504Y1711803D01*
X2001504Y1714803D02*
X2009504Y1722803D01*
X2001504D02*
X2009504Y1714803D01*
X1998504Y1717803D02*
X2006504Y1725803D01*
X1998504D02*
X2006504Y1717803D01*
X2046504D02*
X2054504Y1725803D01*
X2046504D02*
X2054504Y1717803D01*
X2043504Y1714803D02*
X2051504Y1722803D01*
X2043504D02*
X2051504Y1714803D01*
X2040504Y1711803D02*
X2048504Y1719803D01*
X2040504D02*
X2048504Y1711803D01*
X2118504Y1742803D02*
X2376504D01*
X2118504Y1718803D02*
X2376504D01*
X2118504Y1694803D02*
X2376504D01*
X2118504Y1670803D02*
X2376504D01*
X2118504Y1646803D02*
X2376504D01*
X2118504Y1622803D02*
X2376504D01*
X2118504Y1598803D02*
X2376504D01*
X2118504Y1574803D02*
X2376504D01*
X2118504Y1742803D02*
Y1574803D01*
X2202504Y1742803D02*
Y1574803D01*
X2238504Y1742803D02*
Y1574803D01*
X2274504Y1742803D02*
Y1574803D01*
X2328504Y1742803D02*
Y1574803D01*
X2376504Y1742803D02*
Y1574803D01*
X2154004Y1731553D02*
X2153458Y1732303D01*
X2152640Y1732678*
X2151549*
X2150731Y1732303*
X2150186Y1731553*
Y1730803*
X2150458Y1730053*
X2150731Y1729678*
X2151277Y1729303*
X2152913Y1728553*
X2153458Y1728178*
X2153731Y1727803*
X2154004Y1727053*
Y1725928*
X2153458Y1725178*
X2152640Y1724803*
X2151549*
X2150731Y1725178*
X2150186Y1725928*
X2156458Y1732678D02*
Y1724803D01*
X2162731Y1732678D02*
X2158913Y1724803D01*
Y1732678D02*
X2162731D01*
X2158913Y1724803D02*
X2162731D01*
X2165186Y1732678D02*
Y1724803D01*
Y1732678D02*
X2168731D01*
X2165186Y1728928D02*
X2167368D01*
X2165186Y1724803D02*
X2168731D01*
X2212368Y1732678D02*
X2211822Y1732303D01*
X2211277Y1731553*
X2211004Y1730803*
X2210731Y1729678*
Y1727803*
X2211004Y1726678*
X2211277Y1725928*
X2211822Y1725178*
X2212368Y1724803*
X2213458*
X2214004Y1725178*
X2214549Y1725928*
X2214822Y1726678*
X2215095Y1727803*
Y1729678*
X2214822Y1730803*
X2214549Y1731553*
X2214004Y1732303*
X2213458Y1732678*
X2212368*
X2213186Y1726303D02*
X2214822Y1724053D01*
X2219458Y1732678D02*
Y1724803D01*
X2217549Y1732678D02*
X2221368D01*
X2223822D02*
X2226004Y1728928D01*
Y1724803*
X2228186Y1732678D02*
X2226004Y1728928D01*
X2250549Y1731553D02*
X2250004Y1732303D01*
X2249186Y1732678*
X2248095*
X2247277Y1732303*
X2246731Y1731553*
Y1730803*
X2247004Y1730053*
X2247277Y1729678*
X2247822Y1729303*
X2249458Y1728553*
X2250004Y1728178*
X2250277Y1727803*
X2250549Y1727053*
Y1725928*
X2250004Y1725178*
X2249186Y1724803*
X2248095*
X2247277Y1725178*
X2246731Y1725928*
X2253004Y1732678D02*
X2255186Y1728928D01*
Y1724803*
X2257368Y1732678D02*
X2255186Y1728928D01*
X2259822Y1732678D02*
Y1724803D01*
Y1732678D02*
X2262004Y1724803D01*
X2264186Y1732678D02*
X2262004Y1724803D01*
X2264186Y1732678D02*
Y1724803D01*
X2286004Y1732678D02*
Y1724803D01*
Y1732678D02*
X2288458D01*
X2289277Y1732303*
X2289549Y1731928*
X2289822Y1731178*
Y1730053*
X2289549Y1729303*
X2289277Y1728928*
X2288458Y1728553*
X2286004*
X2292277Y1732678D02*
Y1724803D01*
X2295549*
X2300186Y1732678D02*
X2298004Y1724803D01*
X2300186Y1732678D02*
X2302368Y1724803D01*
X2298822Y1727428D02*
X2301549D01*
X2306731Y1732678D02*
Y1724803D01*
X2304822Y1732678D02*
X2308640D01*
X2311095D02*
Y1724803D01*
Y1732678D02*
X2314640D01*
X2311095Y1728928D02*
X2313277D01*
X2311095Y1724803D02*
X2314640D01*
X2317095Y1732678D02*
Y1724803D01*
Y1732678D02*
X2319004D01*
X2319822Y1732303*
X2320368Y1731553*
X2320640Y1730803*
X2320913Y1729678*
Y1727803*
X2320640Y1726678*
X2320368Y1725928*
X2319822Y1725178*
X2319004Y1724803*
X2317095*
X2345186Y1732678D02*
Y1724803D01*
X2343277Y1732678D02*
X2347095D01*
X2351186D02*
X2350640Y1732303D01*
X2350095Y1731553*
X2349822Y1730803*
X2349549Y1729678*
Y1727803*
X2349822Y1726678*
X2350095Y1725928*
X2350640Y1725178*
X2351186Y1724803*
X2352277*
X2352822Y1725178*
X2353368Y1725928*
X2353640Y1726678*
X2353913Y1727803*
Y1729678*
X2353640Y1730803*
X2353368Y1731553*
X2352822Y1732303*
X2352277Y1732678*
X2351186*
X2356368D02*
Y1724803D01*
X2359640*
X2125049Y1708678D02*
X2128049D01*
X2126413Y1705678*
X2127231*
X2127777Y1705303*
X2128049Y1704928*
X2128322Y1703803*
Y1703053*
X2128049Y1701928*
X2127504Y1701178*
X2126686Y1700803*
X2125868*
X2125049Y1701178*
X2124777Y1701553*
X2124504Y1702303*
X2134322Y1708678D02*
X2131595D01*
X2131322Y1705303*
X2131595Y1705678*
X2132413Y1706053*
X2133231*
X2134049Y1705678*
X2134595Y1704928*
X2134868Y1703803*
X2134595Y1703053*
X2134322Y1701928*
X2133777Y1701178*
X2132958Y1700803*
X2132140*
X2131322Y1701178*
X2131049Y1701553*
X2130777Y1702303*
X2137595Y1701553D02*
X2137322Y1701178D01*
X2137595Y1700803*
X2137868Y1701178*
X2137595Y1701553*
X2143049Y1708678D02*
X2140322Y1703428D01*
X2144413*
X2143049Y1708678D02*
Y1700803D01*
X2147413Y1708678D02*
X2150413D01*
X2148777Y1705678*
X2149595*
X2150140Y1705303*
X2150413Y1704928*
X2150686Y1703803*
Y1703053*
X2150413Y1701928*
X2149868Y1701178*
X2149049Y1700803*
X2148231*
X2147413Y1701178*
X2147140Y1701553*
X2146868Y1702303*
X2214958Y1708678D02*
X2217958D01*
X2216322Y1705678*
X2217140*
X2217686Y1705303*
X2217958Y1704928*
X2218231Y1703803*
Y1703053*
X2217958Y1701928*
X2217413Y1701178*
X2216595Y1700803*
X2215777*
X2214958Y1701178*
X2214686Y1701553*
X2214413Y1702303*
X2222322Y1708678D02*
X2221504Y1708303D01*
X2220958Y1707178*
X2220686Y1705303*
Y1704178*
X2220958Y1702303*
X2221504Y1701178*
X2222322Y1700803*
X2222868*
X2223686Y1701178*
X2224231Y1702303*
X2224504Y1704178*
Y1705303*
X2224231Y1707178*
X2223686Y1708303*
X2222868Y1708678*
X2222322*
X2250504Y1706803D02*
X2262504D01*
X2256504Y1700803D02*
Y1712803D01*
X2283140Y1708678D02*
X2285322Y1704928D01*
Y1700803*
X2287504Y1708678D02*
X2285322Y1704928D01*
X2289958Y1708678D02*
Y1700803D01*
Y1708678D02*
X2293504D01*
X2289958Y1704928D02*
X2292140D01*
X2289958Y1700803D02*
X2293504D01*
X2299777Y1707553D02*
X2299231Y1708303D01*
X2298413Y1708678*
X2297322*
X2296504Y1708303*
X2295958Y1707553*
Y1706803*
X2296231Y1706053*
X2296504Y1705678*
X2297049Y1705303*
X2298686Y1704553*
X2299231Y1704178*
X2299504Y1703803*
X2299777Y1703053*
Y1701928*
X2299231Y1701178*
X2298413Y1700803*
X2297322*
X2296504Y1701178*
X2295958Y1701928*
X2336322Y1707553D02*
Y1700803D01*
X2333868Y1704178D02*
X2338777D01*
X2346140Y1710178D02*
X2341231Y1698178D01*
X2348595Y1704178D02*
X2353504D01*
X2357595Y1708678D02*
X2356777Y1708303D01*
X2356231Y1707178*
X2355958Y1705303*
Y1704178*
X2356231Y1702303*
X2356777Y1701178*
X2357595Y1700803*
X2358140*
X2358958Y1701178*
X2359504Y1702303*
X2359777Y1704178*
Y1705303*
X2359504Y1707178*
X2358958Y1708303*
X2358140Y1708678*
X2357595*
X2362504Y1701553D02*
X2362231Y1701178D01*
X2362504Y1700803*
X2362777Y1701178*
X2362504Y1701553*
X2366868Y1708678D02*
X2366049Y1708303D01*
X2365504Y1707178*
X2365231Y1705303*
Y1704178*
X2365504Y1702303*
X2366049Y1701178*
X2366868Y1700803*
X2367413*
X2368231Y1701178*
X2368777Y1702303*
X2369049Y1704178*
Y1705303*
X2368777Y1707178*
X2368231Y1708303*
X2367413Y1708678*
X2366868*
X2128049Y1682053D02*
X2127777Y1680928D01*
X2127231Y1680178*
X2126413Y1679803*
X2126140*
X2125322Y1680178*
X2124777Y1680928*
X2124504Y1682053*
Y1682428*
X2124777Y1683553*
X2125322Y1684303*
X2126140Y1684678*
X2126413*
X2127231Y1684303*
X2127777Y1683553*
X2128049Y1682053*
Y1680178*
X2127777Y1678303*
X2127231Y1677178*
X2126413Y1676803*
X2125868*
X2125049Y1677178*
X2124777Y1677928*
X2130777Y1677553D02*
X2130504Y1677178D01*
X2130777Y1676803*
X2131049Y1677178*
X2130777Y1677553*
X2134868Y1684678D02*
X2134049Y1684303D01*
X2133777Y1683553*
Y1682803*
X2134049Y1682053*
X2134595Y1681678*
X2135686Y1681303*
X2136504Y1680928*
X2137049Y1680178*
X2137322Y1679428*
Y1678303*
X2137049Y1677553*
X2136777Y1677178*
X2135958Y1676803*
X2134868*
X2134049Y1677178*
X2133777Y1677553*
X2133504Y1678303*
Y1679428*
X2133777Y1680178*
X2134322Y1680928*
X2135140Y1681303*
X2136231Y1681678*
X2136777Y1682053*
X2137049Y1682803*
Y1683553*
X2136777Y1684303*
X2135958Y1684678*
X2134868*
X2142504D02*
X2139777Y1679428D01*
X2143868*
X2142504Y1684678D02*
Y1676803D01*
X2213868Y1683178D02*
X2214413Y1683553D01*
X2215231Y1684678*
Y1676803*
X2220958Y1683553D02*
X2220686Y1684303D01*
X2219868Y1684678*
X2219322*
X2218504Y1684303*
X2217958Y1683178*
X2217686Y1681303*
Y1679428*
X2217958Y1677928*
X2218504Y1677178*
X2219322Y1676803*
X2219595*
X2220413Y1677178*
X2220958Y1677928*
X2221231Y1679053*
Y1679428*
X2220958Y1680553*
X2220413Y1681303*
X2219595Y1681678*
X2219322*
X2218504Y1681303*
X2217958Y1680553*
X2217686Y1679428*
X2223686Y1683178D02*
X2224231Y1683553D01*
X2225049Y1684678*
Y1676803*
X2250504D02*
X2262504Y1688803D01*
X2250504D02*
X2262504Y1676803D01*
X2283140Y1684678D02*
X2285322Y1680928D01*
Y1676803*
X2287504Y1684678D02*
X2285322Y1680928D01*
X2289958Y1684678D02*
Y1676803D01*
Y1684678D02*
X2293504D01*
X2289958Y1680928D02*
X2292140D01*
X2289958Y1676803D02*
X2293504D01*
X2299777Y1683553D02*
X2299231Y1684303D01*
X2298413Y1684678*
X2297322*
X2296504Y1684303*
X2295958Y1683553*
Y1682803*
X2296231Y1682053*
X2296504Y1681678*
X2297049Y1681303*
X2298686Y1680553*
X2299231Y1680178*
X2299504Y1679803*
X2299777Y1679053*
Y1677928*
X2299231Y1677178*
X2298413Y1676803*
X2297322*
X2296504Y1677178*
X2295958Y1677928*
X2336322Y1683553D02*
Y1676803D01*
X2333868Y1680178D02*
X2338777D01*
X2346140Y1686178D02*
X2341231Y1674178D01*
X2348595Y1680178D02*
X2353504D01*
X2357595Y1684678D02*
X2356777Y1684303D01*
X2356231Y1683178*
X2355958Y1681303*
Y1680178*
X2356231Y1678303*
X2356777Y1677178*
X2357595Y1676803*
X2358140*
X2358958Y1677178*
X2359504Y1678303*
X2359777Y1680178*
Y1681303*
X2359504Y1683178*
X2358958Y1684303*
X2358140Y1684678*
X2357595*
X2362504Y1677553D02*
X2362231Y1677178D01*
X2362504Y1676803*
X2362777Y1677178*
X2362504Y1677553*
X2366868Y1684678D02*
X2366049Y1684303D01*
X2365504Y1683178*
X2365231Y1681303*
Y1680178*
X2365504Y1678303*
X2366049Y1677178*
X2366868Y1676803*
X2367413*
X2368231Y1677178*
X2368777Y1678303*
X2369049Y1680178*
Y1681303*
X2368777Y1683178*
X2368231Y1684303*
X2367413Y1684678*
X2366868*
X2124777Y1658803D02*
Y1659178D01*
X2125049Y1659928*
X2125322Y1660303*
X2125868Y1660678*
X2126958*
X2127504Y1660303*
X2127777Y1659928*
X2128049Y1659178*
Y1658428*
X2127777Y1657678*
X2127231Y1656553*
X2124504Y1652803*
X2128322*
X2131322Y1660678D02*
X2134322D01*
X2132686Y1657678*
X2133504*
X2134049Y1657303*
X2134322Y1656928*
X2134595Y1655803*
Y1655053*
X2134322Y1653928*
X2133777Y1653178*
X2132958Y1652803*
X2132140*
X2131322Y1653178*
X2131049Y1653553*
X2130777Y1654303*
X2137322Y1653553D02*
X2137049Y1653178D01*
X2137322Y1652803*
X2137595Y1653178*
X2137322Y1653553*
X2143322Y1659553D02*
X2143049Y1660303D01*
X2142231Y1660678*
X2141686*
X2140868Y1660303*
X2140322Y1659178*
X2140049Y1657303*
Y1655428*
X2140322Y1653928*
X2140868Y1653178*
X2141686Y1652803*
X2141958*
X2142777Y1653178*
X2143322Y1653928*
X2143595Y1655053*
Y1655428*
X2143322Y1656553*
X2142777Y1657303*
X2141958Y1657678*
X2141686*
X2140868Y1657303*
X2140322Y1656553*
X2140049Y1655428*
X2146322Y1658803D02*
Y1659178D01*
X2146595Y1659928*
X2146868Y1660303*
X2147413Y1660678*
X2148504*
X2149049Y1660303*
X2149322Y1659928*
X2149595Y1659178*
Y1658428*
X2149322Y1657678*
X2148777Y1656553*
X2146049Y1652803*
X2149868*
X2158595Y1658053D02*
X2161595Y1652803D01*
Y1658053D02*
X2158595Y1652803D01*
X2173868Y1660678D02*
X2171140D01*
X2170868Y1657303*
X2171140Y1657678*
X2171958Y1658053*
X2172777*
X2173595Y1657678*
X2174140Y1656928*
X2174413Y1655803*
X2174140Y1655053*
X2173868Y1653928*
X2173322Y1653178*
X2172504Y1652803*
X2171686*
X2170868Y1653178*
X2170595Y1653553*
X2170322Y1654303*
X2180413Y1660678D02*
X2177686D01*
X2177413Y1657303*
X2177686Y1657678*
X2178504Y1658053*
X2179322*
X2180140Y1657678*
X2180686Y1656928*
X2180958Y1655803*
X2180686Y1655053*
X2180413Y1653928*
X2179868Y1653178*
X2179049Y1652803*
X2178231*
X2177413Y1653178*
X2177140Y1653553*
X2176868Y1654303*
X2183686Y1653553D02*
X2183413Y1653178D01*
X2183686Y1652803*
X2183958Y1653178*
X2183686Y1653553*
X2186413Y1659178D02*
X2186958Y1659553D01*
X2187777Y1660678*
Y1652803*
X2190504Y1658803D02*
Y1659178D01*
X2190777Y1659928*
X2191049Y1660303*
X2191595Y1660678*
X2192686*
X2193231Y1660303*
X2193504Y1659928*
X2193777Y1659178*
Y1658428*
X2193504Y1657678*
X2192958Y1656553*
X2190231Y1652803*
X2194049*
X2220140Y1660678D02*
X2217413Y1655428D01*
X2221504*
X2220140Y1660678D02*
Y1652803D01*
X2250504D02*
X2262504D01*
Y1664803*
X2250504*
Y1652803*
X2256504Y1658803D02*
Y1664803D01*
X2283140Y1660678D02*
X2285322Y1656928D01*
Y1652803*
X2287504Y1660678D02*
X2285322Y1656928D01*
X2289958Y1660678D02*
Y1652803D01*
Y1660678D02*
X2293504D01*
X2289958Y1656928D02*
X2292140D01*
X2289958Y1652803D02*
X2293504D01*
X2299777Y1659553D02*
X2299231Y1660303D01*
X2298413Y1660678*
X2297322*
X2296504Y1660303*
X2295958Y1659553*
Y1658803*
X2296231Y1658053*
X2296504Y1657678*
X2297049Y1657303*
X2298686Y1656553*
X2299231Y1656178*
X2299504Y1655803*
X2299777Y1655053*
Y1653928*
X2299231Y1653178*
X2298413Y1652803*
X2297322*
X2296504Y1653178*
X2295958Y1653928*
X2336322Y1659553D02*
Y1652803D01*
X2333868Y1656178D02*
X2338777D01*
X2346140Y1662178D02*
X2341231Y1650178D01*
X2348595Y1656178D02*
X2353504D01*
X2357595Y1660678D02*
X2356777Y1660303D01*
X2356231Y1659178*
X2355958Y1657303*
Y1656178*
X2356231Y1654303*
X2356777Y1653178*
X2357595Y1652803*
X2358140*
X2358958Y1653178*
X2359504Y1654303*
X2359777Y1656178*
Y1657303*
X2359504Y1659178*
X2358958Y1660303*
X2358140Y1660678*
X2357595*
X2362504Y1653553D02*
X2362231Y1653178D01*
X2362504Y1652803*
X2362777Y1653178*
X2362504Y1653553*
X2366868Y1660678D02*
X2366049Y1660303D01*
X2365504Y1659178*
X2365231Y1657303*
Y1656178*
X2365504Y1654303*
X2366049Y1653178*
X2366868Y1652803*
X2367413*
X2368231Y1653178*
X2368777Y1654303*
X2369049Y1656178*
Y1657303*
X2368777Y1659178*
X2368231Y1660303*
X2367413Y1660678*
X2366868*
X2124777Y1634803D02*
Y1635178D01*
X2125049Y1635928*
X2125322Y1636303*
X2125868Y1636678*
X2126958*
X2127504Y1636303*
X2127777Y1635928*
X2128049Y1635178*
Y1634428*
X2127777Y1633678*
X2127231Y1632553*
X2124504Y1628803*
X2128322*
X2131322Y1636678D02*
X2134322D01*
X2132686Y1633678*
X2133504*
X2134049Y1633303*
X2134322Y1632928*
X2134595Y1631803*
Y1631053*
X2134322Y1629928*
X2133777Y1629178*
X2132958Y1628803*
X2132140*
X2131322Y1629178*
X2131049Y1629553*
X2130777Y1630303*
X2137322Y1629553D02*
X2137049Y1629178D01*
X2137322Y1628803*
X2137595Y1629178*
X2137322Y1629553*
X2143322Y1635553D02*
X2143049Y1636303D01*
X2142231Y1636678*
X2141686*
X2140868Y1636303*
X2140322Y1635178*
X2140049Y1633303*
Y1631428*
X2140322Y1629928*
X2140868Y1629178*
X2141686Y1628803*
X2141958*
X2142777Y1629178*
X2143322Y1629928*
X2143595Y1631053*
Y1631428*
X2143322Y1632553*
X2142777Y1633303*
X2141958Y1633678*
X2141686*
X2140868Y1633303*
X2140322Y1632553*
X2140049Y1631428*
X2146322Y1634803D02*
Y1635178D01*
X2146595Y1635928*
X2146868Y1636303*
X2147413Y1636678*
X2148504*
X2149049Y1636303*
X2149322Y1635928*
X2149595Y1635178*
Y1634428*
X2149322Y1633678*
X2148777Y1632553*
X2146049Y1628803*
X2149868*
X2217822Y1634803D02*
Y1635178D01*
X2218095Y1635928*
X2218368Y1636303*
X2218913Y1636678*
X2220004*
X2220549Y1636303*
X2220822Y1635928*
X2221095Y1635178*
Y1634428*
X2220822Y1633678*
X2220277Y1632553*
X2217549Y1628803*
X2221368*
X2256504D02*
X2262504Y1634803D01*
X2256504Y1640803*
X2250504Y1634803*
X2256504Y1628803*
Y1634803D02*
Y1640803D01*
X2286140Y1636678D02*
Y1628803D01*
Y1636678D02*
X2289958Y1628803D01*
Y1636678D02*
Y1628803D01*
X2294049Y1636678D02*
X2293504Y1636303D01*
X2292958Y1635553*
X2292686Y1634803*
X2292413Y1633678*
Y1631803*
X2292686Y1630678*
X2292958Y1629928*
X2293504Y1629178*
X2294049Y1628803*
X2295140*
X2295686Y1629178*
X2296231Y1629928*
X2296504Y1630678*
X2296777Y1631803*
Y1633678*
X2296504Y1634803*
X2296231Y1635553*
X2295686Y1636303*
X2295140Y1636678*
X2294049*
X2336322Y1635553D02*
Y1628803D01*
X2333868Y1632178D02*
X2338777D01*
X2346140Y1638178D02*
X2341231Y1626178D01*
X2348595Y1632178D02*
X2353504D01*
X2357595Y1636678D02*
X2356777Y1636303D01*
X2356231Y1635178*
X2355958Y1633303*
Y1632178*
X2356231Y1630303*
X2356777Y1629178*
X2357595Y1628803*
X2358140*
X2358958Y1629178*
X2359504Y1630303*
X2359777Y1632178*
Y1633303*
X2359504Y1635178*
X2358958Y1636303*
X2358140Y1636678*
X2357595*
X2362504Y1629553D02*
X2362231Y1629178D01*
X2362504Y1628803*
X2362777Y1629178*
X2362504Y1629553*
X2366868Y1636678D02*
X2366049Y1636303D01*
X2365504Y1635178*
X2365231Y1633303*
Y1632178*
X2365504Y1630303*
X2366049Y1629178*
X2366868Y1628803*
X2367413*
X2368231Y1629178*
X2368777Y1630303*
X2369049Y1632178*
Y1633303*
X2368777Y1635178*
X2368231Y1636303*
X2367413Y1636678*
X2366868*
X2124504Y1611178D02*
X2125049Y1611553D01*
X2125868Y1612678*
Y1604803*
X2132140Y1612678D02*
X2129413Y1604803D01*
X2128322Y1612678D02*
X2132140D01*
X2134868Y1605553D02*
X2134595Y1605178D01*
X2134868Y1604803*
X2135140Y1605178*
X2134868Y1605553*
X2141413Y1612678D02*
X2138686Y1604803D01*
X2137595Y1612678D02*
X2141413D01*
X2144140Y1610803D02*
Y1611178D01*
X2144413Y1611928*
X2144686Y1612303*
X2145231Y1612678*
X2146322*
X2146868Y1612303*
X2147140Y1611928*
X2147413Y1611178*
Y1610428*
X2147140Y1609678*
X2146595Y1608553*
X2143868Y1604803*
X2147686*
X2156413Y1610053D02*
X2159413Y1604803D01*
Y1610053D02*
X2156413Y1604803D01*
X2170868Y1612678D02*
X2168140Y1607428D01*
X2172231*
X2170868Y1612678D02*
Y1604803D01*
X2178231Y1610053D02*
X2177958Y1608928D01*
X2177413Y1608178*
X2176595Y1607803*
X2176322*
X2175504Y1608178*
X2174958Y1608928*
X2174686Y1610053*
Y1610428*
X2174958Y1611553*
X2175504Y1612303*
X2176322Y1612678*
X2176595*
X2177413Y1612303*
X2177958Y1611553*
X2178231Y1610053*
Y1608178*
X2177958Y1606303*
X2177413Y1605178*
X2176595Y1604803*
X2176049*
X2175231Y1605178*
X2174958Y1605928*
X2180958Y1605553D02*
X2180686Y1605178D01*
X2180958Y1604803*
X2181231Y1605178*
X2180958Y1605553*
X2183958Y1610803D02*
Y1611178D01*
X2184231Y1611928*
X2184504Y1612303*
X2185049Y1612678*
X2186140*
X2186686Y1612303*
X2186958Y1611928*
X2187231Y1611178*
Y1610428*
X2186958Y1609678*
X2186413Y1608553*
X2183686Y1604803*
X2187504*
X2189958Y1611178D02*
X2190504Y1611553D01*
X2191322Y1612678*
Y1604803*
X2215640Y1611178D02*
X2216186Y1611553D01*
X2217004Y1612678*
Y1604803*
X2220822Y1612678D02*
X2220004Y1612303D01*
X2219731Y1611553*
Y1610803*
X2220004Y1610053*
X2220549Y1609678*
X2221640Y1609303*
X2222458Y1608928*
X2223004Y1608178*
X2223277Y1607428*
Y1606303*
X2223004Y1605553*
X2222731Y1605178*
X2221913Y1604803*
X2220822*
X2220004Y1605178*
X2219731Y1605553*
X2219458Y1606303*
Y1607428*
X2219731Y1608178*
X2220277Y1608928*
X2221095Y1609303*
X2222186Y1609678*
X2222731Y1610053*
X2223004Y1610803*
Y1611553*
X2222731Y1612303*
X2221913Y1612678*
X2220822*
X2250504Y1604803D02*
X2262504D01*
X2250504Y1616803*
X2262504*
X2250504Y1604803*
X2286140Y1612678D02*
Y1604803D01*
Y1612678D02*
X2289958Y1604803D01*
Y1612678D02*
Y1604803D01*
X2294049Y1612678D02*
X2293504Y1612303D01*
X2292958Y1611553*
X2292686Y1610803*
X2292413Y1609678*
Y1607803*
X2292686Y1606678*
X2292958Y1605928*
X2293504Y1605178*
X2294049Y1604803*
X2295140*
X2295686Y1605178*
X2296231Y1605928*
X2296504Y1606678*
X2296777Y1607803*
Y1609678*
X2296504Y1610803*
X2296231Y1611553*
X2295686Y1612303*
X2295140Y1612678*
X2294049*
X2336322Y1611553D02*
Y1604803D01*
X2333868Y1608178D02*
X2338777D01*
X2346140Y1614178D02*
X2341231Y1602178D01*
X2348595Y1608178D02*
X2353504D01*
X2357595Y1612678D02*
X2356777Y1612303D01*
X2356231Y1611178*
X2355958Y1609303*
Y1608178*
X2356231Y1606303*
X2356777Y1605178*
X2357595Y1604803*
X2358140*
X2358958Y1605178*
X2359504Y1606303*
X2359777Y1608178*
Y1609303*
X2359504Y1611178*
X2358958Y1612303*
X2358140Y1612678*
X2357595*
X2362504Y1605553D02*
X2362231Y1605178D01*
X2362504Y1604803*
X2362777Y1605178*
X2362504Y1605553*
X2366868Y1612678D02*
X2366049Y1612303D01*
X2365504Y1611178*
X2365231Y1609303*
Y1608178*
X2365504Y1606303*
X2366049Y1605178*
X2366868Y1604803*
X2367413*
X2368231Y1605178*
X2368777Y1606303*
X2369049Y1608178*
Y1609303*
X2368777Y1611178*
X2368231Y1612303*
X2367413Y1612678*
X2366868*
X2124504Y1587178D02*
X2125049Y1587553D01*
X2125868Y1588678*
Y1580803*
X2132140Y1588678D02*
X2129413Y1580803D01*
X2128322Y1588678D02*
X2132140D01*
X2134868Y1581553D02*
X2134595Y1581178D01*
X2134868Y1580803*
X2135140Y1581178*
X2134868Y1581553*
X2141413Y1588678D02*
X2138686Y1580803D01*
X2137595Y1588678D02*
X2141413D01*
X2144140Y1586803D02*
Y1587178D01*
X2144413Y1587928*
X2144686Y1588303*
X2145231Y1588678*
X2146322*
X2146868Y1588303*
X2147140Y1587928*
X2147413Y1587178*
Y1586428*
X2147140Y1585678*
X2146595Y1584553*
X2143868Y1580803*
X2147686*
X2215640Y1587178D02*
X2216186Y1587553D01*
X2217004Y1588678*
Y1580803*
X2220822Y1588678D02*
X2220004Y1588303D01*
X2219731Y1587553*
Y1586803*
X2220004Y1586053*
X2220549Y1585678*
X2221640Y1585303*
X2222458Y1584928*
X2223004Y1584178*
X2223277Y1583428*
Y1582303*
X2223004Y1581553*
X2222731Y1581178*
X2221913Y1580803*
X2220822*
X2220004Y1581178*
X2219731Y1581553*
X2219458Y1582303*
Y1583428*
X2219731Y1584178*
X2220277Y1584928*
X2221095Y1585303*
X2222186Y1585678*
X2222731Y1586053*
X2223004Y1586803*
Y1587553*
X2222731Y1588303*
X2221913Y1588678*
X2220822*
X2250504Y1580803D02*
X2262504Y1592803D01*
Y1580803*
X2250504Y1592803*
Y1580803*
X2283140Y1588678D02*
X2285322Y1584928D01*
Y1580803*
X2287504Y1588678D02*
X2285322Y1584928D01*
X2289958Y1588678D02*
Y1580803D01*
Y1588678D02*
X2293504D01*
X2289958Y1584928D02*
X2292140D01*
X2289958Y1580803D02*
X2293504D01*
X2299777Y1587553D02*
X2299231Y1588303D01*
X2298413Y1588678*
X2297322*
X2296504Y1588303*
X2295958Y1587553*
Y1586803*
X2296231Y1586053*
X2296504Y1585678*
X2297049Y1585303*
X2298686Y1584553*
X2299231Y1584178*
X2299504Y1583803*
X2299777Y1583053*
Y1581928*
X2299231Y1581178*
X2298413Y1580803*
X2297322*
X2296504Y1581178*
X2295958Y1581928*
X2336322Y1587553D02*
Y1580803D01*
X2333868Y1584178D02*
X2338777D01*
X2346140Y1590178D02*
X2341231Y1578178D01*
X2348595Y1584178D02*
X2353504D01*
X2357595Y1588678D02*
X2356777Y1588303D01*
X2356231Y1587178*
X2355958Y1585303*
Y1584178*
X2356231Y1582303*
X2356777Y1581178*
X2357595Y1580803*
X2358140*
X2358958Y1581178*
X2359504Y1582303*
X2359777Y1584178*
Y1585303*
X2359504Y1587178*
X2358958Y1588303*
X2358140Y1588678*
X2357595*
X2362504Y1581553D02*
X2362231Y1581178D01*
X2362504Y1580803*
X2362777Y1581178*
X2362504Y1581553*
X2366868Y1588678D02*
X2366049Y1588303D01*
X2365504Y1587178*
X2365231Y1585303*
Y1584178*
X2365504Y1582303*
X2366049Y1581178*
X2366868Y1580803*
X2367413*
X2368231Y1581178*
X2368777Y1582303*
X2369049Y1584178*
Y1585303*
X2368777Y1587178*
X2368231Y1588303*
X2367413Y1588678*
X2366868*
G54D24*
X1968504Y1578740D02*
G03X1972441Y1574803I3937J0D01*
G01X2078504*
G03X2082441Y1578740I-0J3937*
G01Y1724066*
G03X2078504Y1728003I-3937J0*
G01X2041220*
X2009724D02*
G03X2041220I15748J0D01*
G01X2009724D02*
X1972441D01*
G03X1968504Y1724066I-0J-3937*
G01Y1578740*
G74*
X0Y0D02*
M02*
