M48
;FILE_FORMAT=2:4
INCH,LZ
FMAT,2
ICI,OFF
;TYPE=PLATED
T1C.00984
T2C.01772
T4C.02362
T6C.03543
;TYPE=NON_PLATED
T3C.01772
T5C.02362
%
M72
G90
G93X0Y0
T1C.00984F0S0
X19905Y15798
X19905Y15828
X19855Y15908
X19915Y15908
X19955Y15908
X199642Y160665
X19845Y16138
X19985Y16158
X19845Y16168
X199242Y16184
X19845Y16228
X19985Y16238
X19985Y16318
X199042Y16349
X19985Y16358
X19845Y16448
X19865Y16468
X199667Y16469
X19865Y16548
X19855Y16608
X198439Y166782
X19925Y16698
X198439Y167182
X199842Y16974
X20025Y17218
X20055Y17188
X20085Y17158
X20115Y17128
X20205Y17068
X20125Y17068
X20125Y17018
X20205Y17018
X20125Y16968
X20205Y16968
X20125Y16918
X20205Y16918
X20205Y16868
X20125Y16868
X20205Y16818
X20125Y16818
X20005Y16698
X20185Y16668
X20155Y16668
X20245Y16668
X20215Y16668
X20185Y16638
X20155Y16638
X20215Y16638
X20235Y16608
X20005Y16558
X20195Y16508
X20195Y16458
X202022Y164081
X202222Y163906
X200522Y163831
X20095Y16378
X200967Y163165
X201739Y163082
X202239Y163082
X201739Y162582
X202239Y162582
X202239Y162082
X201739Y162082
X200967Y16199
X20235Y16128
X20185Y16128
X201892Y160965
X201892Y160715
X20025Y16018
X20235Y15778
X20175Y15778
X20305Y15778
X20355Y15778
X20345Y15938
X20345Y15968
X203147Y160056
X20485Y16018
X202867Y160265
X203142Y16029
X20295Y16128
X203839Y161382
X202739Y162082
X204142Y16239
X202739Y162582
X204892Y162765
X202739Y163082
X203467Y163165
X203967Y163165
X204867Y163365
X204467Y16354
X20315Y16378
X20255Y16388
X20315Y16418
X20255Y16458
X20255Y16508
X204267Y16564
X20275Y16608
X20275Y16668
X20305Y16668
X20335Y16668
X20395Y16668
X20365Y16668
X204942Y167115
X20395Y16818
X20295Y16818
X20475Y16868
X20395Y16868
X20295Y16868
X20395Y16918
X20295Y16918
X20475Y16918
X20295Y16968
X20395Y16968
X20475Y16968
X20395Y17018
X20295Y17018
X20475Y17018
X20295Y17068
X20395Y17068
X20475Y17068
X20415Y17128
X20445Y17158
X20475Y17188
X20505Y17218
X205267Y168015
X20585Y16718
X20625Y16718
X20585Y16668
X20625Y16668
X20625Y16608
X205517Y16579
X20595Y16568
X207142Y165315
X20575Y16468
X20525Y16468
X20645Y16468
X20525Y16428
X20575Y16428
X20675Y16408
X20645Y16408
X20645Y16318
X20545Y16248
X20625Y16238
X20705Y16208
X20675Y16208
X205067Y162015
X206339Y161382
X206939Y161382
X205139Y161382
X206339Y160882
X206939Y160882
X20645Y16028
X20645Y15978
X20645Y15938
X205139Y158982
X205939Y158982
X205539Y158982
X20645Y15898
X20645Y15848
X20605Y15838
X20605Y15798
T2C.01772F0S0
X198531Y167678
X198531Y168269
X198531Y168859
X198531Y16945
X198531Y17004
X198531Y170631
X198531Y171221
X198531Y171812
X198531Y172403
X206563Y172403
X206563Y171812
X206563Y171221
X206563Y170631
X206563Y17004
X206563Y16945
X206563Y168859
X206563Y168269
X206563Y167678
T3C.01772F0S0
X198945Y172403G85X19926Y172403
X205835Y172403G85X20615Y172403
X198945Y171812G85X19926Y171812
X198945Y171221G85X19926Y171221
X198945Y170631G85X19926Y170631
X198945Y17004G85X19926Y17004
X198945Y16945G85X19926Y16945
X198945Y168859G85X19926Y168859
X198945Y168269G85X19926Y168269
X198945Y167678G85X19926Y167678
X205835Y171812G85X20615Y171812
X205835Y171221G85X20615Y171221
X205835Y170631G85X20615Y170631
X205835Y17004G85X20615Y17004
X205835Y16945G85X20615Y16945
X205835Y168859G85X20615Y168859
X205835Y168269G85X20615Y168269
X205835Y167678G85X20615Y167678
T4C.02362F0S0
X20114Y159506G85X20114Y15982
X203955Y159506G85X203955Y15982
X20114Y158049G85X20114Y158364
X203955Y158049G85X203955Y158364
T5C.02362F0S0
X20176Y159057
X203335Y159057
T6C.03543F0S0
X197547Y157988
X197547Y158988
X197547Y159988
X197547Y160988
X197547Y161988
X197547Y162988
X197547Y163988
X197547Y164988
X197547Y165988
X197547Y166988
X197547Y167988
X197547Y168988
X197547Y169988
X197547Y170988
X197547Y171988
X207547Y171988
X207547Y170988
X207547Y169988
X207547Y168988
X207547Y167988
X207547Y166988
X207547Y165988
X207547Y164988
X207547Y163988
X207547Y162988
X207547Y161988
X207547Y160988
X207547Y159988
X207547Y158988
X207547Y157988
M30
