*
*
G04 PADS VX.2 Build Number: 5060570 generated Gerber (RS-274-X) file*
G04 PC Version=2.1*
*
%IN "#22636-ESP8266_DEVKITC_"*%
*
%MOIN*%
*
%FSLAX35Y35*%
*
*
*
*
G04 PC Standard Apertures*
*
*
G04 Thermal Relief Aperture macro.*
%AMTER*
1,1,$1,0,0*
1,0,$1-$2,0,0*
21,0,$3,$4,0,0,45*
21,0,$3,$4,0,0,135*
%
*
*
G04 Annular Aperture macro.*
%AMANN*
1,1,$1,0,0*
1,0,$2,0,0*
%
*
*
G04 Odd Aperture macro.*
%AMODD*
1,1,$1,0,0*
1,0,$1-0.005,0,0*
%
*
*
G04 PC Custom Aperture Macros*
*
*
*
*
*
*
G04 PC Aperture Table*
*
%ADD010C,0.001*%
%ADD012C,0.01*%
%ADD024C,0.005*%
%ADD055C,0.004*%
%ADD093C,0.007*%
%ADD146C,0.009*%
*
*
*
*
G04 PC Circuitry*
G04 Layer Name #22636-ESP8266_DEVKITC_ - circuitry*
%LPD*%
*
*
G04 PC Custom Flashes*
G04 Layer Name #22636-ESP8266_DEVKITC_ - flashes*
%LPD*%
*
*
G04 PC Circuitry*
G04 Layer Name #22636-ESP8266_DEVKITC_ - circuitry*
%LPD*%
*
G54D10*
G01X1968504Y1574803D02*
X1968507D01*
X1968504Y1728003D02*
X1968507D01*
X2082441Y1574803D02*
X2082444D01*
X1968504D02*
X1968507D01*
G54D12*
X2005152Y1664063D02*
G75*
G03X2005152I-5430J0D01*
G54D24*
G01X2054222Y1685923D02*
Y1682313D01*
Y1685923D02*
X2052450D01*
X2054222Y1684204D02*
X2053132D01*
X2054222Y1682313D02*
X2052450D01*
X2049313Y1685407D02*
X2049586Y1685751D01*
X2049995Y1685923*
X2050541*
X2050950Y1685751*
X2051222Y1685407*
Y1685063*
X2051086Y1684719*
X2050950Y1684548*
X2050677Y1684376*
X2049859Y1684032*
X2049586Y1683860*
X2049450Y1683688*
X2049313Y1683344*
Y1682829*
X2049586Y1682485*
X2049995Y1682313*
X2050541*
X2050950Y1682485*
X2051222Y1682829*
X2048086Y1685923D02*
Y1682313D01*
Y1685923D02*
X2046859D01*
X2046450Y1685751*
X2046313Y1685579*
X2046177Y1685235*
Y1684719*
X2046313Y1684376*
X2046450Y1684204*
X2046859Y1684032*
X2048086*
X2044268Y1685923D02*
X2044677Y1685751D01*
X2044813Y1685407*
Y1685063*
X2044677Y1684719*
X2044404Y1684548*
X2043859Y1684376*
X2043450Y1684204*
X2043177Y1683860*
X2043041Y1683516*
Y1683001*
X2043177Y1682657*
X2043313Y1682485*
X2043722Y1682313*
X2044268*
X2044677Y1682485*
X2044813Y1682657*
X2044950Y1683001*
Y1683516*
X2044813Y1683860*
X2044541Y1684204*
X2044132Y1684376*
X2043586Y1684548*
X2043313Y1684719*
X2043177Y1685063*
Y1685407*
X2043313Y1685751*
X2043722Y1685923*
X2044268*
X2041677Y1685063D02*
Y1685235D01*
X2041541Y1685579*
X2041404Y1685751*
X2041132Y1685923*
X2040586*
X2040313Y1685751*
X2040177Y1685579*
X2040041Y1685235*
Y1684891*
X2040177Y1684548*
X2040450Y1684032*
X2041813Y1682313*
X2039904*
X2037041Y1685407D02*
X2037177Y1685751D01*
X2037586Y1685923*
X2037859*
X2038268Y1685751*
X2038541Y1685235*
X2038677Y1684376*
Y1683516*
X2038541Y1682829*
X2038268Y1682485*
X2037859Y1682313*
X2037722*
X2037313Y1682485*
X2037041Y1682829*
X2036904Y1683344*
Y1683516*
X2037041Y1684032*
X2037313Y1684376*
X2037722Y1684548*
X2037859*
X2038268Y1684376*
X2038541Y1684032*
X2038677Y1683516*
X2034041Y1685407D02*
X2034177Y1685751D01*
X2034586Y1685923*
X2034859*
X2035268Y1685751*
X2035541Y1685235*
X2035677Y1684376*
Y1683516*
X2035541Y1682829*
X2035268Y1682485*
X2034859Y1682313*
X2034722*
X2034313Y1682485*
X2034041Y1682829*
X2033904Y1683344*
Y1683516*
X2034041Y1684032*
X2034313Y1684376*
X2034722Y1684548*
X2034859*
X2035268Y1684376*
X2035541Y1684032*
X2035677Y1683516*
X2032677Y1681626D02*
X2029813D01*
X2028995Y1685923D02*
Y1682313D01*
Y1685923D02*
X2028041D01*
X2027632Y1685751*
X2027359Y1685407*
X2027222Y1685063*
X2027086Y1684548*
Y1683688*
X2027222Y1683173*
X2027359Y1682829*
X2027632Y1682485*
X2028041Y1682313*
X2028995*
X2025859Y1683688D02*
X2024222D01*
Y1684032*
X2024359Y1684376*
X2024495Y1684548*
X2024768Y1684719*
X2025177*
X2025450Y1684548*
X2025722Y1684204*
X2025859Y1683688*
Y1683344*
X2025722Y1682829*
X2025450Y1682485*
X2025177Y1682313*
X2024768*
X2024495Y1682485*
X2024222Y1682829*
X2022995Y1684719D02*
X2022177Y1682313D01*
X2021359Y1684719D02*
X2022177Y1682313D01*
X2020132Y1685923D02*
Y1682313D01*
X2018222Y1685923D02*
X2020132Y1683516D01*
X2019450Y1684376D02*
X2018222Y1682313D01*
X2016995Y1685923D02*
X2016859Y1685751D01*
X2016722Y1685923*
X2016859Y1686094*
X2016995Y1685923*
X2016859Y1684719D02*
Y1682313D01*
X2015086Y1685923D02*
Y1683001D01*
X2014950Y1682485*
X2014677Y1682313*
X2014404*
X2015495Y1684719D02*
X2014541D01*
X2011268Y1685407D02*
X2011541Y1685751D01*
X2011950Y1685923*
X2012495*
X2012904Y1685751*
X2013177Y1685407*
Y1685063*
X2013041Y1684719*
X2012904Y1684548*
X2012632Y1684376*
X2011813Y1684032*
X2011541Y1683860*
X2011404Y1683688*
X2011268Y1683344*
Y1682829*
X2011541Y1682485*
X2011950Y1682313*
X2012495*
X2012904Y1682485*
X2013177Y1682829*
X2010041Y1681626D02*
X2007177D01*
X2006359Y1685923D02*
X2005268Y1682313D01*
X2004177Y1685923D02*
X2005268Y1682313D01*
X2002950Y1685235D02*
X2002677Y1685407D01*
X2002268Y1685923*
Y1682313*
X2000904Y1682657D02*
X2001041Y1682485D01*
X2000904Y1682313*
X2000768Y1682485*
X2000904Y1682657*
X1998722Y1685923D02*
X1999132Y1685751D01*
X1999404Y1685235*
X1999541Y1684376*
Y1683860*
X1999404Y1683001*
X1999132Y1682485*
X1998722Y1682313*
X1998450*
X1998041Y1682485*
X1997768Y1683001*
X1997632Y1683860*
Y1684376*
X1997768Y1685235*
X1998041Y1685751*
X1998450Y1685923*
X1998722*
X2047553Y1667299D02*
X2044254Y1661417D01*
X2044740Y1660952*
X2045736Y1660655*
X2049222Y1660306*
X2050845Y1659925*
X2051210Y1659076*
X2051994Y1659636*
X2047553Y1667299*
X2038952Y1652227D02*
X2042087Y1657791D01*
X2042583Y1656951*
X2042877Y1656325*
X2043205Y1656023*
X2044223Y1655322*
X2038952Y1652227*
X2053336Y1657292D02*
X2052833Y1657068D01*
X2053912Y1655150*
X2053291Y1651786*
X2051896Y1650365*
X2051186Y1650313*
X2050727Y1650890*
X2050780Y1652448*
X2051208Y1653077*
X2051363Y1655332*
X2050848Y1656083*
X2048795Y1654857*
X2049687Y1653878*
X2050290Y1653106*
X2050641Y1652620*
X2050657Y1651262*
X2050553Y1650863*
X2050553D02*
X2050143Y1650370D01*
X2049254Y1650389*
X2046576Y1653522*
X2039967Y1649746*
X2057907Y1649666*
X2053336Y1657292*
X2048490Y1651768D02*
X2048693Y1652213D01*
X2049062Y1652452*
X2049449Y1652375*
X2049991Y1651714*
X2050154Y1651302*
X2050192Y1650980*
X2050110Y1650641*
X2052972Y1652063D02*
X2052777Y1652126D01*
X2052345Y1652141*
X2051875Y1651685*
X2051741Y1651221*
X2051761Y1650932*
X2051846Y1650731*
X2051017Y1659524D02*
X2051838D01*
X2050634Y1659974D02*
X2051798D01*
X2048042Y1660424D02*
X2051537D01*
X2045000Y1660874D02*
X2051276D01*
X2044351Y1661324D02*
X2051015D01*
X2044454Y1661774D02*
X2050755D01*
X2044707Y1662224D02*
X2050494D01*
X2044959Y1662674D02*
X2050233D01*
X2045212Y1663124D02*
X2049972D01*
X2045464Y1663574D02*
X2049712D01*
X2045717Y1664024D02*
X2049451D01*
X2045969Y1664474D02*
X2049190D01*
X2046221Y1664924D02*
X2048929D01*
X2046474Y1665374D02*
X2048668D01*
X2046726Y1665824D02*
X2048408D01*
X2046979Y1666274D02*
X2048147D01*
X2047231Y1666724D02*
X2047886D01*
X2047484Y1667174D02*
X2047625D01*
X2040726Y1655376D02*
X2044144D01*
X2040472Y1654926D02*
X2043549D01*
X2040979Y1655826D02*
X2043491D01*
X2041233Y1656276D02*
X2042930D01*
X2040219Y1654476D02*
X2042782D01*
X2041486Y1656726D02*
X2042689D01*
X2041740Y1657176D02*
X2042451D01*
X2041993Y1657626D02*
X2042185D01*
X2039965Y1654026D02*
X2042016D01*
X2039712Y1653576D02*
X2041249D01*
X2039458Y1653126D02*
X2040483D01*
X2039205Y1652676D02*
X2039716D01*
X2040612Y1650114D02*
X2057638D01*
X2052091Y1650564D02*
X2057368D01*
X2052533Y1651014D02*
X2057098D01*
X2052975Y1651464D02*
X2056829D01*
X2053315Y1651914D02*
X2056559D01*
X2053398Y1652364D02*
X2056289D01*
X2053481Y1652814D02*
X2056020D01*
X2053564Y1653264D02*
X2055750D01*
X2053647Y1653714D02*
X2055480D01*
X2053730Y1654164D02*
X2055211D01*
X2053813Y1654614D02*
X2054941D01*
X2053896Y1655064D02*
X2054671D01*
X2053707Y1655514D02*
X2054402D01*
X2053454Y1655964D02*
X2054132D01*
X2053201Y1656414D02*
X2053862D01*
X2052948Y1656864D02*
X2053593D01*
X2049142Y1655064D02*
X2051344D01*
X2049016Y1654614D02*
X2051313D01*
X2049426Y1654164D02*
X2051283D01*
X2049815Y1653714D02*
X2051252D01*
X2049896Y1655514D02*
X2051238D01*
X2050167Y1653264D02*
X2051221D01*
X2050501Y1652814D02*
X2051029D01*
X2050304Y1650564D02*
X2050986D01*
X2050650Y1655964D02*
X2050929D01*
X2050644Y1652364D02*
X2050777D01*
X2050650Y1651914D02*
X2050762D01*
X2050655Y1651464D02*
X2050747D01*
X2050593Y1651014D02*
X2050732D01*
X2041399Y1650564D02*
X2049104D01*
X2042187Y1651014D02*
X2048720D01*
X2042974Y1651464D02*
X2048335D01*
X2043762Y1651914D02*
X2047950D01*
X2044550Y1652364D02*
X2047565D01*
X2045337Y1652814D02*
X2047181D01*
X2046125Y1653264D02*
X2046796D01*
X1968504Y1578740D02*
G03X1972441Y1574803I3937J0D01*
G01X2078504*
G03X2082441Y1578740I-0J3937*
G01Y1724066*
G03X2078504Y1728003I-3937J0*
G01X2041220*
X2009724D02*
G03X2041220I15748J0D01*
G01X2009724D02*
X1972441D01*
G03X1968504Y1724066I-0J-3937*
G01Y1578740*
X2011693Y1723403D02*
G03X2009719Y1723279I-0J-15748D01*
G01X2008659Y1723108D02*
X2008659D01*
X2007634Y1722871D02*
X2007634D01*
X2006644Y1722572D02*
G03X2004814Y1721821I5049J-14917D01*
G01X2003849Y1721311D02*
X2003849D01*
X2002955Y1720756D02*
X2002955D01*
X2002106Y1720149D02*
G03X2000616Y1718849I9587J-12494D01*
G01X1999873Y1718062D02*
X1999873D01*
X1999205Y1717249D02*
X1999205D01*
X1998607Y1716416D02*
G03X1997612Y1714706I13086J-8761D01*
G01X1997154Y1713706D02*
X1997154D01*
X1996782Y1712721D02*
X1996782D01*
X1996481Y1711731D02*
G03X1996091Y1709792I15212J-4076D01*
G01X1995980Y1708707D02*
X1995980D01*
X1995945Y1707655D02*
X1995945D01*
X2011693Y1723403D02*
X2013693D01*
X2014665D02*
X2014665D01*
X2015638D02*
X2015638D01*
X2016610D02*
X2018610D01*
X2019583D02*
X2019583D01*
X2020555D02*
X2020555D01*
X2021528D02*
X2023528D01*
X2024500D02*
X2024500D01*
X2025472D02*
X2025472D01*
X2026445D02*
X2028445D01*
X2029417D02*
X2029417D01*
X2030390D02*
X2030390D01*
X2031362D02*
X2033362D01*
X2034335D02*
X2034335D01*
X2035307D02*
X2035307D01*
X2036280D02*
X2038280D01*
X2039252D02*
X2039252D01*
X2055000Y1707655D02*
G03X2054876Y1709629I-15748J0D01*
G01X2054705Y1710689D02*
X2054705D01*
X2054468Y1711714D02*
X2054468D01*
X2054169Y1712704D02*
G03X2053418Y1714534I-14917J-5049D01*
G01X2052908Y1715499D02*
X2052908D01*
X2052353Y1716393D02*
X2052353D01*
X2051746Y1717242D02*
G03X2050446Y1718732I-12494J-9587D01*
G01X2049658Y1719475D02*
X2049658D01*
X2048846Y1720144D02*
X2048846D01*
X2048013Y1720741D02*
G03X2046303Y1721736I-8761J-13086D01*
G01X2045303Y1722194D02*
X2045303D01*
X2044318Y1722566D02*
X2044318D01*
X2043328Y1722867D02*
G03X2041389Y1723257I-4076J-15212D01*
G01X2040304Y1723368D02*
X2040304D01*
X2039252Y1723403D02*
X2039252D01*
Y1691907D02*
G03X2041226Y1692031I-0J15748D01*
G01X2042286Y1692202D02*
X2042286D01*
X2043311Y1692439D02*
X2043311D01*
X2044327Y1692747D02*
G03X2046155Y1693501I-5075J14908D01*
G01X2047096Y1693999D02*
X2047096D01*
X2047990Y1694554D02*
X2047990D01*
X2048861Y1695178D02*
G03X2050349Y1696481I-9609J12477D01*
G01X2051072Y1697249D02*
X2051072D01*
X2051740Y1698061D02*
X2051740D01*
X2052354Y1698917D02*
G03X2053345Y1700628I-13102J8738D01*
G01X2053791Y1701604D02*
X2053791D01*
X2054163Y1702589D02*
X2054163D01*
X2054470Y1703606D02*
G03X2054858Y1705545I-15218J4049D01*
G01X2054965Y1706603D02*
X2054965D01*
X2055000Y1707655D02*
X2055000D01*
X2011693Y1691907D02*
X2013693D01*
X2014665D02*
X2014665D01*
X2015638D02*
X2015638D01*
X2016610D02*
X2018610D01*
X2019583D02*
X2019583D01*
X2020555D02*
X2020555D01*
X2021528D02*
X2023528D01*
X2024500D02*
X2024500D01*
X2025472D02*
X2025472D01*
X2026445D02*
X2028445D01*
X2029417D02*
X2029417D01*
X2030390D02*
X2030390D01*
X2031362D02*
X2033362D01*
X2034335D02*
X2034335D01*
X2035307D02*
X2035307D01*
X2036280D02*
X2038280D01*
X2039252D02*
X2039252D01*
X1995945Y1707655D02*
G03X1996069Y1705681I15748J0D01*
G01X1996240Y1704622D02*
X1996240D01*
X1996477Y1703596D02*
X1996477D01*
X1996776Y1702606D02*
G03X1997527Y1700776I14917J5049D01*
G01X1998037Y1699812D02*
X1998037D01*
X1998592Y1698917D02*
X1998592D01*
X1999199Y1698068D02*
G03X2000499Y1696578I12494J9587D01*
G01X2001286Y1695835D02*
X2001286D01*
X2002099Y1695167D02*
X2002099D01*
X2002932Y1694569D02*
G03X2004642Y1693574I8761J13086D01*
G01X2005642Y1693116D02*
X2005642D01*
X2006627Y1692744D02*
X2006627D01*
X2007617Y1692444D02*
G03X2009556Y1692053I4076J15211D01*
G01X2010641Y1691942D02*
X2010641D01*
X2011693Y1691907D02*
X2011693D01*
X2055000Y1616811D02*
G03X2054876Y1618785I-15748J0D01*
G01X2054705Y1619845D02*
X2054705D01*
X2054468Y1620870D02*
X2054468D01*
X2054169Y1621860D02*
G03X2053418Y1623690I-14917J-5049D01*
G01X2052908Y1624655D02*
X2052908D01*
X2052353Y1625549D02*
X2052353D01*
X2051746Y1626398D02*
G03X2050446Y1627888I-12494J-9587D01*
G01X2049658Y1628631D02*
X2049658D01*
X2048846Y1629300D02*
X2048846D01*
X2048013Y1629898D02*
G03X2046303Y1630892I-8761J-13087D01*
G01X2045303Y1631350D02*
X2045303D01*
X2044318Y1631722D02*
X2044318D01*
X2043328Y1632023D02*
G03X2041389Y1632414I-4076J-15212D01*
G01X2040304Y1632524D02*
X2040304D01*
X2039252Y1632559D02*
X2039252D01*
X2011693D02*
X2013693D01*
X2014665D02*
X2014665D01*
X2015638D02*
X2015638D01*
X2016610D02*
X2018610D01*
X2019583D02*
X2019583D01*
X2020555D02*
X2020555D01*
X2021528D02*
X2023528D01*
X2024500D02*
X2024500D01*
X2025472D02*
X2025472D01*
X2026445D02*
X2028445D01*
X2029417D02*
X2029417D01*
X2030390D02*
X2030390D01*
X2031362D02*
X2033362D01*
X2034335D02*
X2034335D01*
X2035307D02*
X2035307D01*
X2036280D02*
X2038280D01*
X2039252D02*
X2039252D01*
X2011693D02*
G03X2009719Y1632435I-0J-15748D01*
G01X2008659Y1632264D02*
X2008659D01*
X2007634Y1632027D02*
X2007634D01*
X2006644Y1631728D02*
G03X2004814Y1630977I5049J-14917D01*
G01X2003849Y1630467D02*
X2003849D01*
X2002955Y1629912D02*
X2002955D01*
X2002106Y1629305D02*
G03X2000616Y1628005I9587J-12494D01*
G01X1999873Y1627218D02*
X1999873D01*
X1999205Y1626405D02*
X1999205D01*
X1998607Y1625572D02*
G03X1997612Y1623863I13086J-8761D01*
G01X1997154Y1622862D02*
X1997154D01*
X1996782Y1621877D02*
X1996782D01*
X1996481Y1620887D02*
G03X1996091Y1618948I15212J-4076D01*
G01X1995980Y1617863D02*
X1995980D01*
X1995945Y1616811D02*
X1995945D01*
G03X1996069Y1614837I15748J0*
G01X1996240Y1613778D02*
X1996240D01*
X1996477Y1612752D02*
X1996477D01*
X1996776Y1611762D02*
G03X1997527Y1609932I14917J5049D01*
G01X1998037Y1608968D02*
X1998037D01*
X1998592Y1608073D02*
X1998592D01*
X1999199Y1607224D02*
G03X2000499Y1605734I12494J9587D01*
G01X2001286Y1604991D02*
X2001286D01*
X2002099Y1604323D02*
X2002099D01*
X2002932Y1603725D02*
G03X2004642Y1602730I8761J13086D01*
G01X2005642Y1602272D02*
X2005642D01*
X2006627Y1601900D02*
X2006627D01*
X2007617Y1601600D02*
G03X2009556Y1601209I4076J15211D01*
G01X2010641Y1601098D02*
X2010641D01*
X2011693Y1601063D02*
X2011693D01*
X2013693*
X2014665D02*
X2014665D01*
X2015638D02*
X2015638D01*
X2016610D02*
X2018610D01*
X2019583D02*
X2019583D01*
X2020555D02*
X2020555D01*
X2021528D02*
X2023528D01*
X2024500D02*
X2024500D01*
X2025472D02*
X2025472D01*
X2026445D02*
X2028445D01*
X2029417D02*
X2029417D01*
X2030390D02*
X2030390D01*
X2031362D02*
X2033362D01*
X2034335D02*
X2034335D01*
X2035307D02*
X2035307D01*
X2036280D02*
X2038280D01*
X2039252D02*
X2039252D01*
G03X2041226Y1601187I-0J15748*
G01X2042286Y1601358D02*
X2042286D01*
X2043311Y1601595D02*
X2043311D01*
X2044301Y1601894D02*
G03X2046131Y1602645I-5049J14917D01*
G01X2047096Y1603155D02*
X2047096D01*
X2047990Y1603710D02*
X2047990D01*
X2048839Y1604317D02*
G03X2050329Y1605617I-9587J12494D01*
G01X2051072Y1606405D02*
X2051072D01*
X2051740Y1607217D02*
X2051740D01*
X2052338Y1608051D02*
G03X2053333Y1609760I-13086J8760D01*
G01X2053791Y1610760D02*
X2053791D01*
X2054163Y1611745D02*
X2054163D01*
X2054463Y1612735D02*
G03X2054854Y1614674I-15211J4076D01*
G01X2054965Y1615759D02*
X2054965D01*
X2055000Y1616811D02*
X2055000D01*
X2021632Y1660413D02*
X2022712Y1652183D01*
X2028032Y1661443D02*
Y1662063D01*
X2026102Y1661843D02*
X2026072Y1662143D01*
X2025932Y1662263*
X2025122Y1662303*
X2024542*
X2024272Y1662183*
X2024162Y1662083*
Y1661783*
X2030952Y1662623D02*
X2019162Y1650133D01*
X2028592Y1660533D02*
X2021442D01*
X2028962Y1660693D02*
X2028292Y1661103D01*
X2027792Y1661353*
X2027242Y1661503*
X2026652Y1661643*
X2025882Y1661753*
X2025302Y1661803*
X2024542Y1661783*
X2023812Y1661733*
X2023072Y1661613*
X2022452Y1661473*
X2021802Y1661263*
X2021232Y1660993*
X2021112Y1660913*
X2020752Y1661363D02*
X2020862Y1661573D01*
X2021002Y1661653*
X2021212Y1661643*
X2021312Y1661553*
X2021392Y1661463*
X2021402Y1661353*
Y1661143*
X2030712Y1649783D02*
X2019212Y1662773D01*
X2021632Y1659133D02*
X2020972D01*
G03Y1658423I156J-355*
G01X2021702*
X2024152Y1650963D02*
G03X2024152I-990J0D01*
G01X2025712Y1657723D02*
G03X2025762Y1658183I-7J234D01*
G01X2025712Y1657723D02*
X2024126D01*
X2024186Y1658233D02*
G03X2024126Y1657723I-44J-253D01*
G01X2024186Y1658233D02*
X2025752D01*
X2024462Y1650793D02*
X2028042D01*
X2028932Y1660693*
X2023412Y1650963D02*
G03X2023412I-260J0D01*
G01X2027722Y1650563D02*
Y1649883D01*
X2026952*
Y1650593*
G54D55*
X2070898Y1720303D02*
X2071123Y1720212D01*
X2071348Y1720030*
X2071460Y1719849*
Y1719485*
X2071348Y1719303*
X2071123Y1719121*
X2070898Y1719030*
X2070560Y1718940*
X2069998*
X2069660Y1719030*
X2069435Y1719121*
X2069210Y1719303*
X2069098Y1719485*
Y1719849*
X2069210Y1720030*
X2069435Y1720212*
X2069660Y1720303*
X2069998*
Y1719849D02*
Y1720303D01*
X2071010Y1708394D02*
X2071123Y1708576D01*
X2071460Y1708849*
X2069098*
X2071123Y1710758D02*
X2071348Y1710667D01*
X2071460Y1710394*
Y1710212*
X2071348Y1709940*
X2071010Y1709758*
X2070448Y1709667*
X2069885*
X2069435Y1709758*
X2069210Y1709940*
X2069098Y1710212*
Y1710303*
X2069210Y1710576*
X2069435Y1710758*
X2069773Y1710849*
X2069885*
X2070223Y1710758*
X2070448Y1710576*
X2070560Y1710303*
Y1710212*
X2070448Y1709940*
X2070223Y1709758*
X2069885Y1709667*
X2070898Y1700303D02*
X2071123Y1700212D01*
X2071348Y1700030*
X2071460Y1699849*
Y1699485*
X2071348Y1699303*
X2071123Y1699121*
X2070898Y1699030*
X2070560Y1698940*
X2069998*
X2069660Y1699030*
X2069435Y1699121*
X2069210Y1699303*
X2069098Y1699485*
Y1699849*
X2069210Y1700030*
X2069435Y1700212*
X2069660Y1700303*
X2069998*
Y1699849D02*
Y1700303D01*
X2071460Y1688576D02*
X2069098D01*
X2071460Y1687940D02*
Y1689212D01*
Y1690030D02*
X2069098Y1691303D01*
X2071460D02*
X2069098Y1690030D01*
X2071460Y1677940D02*
X2069098D01*
X2071460D02*
Y1678758D01*
X2071348Y1679030*
X2071235Y1679121*
X2071010Y1679212*
X2070785*
X2070560Y1679121*
X2070448Y1679030*
X2070335Y1678758*
Y1677940*
Y1678576D02*
X2069098Y1679212D01*
X2071460Y1680030D02*
X2069098Y1681303D01*
X2071460D02*
X2069098Y1680030D01*
X2071460Y1646894D02*
X2069098D01*
X2071460D02*
Y1647712D01*
X2071348Y1647985*
X2071235Y1648076*
X2071010Y1648167*
X2070785*
X2070560Y1648076*
X2070448Y1647985*
X2070335Y1647712*
Y1646894*
Y1647530D02*
X2069098Y1648167D01*
X2071123Y1650258D02*
X2071348Y1650076D01*
X2071460Y1649803*
Y1649440*
X2071348Y1649167*
X2071123Y1648985*
X2070898*
X2070673Y1649076*
X2070560Y1649167*
X2070448Y1649349*
X2070223Y1649894*
X2070110Y1650076*
X2069998Y1650167*
X2069773Y1650258*
X2069435*
X2069210Y1650076*
X2069098Y1649803*
Y1649440*
X2069210Y1649167*
X2069435Y1648985*
X2071460Y1651712D02*
X2069098D01*
X2071460Y1651076D02*
Y1652349D01*
X2070898Y1670303D02*
X2071123Y1670212D01*
X2071348Y1670030*
X2071460Y1669849*
Y1669485*
X2071348Y1669303*
X2071123Y1669121*
X2070898Y1669030*
X2070560Y1668940*
X2069998*
X2069660Y1669030*
X2069435Y1669121*
X2069210Y1669303*
X2069098Y1669485*
Y1669849*
X2069210Y1670030*
X2069435Y1670212*
X2069660Y1670303*
X2069998*
Y1669849D02*
Y1670303D01*
X2071460Y1659849D02*
X2069885Y1658940D01*
Y1660303*
X2071460Y1659849D02*
X2069098D01*
X2071460Y1640121D02*
Y1639212D01*
X2070448Y1639121*
X2070560Y1639212*
X2070673Y1639485*
Y1639758*
X2070560Y1640030*
X2070335Y1640212*
X2069998Y1640303*
X2069773Y1640212*
X2069435Y1640121*
X2069210Y1639940*
X2069098Y1639667*
Y1639394*
X2069210Y1639121*
X2069323Y1639030*
X2069548Y1638940*
X2071460Y1627485D02*
X2069098Y1626758D01*
X2071460Y1627485D02*
X2069098Y1628212D01*
X2069885Y1627030D02*
Y1627940D01*
X2071460Y1629030D02*
X2069098D01*
X2071460D02*
Y1629667D01*
X2071348Y1629940*
X2071123Y1630121*
X2070898Y1630212*
X2070560Y1630303*
X2069998*
X2069660Y1630212*
X2069435Y1630121*
X2069210Y1629940*
X2069098Y1629667*
Y1629030*
X2070898Y1632485D02*
X2071123Y1632394D01*
X2071348Y1632212*
X2071460Y1632030*
Y1631667*
X2071348Y1631485*
X2071123Y1631303*
X2070898Y1631212*
X2070560Y1631121*
X2069998*
X2069660Y1631212*
X2069435Y1631303*
X2069210Y1631485*
X2069098Y1631667*
Y1632030*
X2069210Y1632212*
X2069435Y1632394*
X2069660Y1632485*
X2070898Y1620303D02*
X2071123Y1620212D01*
X2071348Y1620030*
X2071460Y1619849*
Y1619485*
X2071348Y1619303*
X2071123Y1619121*
X2070898Y1619030*
X2070560Y1618940*
X2069998*
X2069660Y1619030*
X2069435Y1619121*
X2069210Y1619303*
X2069098Y1619485*
Y1619849*
X2069210Y1620030*
X2069435Y1620212*
X2069660Y1620303*
X2069998*
Y1619849D02*
Y1620303D01*
X2070898Y1610303D02*
X2071123Y1610212D01*
X2071348Y1610030*
X2071460Y1609849*
Y1609485*
X2071348Y1609303*
X2071123Y1609121*
X2070898Y1609030*
X2070560Y1608940*
X2069998*
X2069660Y1609030*
X2069435Y1609121*
X2069210Y1609303*
X2069098Y1609485*
Y1609849*
X2069210Y1610030*
X2069435Y1610212*
X2069660Y1610303*
X2069998*
Y1609849D02*
Y1610303D01*
X2070898Y1580303D02*
X2071123Y1580212D01*
X2071348Y1580030*
X2071460Y1579849*
Y1579485*
X2071348Y1579303*
X2071123Y1579121*
X2070898Y1579030*
X2070560Y1578940*
X2069998*
X2069660Y1579030*
X2069435Y1579121*
X2069210Y1579303*
X2069098Y1579485*
Y1579849*
X2069210Y1580030*
X2069435Y1580212*
X2069660Y1580303*
X2069998*
Y1579849D02*
Y1580303D01*
X2070898Y1590303D02*
X2071123Y1590212D01*
X2071348Y1590030*
X2071460Y1589849*
Y1589485*
X2071348Y1589303*
X2071123Y1589121*
X2070898Y1589030*
X2070560Y1588940*
X2069998*
X2069660Y1589030*
X2069435Y1589121*
X2069210Y1589303*
X2069098Y1589485*
Y1589849*
X2069210Y1590030*
X2069435Y1590212*
X2069660Y1590303*
X2069998*
Y1589849D02*
Y1590303D01*
X2070898Y1600303D02*
X2071123Y1600212D01*
X2071348Y1600030*
X2071460Y1599849*
Y1599485*
X2071348Y1599303*
X2071123Y1599121*
X2070898Y1599030*
X2070560Y1598940*
X2069998*
X2069660Y1599030*
X2069435Y1599121*
X2069210Y1599303*
X2069098Y1599485*
Y1599849*
X2069210Y1600030*
X2069435Y1600212*
X2069660Y1600303*
X2069998*
Y1599849D02*
Y1600303D01*
X1980310Y1718803D02*
X1980085Y1718894D01*
X1979860Y1719076*
X1979748Y1719258*
Y1719621*
X1979860Y1719803*
X1980085Y1719985*
X1980310Y1720076*
X1980648Y1720167*
X1981210*
X1981548Y1720076*
X1981773Y1719985*
X1981998Y1719803*
X1982110Y1719621*
Y1719258*
X1981998Y1719076*
X1981773Y1718894*
X1981548Y1718803*
X1981210*
Y1719258D02*
Y1718803D01*
X1979748Y1712121D02*
Y1711121D01*
X1980648Y1711667*
Y1711394*
X1980760Y1711212*
X1980873Y1711121*
X1981210Y1711030*
X1981435*
X1981773Y1711121*
X1981998Y1711303*
X1982110Y1711576*
Y1711849*
X1981998Y1712121*
X1981885Y1712212*
X1981660Y1712303*
X1979748Y1710212D02*
X1982110Y1709485D01*
X1979748Y1708758D02*
X1982110Y1709485D01*
X1979748Y1707758D02*
Y1706758D01*
X1980648Y1707303*
Y1707030*
X1980760Y1706849*
X1980873Y1706758*
X1981210Y1706667*
X1981435*
X1981773Y1706758*
X1981998Y1706940*
X1982110Y1707212*
Y1707485*
X1981998Y1707758*
X1981885Y1707849*
X1981660Y1707940*
X1979748Y1702121D02*
Y1701121D01*
X1980648Y1701667*
Y1701394*
X1980760Y1701212*
X1980873Y1701121*
X1981210Y1701030*
X1981435*
X1981773Y1701121*
X1981998Y1701303*
X1982110Y1701576*
Y1701849*
X1981998Y1702121*
X1981885Y1702212*
X1981660Y1702303*
X1979748Y1700212D02*
X1982110Y1699485D01*
X1979748Y1698758D02*
X1982110Y1699485D01*
X1979748Y1697758D02*
Y1696758D01*
X1980648Y1697303*
Y1697030*
X1980760Y1696849*
X1980873Y1696758*
X1981210Y1696667*
X1981435*
X1981773Y1696758*
X1981998Y1696940*
X1982110Y1697212*
Y1697485*
X1981998Y1697758*
X1981885Y1697849*
X1981660Y1697940*
X1979748Y1691121D02*
X1982110D01*
X1979748D02*
Y1689940D01*
X1980873Y1691121D02*
Y1690394D01*
X1982110Y1691121D02*
Y1689940D01*
X1979748Y1689121D02*
X1982110D01*
X1979748D02*
X1982110Y1687849D01*
X1979748D02*
X1982110D01*
X1980310Y1678803D02*
X1980085Y1678894D01*
X1979860Y1679076*
X1979748Y1679258*
Y1679621*
X1979860Y1679803*
X1980085Y1679985*
X1980310Y1680076*
X1980648Y1680167*
X1981210*
X1981548Y1680076*
X1981773Y1679985*
X1981998Y1679803*
X1982110Y1679621*
Y1679258*
X1981998Y1679076*
X1981773Y1678894*
X1981548Y1678803*
X1981210*
Y1679258D02*
Y1678803D01*
X1980198Y1670803D02*
X1980085Y1670621D01*
X1979748Y1670349*
X1982110*
X1979748Y1668621D02*
X1981323Y1669530D01*
Y1668167*
X1979748Y1668621D02*
X1982110D01*
X1980198Y1660758D02*
X1980085Y1660576D01*
X1979748Y1660303*
X1982110*
X1980310Y1659394D02*
X1980198D01*
X1979973Y1659303*
X1979860Y1659212*
X1979748Y1659030*
Y1658667*
X1979860Y1658485*
X1979973Y1658394*
X1980198Y1658303*
X1980423*
X1980648Y1658394*
X1980985Y1658576*
X1982110Y1659485*
Y1658212*
X1980198Y1650758D02*
X1980085Y1650576D01*
X1979748Y1650303*
X1982110*
X1979748Y1649303D02*
Y1648303D01*
X1980648Y1648849*
Y1648576*
X1980760Y1648394*
X1980873Y1648303*
X1981210Y1648212*
X1981435*
X1981773Y1648303*
X1981998Y1648485*
X1982110Y1648758*
Y1649030*
X1981998Y1649303*
X1981885Y1649394*
X1981660Y1649485*
X1980198Y1640803D02*
X1980085Y1640621D01*
X1979748Y1640349*
X1982110*
X1979748Y1638349D02*
Y1639258D01*
X1980760Y1639349*
X1980648Y1639258*
X1980535Y1638985*
Y1638712*
X1980648Y1638440*
X1980873Y1638258*
X1981210Y1638167*
X1981435Y1638258*
X1981773Y1638349*
X1981998Y1638530*
X1982110Y1638803*
Y1639076*
X1981998Y1639349*
X1981885Y1639440*
X1981660Y1639530*
X1980310Y1630030D02*
X1980198D01*
X1979973Y1629940*
X1979860Y1629849*
X1979748Y1629667*
Y1629303*
X1979860Y1629121*
X1979973Y1629030*
X1980198Y1628940*
X1980423*
X1980648Y1629030*
X1980985Y1629212*
X1982110Y1630121*
Y1628849*
X1979748Y1619576D02*
X1979860Y1619849D01*
X1980198Y1620030*
X1980760Y1620121*
X1981098*
X1981660Y1620030*
X1981998Y1619849*
X1982110Y1619576*
Y1619394*
X1981998Y1619121*
X1981660Y1618940*
X1981098Y1618849*
X1980760*
X1980198Y1618940*
X1979860Y1619121*
X1979748Y1619394*
Y1619576*
X1980310Y1608803D02*
X1980085Y1608894D01*
X1979860Y1609076*
X1979748Y1609258*
Y1609621*
X1979860Y1609803*
X1980085Y1609985*
X1980310Y1610076*
X1980648Y1610167*
X1981210*
X1981548Y1610076*
X1981773Y1609985*
X1981998Y1609803*
X1982110Y1609621*
Y1609258*
X1981998Y1609076*
X1981773Y1608894*
X1981548Y1608803*
X1981210*
Y1609258D02*
Y1608803D01*
X1979748Y1600121D02*
Y1601030D01*
X1980760Y1601121*
X1980648Y1601030*
X1980535Y1600758*
Y1600485*
X1980648Y1600212*
X1980873Y1600030*
X1981210Y1599940*
X1981435Y1600030*
X1981773Y1600121*
X1981998Y1600303*
X1982110Y1600576*
Y1600849*
X1981998Y1601121*
X1981885Y1601212*
X1981660Y1601303*
X1979748Y1599121D02*
X1982110Y1598394D01*
X1979748Y1597667D02*
X1982110Y1598394D01*
X1980310Y1588803D02*
X1980085Y1588894D01*
X1979860Y1589076*
X1979748Y1589258*
Y1589621*
X1979860Y1589803*
X1980085Y1589985*
X1980310Y1590076*
X1980648Y1590167*
X1981210*
X1981548Y1590076*
X1981773Y1589985*
X1981998Y1589803*
X1982110Y1589621*
Y1589258*
X1981998Y1589076*
X1981773Y1588894*
X1981548Y1588803*
X1981210*
Y1589258D02*
Y1588803D01*
X1980310Y1578803D02*
X1980085Y1578894D01*
X1979860Y1579076*
X1979748Y1579258*
Y1579621*
X1979860Y1579803*
X1980085Y1579985*
X1980310Y1580076*
X1980648Y1580167*
X1981210*
X1981548Y1580076*
X1981773Y1579985*
X1981998Y1579803*
X1982110Y1579621*
Y1579258*
X1981998Y1579076*
X1981773Y1578894*
X1981548Y1578803*
X1981210*
Y1579258D02*
Y1578803D01*
X1991588Y1657227D02*
X2007336D01*
Y1649353*
X1991588*
Y1657227*
G54D93*
X2002407Y1664013D02*
X2001304D01*
Y1666863D02*
G03Y1664013I0J-1425D01*
G01Y1666863D02*
X2002407D01*
Y1664013*
X1998372Y1666863D02*
Y1664573D01*
X1998373Y1664598D02*
G03X1996669Y1664580I-828J-2350D01*
G01X1996668D02*
G03Y1661813I806J-1383D01*
G01X1998372*
Y1664598*
X2002407Y1661813D02*
Y1664013D01*
G54D146*
X2003151Y1667569D02*
X1995253Y1659740D01*
G74*
X0Y0D02*
M02*
