*
*
G04 PADS VX.2 Build Number: 5060570 generated Gerber (RS-274-X) file*
G04 PC Version=2.1*
*
%IN "#22636-ESP8266_DEVKITC_"*%
*
%MOIN*%
*
%FSLAX35Y35*%
*
*
*
*
G04 PC Standard Apertures*
*
*
G04 Thermal Relief Aperture macro.*
%AMTER*
1,1,$1,0,0*
1,0,$1-$2,0,0*
21,0,$3,$4,0,0,45*
21,0,$3,$4,0,0,135*
%
*
*
G04 Annular Aperture macro.*
%AMANN*
1,1,$1,0,0*
1,0,$2,0,0*
%
*
*
G04 Odd Aperture macro.*
%AMODD*
1,1,$1,0,0*
1,0,$1-0.005,0,0*
%
*
*
G04 PC Custom Aperture Macros*
*
*
*
*
*
*
G04 PC Aperture Table*
*
%ADD010C,0.001*%
%ADD024C,0.005*%
%ADD055C,0.004*%
*
*
*
*
G04 PC Circuitry*
G04 Layer Name #22636-ESP8266_DEVKITC_ - circuitry*
%LPD*%
*
*
G04 PC Custom Flashes*
G04 Layer Name #22636-ESP8266_DEVKITC_ - flashes*
%LPD*%
*
*
G04 PC Circuitry*
G04 Layer Name #22636-ESP8266_DEVKITC_ - circuitry*
%LPD*%
*
G54D10*
G01X1968504Y1574803D02*
X1968507D01*
X1968504Y1728003D02*
X1968507D01*
X2082441Y1574803D02*
X2082444D01*
X1968504D02*
X1968507D01*
G54D24*
X1991672Y1646403D02*
Y1647403D01*
X1995262Y1645963D02*
X1994704Y1645405D01*
X1988640*
X1988082Y1645963*
Y1647843*
X1988640Y1648401*
X1994704*
X1995262Y1647843*
Y1645963*
X2036669Y1617559D02*
Y1612047D01*
X2048676*
Y1617559*
X2036669*
X2035586Y1622283D02*
Y1607323D01*
X2049759*
Y1622283*
X2035586*
X2048283Y1616961D02*
X2047889Y1617354D01*
X2048283Y1616567D02*
X2047495Y1617354D01*
X2048283Y1616173D02*
X2047102Y1617354D01*
X2048283Y1615780D02*
X2046708Y1617354D01*
X2048283Y1615386D02*
X2046314Y1617354D01*
X2048283Y1614992D02*
X2045920Y1617354D01*
X2048283Y1614598D02*
X2045527Y1617354D01*
X2048283Y1614205D02*
X2045133Y1617354D01*
X2048283Y1613811D02*
X2044739Y1617354D01*
X2048283Y1613417D02*
X2044346Y1617354D01*
X2037062D02*
Y1612252D01*
X2048283*
Y1617354*
X2037062*
X2036964Y1616083D02*
Y1613524D01*
X2048381*
Y1616083*
X2036964*
X2049251Y1619315D02*
G75*
G03X2049251I-492J0D01*
G01X2049759Y1622283D02*
Y1607323D01*
X2035586*
Y1622283*
X2049759*
X2050969Y1617559D02*
Y1612047D01*
X2062976*
Y1617559*
X2050969*
X2049886Y1622283D02*
Y1607323D01*
X2064059*
Y1622283*
X2049886*
X2062583Y1616961D02*
X2062189Y1617354D01*
X2062583Y1616567D02*
X2061795Y1617354D01*
X2062583Y1616173D02*
X2061402Y1617354D01*
X2062583Y1615780D02*
X2061008Y1617354D01*
X2062583Y1615386D02*
X2060614Y1617354D01*
X2062583Y1614992D02*
X2060220Y1617354D01*
X2062583Y1614598D02*
X2059827Y1617354D01*
X2062583Y1614205D02*
X2059433Y1617354D01*
X2062583Y1613811D02*
X2059039Y1617354D01*
X2062583Y1613417D02*
X2058646Y1617354D01*
X2051362D02*
Y1612252D01*
X2062583*
Y1617354*
X2051362*
X2051264Y1616083D02*
Y1613524D01*
X2062681*
Y1616083*
X2051264*
X2063551Y1619315D02*
G03X2063551I-492J0D01*
G01X2064059Y1622283D02*
Y1607323D01*
X2049886*
Y1622283*
X2064059*
X2049567Y1582272D02*
Y1598020D01*
X2061378*
Y1582272*
X2049567*
X1989567D02*
Y1598020D01*
X2001378*
Y1582272*
X1989567*
X2005472Y1599803D02*
X2004472D01*
X2005912Y1603393D02*
X2006470Y1602835D01*
Y1596771*
X2005912Y1596213*
X2004032*
X2003474Y1596771*
Y1602835*
X2004032Y1603393*
X2005912*
X2046472Y1599803D02*
X2045472D01*
X2046912Y1603393D02*
X2047470Y1602835D01*
Y1596771*
X2046912Y1596213*
X2045032*
X2044474Y1596771*
Y1602835*
X2045032Y1603393*
X2046912*
X2003272Y1631603D02*
Y1632603D01*
X2006862Y1631163D02*
X2006304Y1630605D01*
X2000240*
X1999682Y1631163*
Y1633043*
X2000240Y1633601*
X2006304*
X2006862Y1633043*
Y1631163*
X1991672Y1653903D02*
Y1654903D01*
X1995262Y1653463D02*
X1994704Y1652905D01*
X1988640*
X1988082Y1653463*
Y1655343*
X1988640Y1655901*
X1994704*
X1995262Y1655343*
Y1653463*
X1991672Y1650403D02*
Y1651403D01*
X1995262Y1652401D02*
Y1649405D01*
X1988082*
Y1652401*
X1995262*
X2040572Y1639003D02*
X2039572D01*
X2038574Y1642593D02*
X2041570D01*
Y1635413*
X2038574*
Y1642593*
X1988222Y1608903D02*
Y1609903D01*
X1991812Y1610901D02*
Y1607905D01*
X1984632*
Y1610901*
X1991812*
X2042672Y1629603D02*
X2041672D01*
X2040674Y1633193D02*
X2043670D01*
Y1626013*
X2040674*
Y1633193*
X2046972Y1629603D02*
X2045972D01*
X2044974Y1633193D02*
X2047970D01*
Y1626013*
X2044974*
Y1633193*
X2003409Y1654394D02*
Y1644412D01*
X2002150Y1643153*
X1998194*
X1996935Y1644412*
Y1654394*
X1998194Y1655653*
X2002150*
X2003409Y1654394*
X2003272Y1636103D02*
Y1635103D01*
X1999682Y1636543D02*
X2000240Y1637101D01*
X2006304*
X2006862Y1636543*
Y1634663*
X2006304Y1634105*
X2000240*
X1999682Y1634663*
Y1636543*
X2003409Y1668394D02*
Y1658412D01*
X2002150Y1657153*
X1998194*
X1996935Y1658412*
Y1668394*
X1998194Y1669653*
X2002150*
X2003409Y1668394*
X1995409D02*
Y1658412D01*
X1994150Y1657153*
X1990194*
X1988935Y1658412*
Y1668394*
X1990194Y1669653*
X1994150*
X1995409Y1668394*
X2004847Y1611784D02*
Y1609422D01*
X2001698Y1610603*
X2004847Y1611784*
X1999722Y1612353D02*
Y1613353D01*
X2006822*
Y1612353*
X1999722Y1608853D02*
Y1607853D01*
X2006822*
Y1608853*
X1999822Y1612353D02*
Y1613353D01*
Y1608853D02*
Y1607853D01*
X1999872Y1612353D02*
Y1613353D01*
X1999972Y1612353D02*
Y1613353D01*
X1999872Y1608853D02*
Y1607853D01*
X1999972Y1608853D02*
Y1607853D01*
X2023347Y1607225D02*
X2020198D01*
Y1609981*
X2023347*
Y1607225*
X2028847D02*
X2025698D01*
Y1609981*
X2028847*
Y1607225*
X2039897Y1664697D02*
X2030956D01*
Y1669592*
X2005448*
Y1643214*
X2030498*
Y1648109*
X2039897*
Y1664697*
X2017847Y1607225D02*
X2014698D01*
Y1609981*
X2017847*
Y1607225*
X2032529Y1633312D02*
Y1615678D01*
X2012253*
Y1635954*
X2029887*
X2032529Y1633312*
X2003272Y1624603D02*
Y1623603D01*
X1999682Y1622605D02*
Y1625601D01*
X2006862*
Y1622605*
X1999682*
X2003272Y1628603D02*
Y1627603D01*
X1999682Y1626605D02*
Y1629601D01*
X2006862*
Y1626605*
X1999682*
X2005772Y1618103D02*
X2004772D01*
X2003774Y1621693D02*
X2006770D01*
Y1614513*
X2003774*
Y1621693*
X2000772Y1618103D02*
X2001772D01*
X2002770Y1614513D02*
X1999774D01*
Y1621693*
X2002770*
Y1614513*
X2055072Y1629503D02*
X2054072D01*
X2055512Y1633093D02*
X2056070Y1632535D01*
Y1626471*
X2055512Y1625913*
X2053632*
X2053074Y1626471*
Y1632535*
X2053632Y1633093*
X2055512*
X2044623Y1641934D02*
Y1663233D01*
X2060922*
Y1641934*
X2044623*
X2060272Y1632103D02*
Y1631103D01*
X2056682Y1630105D02*
Y1633101D01*
X2063862*
Y1630105*
X2056682*
X2037072Y1639003D02*
X2036072D01*
X2035074Y1642593D02*
X2038070D01*
Y1635413*
X2035074*
Y1642593*
X2050572Y1629603D02*
X2051572D01*
X2052570Y1626013D02*
X2049574D01*
Y1633193*
X2052570*
Y1626013*
X2060272Y1626903D02*
Y1627903D01*
X2063862Y1628901D02*
Y1625905D01*
X2056682*
Y1628901*
X2063862*
X1985722Y1639803D02*
X1986722D01*
X1987720Y1636213D02*
X1984724D01*
Y1643393*
X1987720*
Y1636213*
X2050772Y1653403D02*
X2049772D01*
X2048774Y1656993D02*
X2051770D01*
Y1649813*
X2048774*
Y1656993*
X2055772Y1653403D02*
X2054772D01*
X2053774Y1656993D02*
X2056770D01*
Y1649813*
X2053774*
Y1656993*
X1988322Y1627903D02*
Y1628903D01*
X1991912Y1629901D02*
Y1626905D01*
X1984732*
Y1629901*
X1991912*
X1988322Y1631503D02*
Y1632503D01*
X1991912Y1633501D02*
Y1630505D01*
X1984732*
Y1633501*
X1991912*
X1989122Y1639803D02*
X1990122D01*
X1991120Y1636213D02*
X1988124D01*
Y1643393*
X1991120*
Y1636213*
X1985622Y1612803D02*
X1990722D01*
Y1616803*
X1990822Y1620103D02*
Y1624903D01*
Y1625303*
X1984922*
X1984822Y1625203D02*
Y1620503D01*
X1984722Y1617103D02*
Y1612803D01*
X1986022*
X1985822Y1618003D02*
X1989822D01*
X1989922D02*
X1987822Y1620103D01*
X1985722Y1618003*
X2044301Y1579053D02*
X2047254D01*
X2044301D02*
Y1580076D01*
X2044441Y1580417*
X2044582Y1580530*
X2044863Y1580644*
X2045145*
X2045426Y1580530*
X2045566Y1580417*
X2045707Y1580076*
Y1579053D02*
Y1580076D01*
X2045848Y1580417*
X2045988Y1580530*
X2046270Y1580644*
X2046691*
X2046973Y1580530*
X2047113Y1580417*
X2047254Y1580076*
Y1579053*
X2045285Y1582235D02*
X2045426Y1582008D01*
X2045707Y1581780*
X2046129Y1581667*
X2046410*
X2046832Y1581780*
X2047113Y1582008*
X2047254Y1582235*
Y1582576*
X2047113Y1582803*
X2046832Y1583030*
X2046410Y1583144*
X2046129*
X2045707Y1583030*
X2045426Y1582803*
X2045285Y1582576*
Y1582235*
Y1584735D02*
X2045426Y1584508D01*
X2045707Y1584280*
X2046129Y1584167*
X2046410*
X2046832Y1584280*
X2047113Y1584508*
X2047254Y1584735*
Y1585076*
X2047113Y1585303*
X2046832Y1585530*
X2046410Y1585644*
X2046129*
X2045707Y1585530*
X2045426Y1585303*
X2045285Y1585076*
Y1584735*
X2044301Y1587008D02*
X2046691D01*
X2047113Y1587121*
X2047254Y1587349*
Y1587576*
X2045285Y1586667D02*
Y1587462D01*
X2004301Y1579053D02*
X2007254D01*
X2004301D02*
Y1580530D01*
X2005707Y1579053D02*
Y1579962D01*
X2007254Y1579053D02*
Y1580530D01*
X2004301Y1581553D02*
X2007254D01*
X2004301D02*
X2007254Y1583144D01*
X2004301D02*
X2007254D01*
X2042254Y1669006D02*
Y1666053D01*
Y1669006D02*
X2043731D01*
X2042254Y1667600D02*
X2043163D01*
X2046458Y1668303D02*
X2046345Y1668584D01*
X2046118Y1668866*
X2045890Y1669006*
X2045436*
X2045208Y1668866*
X2044981Y1668584*
X2044868Y1668303*
X2044754Y1667881*
Y1667178*
X2044868Y1666756*
X2044981Y1666475*
X2045208Y1666194*
X2045436Y1666053*
X2045890*
X2046118Y1666194*
X2046345Y1666475*
X2046458Y1666756*
X2059254Y1669006D02*
Y1666053D01*
Y1669006D02*
X2060049D01*
X2060390Y1668866*
X2060618Y1668584*
X2060731Y1668303*
X2060845Y1667881*
Y1667178*
X2060731Y1666756*
X2060618Y1666475*
X2060390Y1666194*
X2060049Y1666053*
X2059254*
X2061868Y1669006D02*
Y1666053D01*
X2063231*
X1968504Y1578740D02*
G03X1972441Y1574803I3937J0D01*
G01X2078504*
G03X2082441Y1578740I-0J3937*
G01Y1724066*
G03X2078504Y1728003I-3937J0*
G01X2041220*
X2009724D02*
G03X2041220I15748J0D01*
G01X2009724D02*
X1972441D01*
G03X1968504Y1724066I-0J-3937*
G01Y1578740*
X1958754Y1574803D02*
Y1646528D01*
Y1574803D02*
X1957754Y1579803D01*
X1959754*
X1958754Y1574803*
Y1728003D02*
Y1656278D01*
Y1728003D02*
X1959754Y1723003D01*
X1957754*
X1958754Y1728003*
X1966504Y1574803D02*
X1956754D01*
X1966504Y1728003D02*
X1956754D01*
X1951254Y1652809D02*
X1952504D01*
X1951822Y1651559*
X1952163*
X1952390Y1651403*
X1952504Y1651247*
X1952618Y1650778*
Y1650466*
X1952504Y1649997*
X1952277Y1649684*
X1951936Y1649528*
X1951595*
X1951254Y1649684*
X1951140Y1649841*
X1951027Y1650153*
X1954208Y1652809D02*
X1953868Y1652653D01*
X1953754Y1652341*
Y1652028*
X1953868Y1651716*
X1954095Y1651559*
X1954549Y1651403*
X1954890Y1651247*
X1955118Y1650934*
X1955231Y1650622*
Y1650153*
X1955118Y1649841*
X1955004Y1649684*
X1954663Y1649528*
X1954208*
X1953868Y1649684*
X1953754Y1649841*
X1953640Y1650153*
Y1650622*
X1953754Y1650934*
X1953981Y1651247*
X1954322Y1651403*
X1954777Y1651559*
X1955004Y1651716*
X1955118Y1652028*
Y1652341*
X1955004Y1652653*
X1954663Y1652809*
X1954208*
X1956368Y1649841D02*
X1956254Y1649684D01*
X1956368Y1649528*
X1956481Y1649684*
X1956368Y1649841*
X1958981Y1651716D02*
X1958868Y1651247D01*
X1958640Y1650934*
X1958299Y1650778*
X1958186*
X1957845Y1650934*
X1957618Y1651247*
X1957504Y1651716*
Y1651872*
X1957618Y1652341*
X1957845Y1652653*
X1958186Y1652809*
X1958299*
X1958640Y1652653*
X1958868Y1652341*
X1958981Y1651716*
Y1650934*
X1958868Y1650153*
X1958640Y1649684*
X1958299Y1649528*
X1958072*
X1957731Y1649684*
X1957618Y1649997*
X1960004Y1651716D02*
Y1649528D01*
Y1651091D02*
X1960345Y1651559D01*
X1960572Y1651716*
X1960913*
X1961140Y1651559*
X1961254Y1651091*
Y1649528*
Y1651091D02*
X1961595Y1651559D01*
X1961822Y1651716*
X1962163*
X1962390Y1651559*
X1962504Y1651091*
Y1649528*
X1963527Y1651716D02*
Y1649528D01*
Y1651091D02*
X1963868Y1651559D01*
X1964095Y1651716*
X1964436*
X1964663Y1651559*
X1964777Y1651091*
Y1649528*
Y1651091D02*
X1965118Y1651559D01*
X1965345Y1651716*
X1965686*
X1965913Y1651559*
X1966027Y1651091*
Y1649528*
X2082441Y1566803D02*
X2036200D01*
X2082441D02*
X2077441Y1565803D01*
Y1567803*
X2082441Y1566803*
X1968504D02*
X2014745D01*
X1968504D02*
X1973504Y1567803D01*
Y1565803*
X1968504Y1566803*
X2082441Y1572803D02*
Y1564803D01*
X1968504Y1572803D02*
Y1564803D01*
X2017859Y1567428D02*
Y1567584D01*
X2017972Y1567897*
X2018086Y1568053*
X2018313Y1568209*
X2018768*
X2018995Y1568053*
X2019109Y1567897*
X2019222Y1567584*
Y1567272*
X2019109Y1566959*
X2018882Y1566491*
X2017745Y1564928*
X2019336*
X2020927Y1568209D02*
X2020586Y1568053D01*
X2020472Y1567741*
Y1567428*
X2020586Y1567116*
X2020813Y1566959*
X2021268Y1566803*
X2021609Y1566647*
X2021836Y1566334*
X2021950Y1566022*
Y1565553*
X2021836Y1565241*
X2021722Y1565084*
X2021382Y1564928*
X2020927*
X2020586Y1565084*
X2020472Y1565241*
X2020359Y1565553*
Y1566022*
X2020472Y1566334*
X2020700Y1566647*
X2021041Y1566803*
X2021495Y1566959*
X2021722Y1567116*
X2021836Y1567428*
Y1567741*
X2021722Y1568053*
X2021382Y1568209*
X2020927*
X2023086Y1565241D02*
X2022972Y1565084D01*
X2023086Y1564928*
X2023200Y1565084*
X2023086Y1565241*
X2025700Y1567116D02*
X2025586Y1566647D01*
X2025359Y1566334*
X2025018Y1566178*
X2024904*
X2024563Y1566334*
X2024336Y1566647*
X2024222Y1567116*
Y1567272*
X2024336Y1567741*
X2024563Y1568053*
X2024904Y1568209*
X2025018*
X2025359Y1568053*
X2025586Y1567741*
X2025700Y1567116*
Y1566334*
X2025586Y1565553*
X2025359Y1565084*
X2025018Y1564928*
X2024791*
X2024450Y1565084*
X2024336Y1565397*
X2026722Y1567116D02*
Y1564928D01*
Y1566491D02*
X2027063Y1566959D01*
X2027291Y1567116*
X2027632*
X2027859Y1566959*
X2027972Y1566491*
Y1564928*
Y1566491D02*
X2028313Y1566959D01*
X2028541Y1567116*
X2028882*
X2029109Y1566959*
X2029222Y1566491*
Y1564928*
X2030245Y1567116D02*
Y1564928D01*
Y1566491D02*
X2030586Y1566959D01*
X2030813Y1567116*
X2031154*
X2031382Y1566959*
X2031495Y1566491*
Y1564928*
Y1566491D02*
X2031836Y1566959D01*
X2032063Y1567116*
X2032404*
X2032632Y1566959*
X2032745Y1566491*
Y1564928*
G54D55*
X1979941Y1707138D02*
Y1708138D01*
X1980841Y1707592*
Y1707865*
X1980954Y1708047*
X1981066Y1708138*
X1981404Y1708229*
X1981629*
X1981966Y1708138*
X1982191Y1707956*
X1982304Y1707683*
Y1707410*
X1982191Y1707138*
X1982079Y1707047*
X1981854Y1706956*
X1979941Y1709047D02*
X1982304Y1709774D01*
X1979941Y1710501D02*
X1982304Y1709774D01*
X1979941Y1711501D02*
Y1712501D01*
X1980841Y1711956*
Y1712229*
X1980954Y1712410*
X1981066Y1712501*
X1981404Y1712592*
X1981629*
X1981966Y1712501*
X1982191Y1712320*
X1982304Y1712047*
Y1711774*
X1982191Y1711501*
X1982079Y1711410*
X1981854Y1711320*
X1980504Y1720367D02*
X1980279Y1720276D01*
X1980054Y1720094*
X1979941Y1719912*
Y1719549*
X1980054Y1719367*
X1980279Y1719185*
X1980504Y1719094*
X1980841Y1719003*
X1981404*
X1981741Y1719094*
X1981966Y1719185*
X1982191Y1719367*
X1982304Y1719549*
Y1719912*
X1982191Y1720094*
X1981966Y1720276*
X1981741Y1720367*
X1981404*
Y1719912D02*
Y1720367D01*
X1979941Y1697295D02*
Y1698295D01*
X1980841Y1697750*
Y1698022*
X1980954Y1698204*
X1981066Y1698295*
X1981404Y1698386*
X1981629*
X1981966Y1698295*
X1982191Y1698113*
X1982304Y1697841*
Y1697568*
X1982191Y1697295*
X1982079Y1697204*
X1981854Y1697113*
X1979941Y1699204D02*
X1982304Y1699932D01*
X1979941Y1700659D02*
X1982304Y1699932D01*
X1979941Y1701659D02*
Y1702659D01*
X1980841Y1702113*
Y1702386*
X1980954Y1702568*
X1981066Y1702659*
X1981404Y1702750*
X1981629*
X1981966Y1702659*
X1982191Y1702477*
X1982304Y1702204*
Y1701932*
X1982191Y1701659*
X1982079Y1701568*
X1981854Y1701477*
X1979941Y1688058D02*
X1982304D01*
X1979941D02*
Y1689240D01*
X1981066Y1688058D02*
Y1688786D01*
X1982304Y1688058D02*
Y1689240D01*
X1979941Y1690058D02*
X1982304D01*
X1979941D02*
X1982304Y1691331D01*
X1979941D02*
X1982304D01*
X1980504Y1680367D02*
X1980279Y1680276D01*
X1980054Y1680094*
X1979941Y1679912*
Y1679549*
X1980054Y1679367*
X1980279Y1679185*
X1980504Y1679094*
X1980841Y1679003*
X1981404*
X1981741Y1679094*
X1981966Y1679185*
X1982191Y1679367*
X1982304Y1679549*
Y1679912*
X1982191Y1680094*
X1981966Y1680276*
X1981741Y1680367*
X1981404*
Y1679912D02*
Y1680367D01*
X1980391Y1669003D02*
X1980279Y1669185D01*
X1979941Y1669458*
X1982304*
X1979941Y1671185D02*
X1981516Y1670276D01*
Y1671640*
X1979941Y1671185D02*
X1982304D01*
X1980391Y1659003D02*
X1980279Y1659185D01*
X1979941Y1659458*
X1982304*
X1980504Y1660367D02*
X1980391D01*
X1980166Y1660458*
X1980054Y1660549*
X1979941Y1660730*
Y1661094*
X1980054Y1661276*
X1980166Y1661367*
X1980391Y1661458*
X1980616*
X1980841Y1661367*
X1981179Y1661185*
X1982304Y1660276*
Y1661549*
X1980391Y1649003D02*
X1980279Y1649185D01*
X1979941Y1649458*
X1982304*
X1979941Y1650458D02*
Y1651458D01*
X1980841Y1650912*
Y1651185*
X1980954Y1651367*
X1981066Y1651458*
X1981404Y1651549*
X1981629*
X1981966Y1651458*
X1982191Y1651276*
X1982304Y1651003*
Y1650730*
X1982191Y1650458*
X1982079Y1650367*
X1981854Y1650276*
X1980391Y1639003D02*
X1980279Y1639185D01*
X1979941Y1639458*
X1982304*
X1979941Y1641458D02*
Y1640549D01*
X1980954Y1640458*
X1980841Y1640549*
X1980729Y1640821*
Y1641094*
X1980841Y1641367*
X1981066Y1641549*
X1981404Y1641640*
X1981629Y1641549*
X1981966Y1641458*
X1982191Y1641276*
X1982304Y1641003*
Y1640730*
X1982191Y1640458*
X1982079Y1640367*
X1981854Y1640276*
X1980504Y1629094D02*
X1980391D01*
X1980166Y1629185*
X1980054Y1629276*
X1979941Y1629458*
Y1629821*
X1980054Y1630003*
X1980166Y1630094*
X1980391Y1630185*
X1980616*
X1980841Y1630094*
X1981179Y1629912*
X1982304Y1629003*
Y1630276*
X1979941Y1619549D02*
X1980054Y1619276D01*
X1980391Y1619094*
X1980954Y1619003*
X1981291*
X1981854Y1619094*
X1982191Y1619276*
X1982304Y1619549*
Y1619730*
X1982191Y1620003*
X1981854Y1620185*
X1981291Y1620276*
X1980954*
X1980391Y1620185*
X1980054Y1620003*
X1979941Y1619730*
Y1619549*
X1980504Y1610367D02*
X1980279Y1610276D01*
X1980054Y1610094*
X1979941Y1609912*
Y1609549*
X1980054Y1609367*
X1980279Y1609185*
X1980504Y1609094*
X1980841Y1609003*
X1981404*
X1981741Y1609094*
X1981966Y1609185*
X1982191Y1609367*
X1982304Y1609549*
Y1609912*
X1982191Y1610094*
X1981966Y1610276*
X1981741Y1610367*
X1981404*
Y1609912D02*
Y1610367D01*
X1980504Y1580367D02*
X1980279Y1580276D01*
X1980054Y1580094*
X1979941Y1579912*
Y1579549*
X1980054Y1579367*
X1980279Y1579185*
X1980504Y1579094*
X1980841Y1579003*
X1981404*
X1981741Y1579094*
X1981966Y1579185*
X1982191Y1579367*
X1982304Y1579549*
Y1579912*
X1982191Y1580094*
X1981966Y1580276*
X1981741Y1580367*
X1981404*
Y1579912D02*
Y1580367D01*
X1980504Y1590367D02*
X1980279Y1590276D01*
X1980054Y1590094*
X1979941Y1589912*
Y1589549*
X1980054Y1589367*
X1980279Y1589185*
X1980504Y1589094*
X1980841Y1589003*
X1981404*
X1981741Y1589094*
X1981966Y1589185*
X1982191Y1589367*
X1982304Y1589549*
Y1589912*
X1982191Y1590094*
X1981966Y1590276*
X1981741Y1590367*
X1981404*
Y1589912D02*
Y1590367D01*
X1979941Y1600185D02*
Y1599276D01*
X1980954Y1599185*
X1980841Y1599276*
X1980729Y1599549*
Y1599821*
X1980841Y1600094*
X1981066Y1600276*
X1981404Y1600367*
X1981629Y1600276*
X1981966Y1600185*
X1982191Y1600003*
X1982304Y1599730*
Y1599458*
X1982191Y1599185*
X1982079Y1599094*
X1981854Y1599003*
X1979941Y1601185D02*
X1982304Y1601912D01*
X1979941Y1602640D02*
X1982304Y1601912D01*
X2069810Y1720303D02*
X2069585Y1720212D01*
X2069360Y1720030*
X2069248Y1719849*
Y1719485*
X2069360Y1719303*
X2069585Y1719121*
X2069810Y1719030*
X2070148Y1718940*
X2070710*
X2071048Y1719030*
X2071273Y1719121*
X2071498Y1719303*
X2071610Y1719485*
Y1719849*
X2071498Y1720030*
X2071273Y1720212*
X2071048Y1720303*
X2070710*
Y1719849D02*
Y1720303D01*
X2069698Y1708394D02*
X2069585Y1708576D01*
X2069248Y1708849*
X2071610*
X2069585Y1710758D02*
X2069360Y1710667D01*
X2069248Y1710394*
Y1710212*
X2069360Y1709940*
X2069698Y1709758*
X2070260Y1709667*
X2070823*
X2071273Y1709758*
X2071498Y1709940*
X2071610Y1710212*
Y1710303*
X2071498Y1710576*
X2071273Y1710758*
X2070935Y1710849*
X2070823*
X2070485Y1710758*
X2070260Y1710576*
X2070148Y1710303*
Y1710212*
X2070260Y1709940*
X2070485Y1709758*
X2070823Y1709667*
X2069810Y1700303D02*
X2069585Y1700212D01*
X2069360Y1700030*
X2069248Y1699849*
Y1699485*
X2069360Y1699303*
X2069585Y1699121*
X2069810Y1699030*
X2070148Y1698940*
X2070710*
X2071048Y1699030*
X2071273Y1699121*
X2071498Y1699303*
X2071610Y1699485*
Y1699849*
X2071498Y1700030*
X2071273Y1700212*
X2071048Y1700303*
X2070710*
Y1699849D02*
Y1700303D01*
X2069248Y1688576D02*
X2071610D01*
X2069248Y1687940D02*
Y1689212D01*
Y1690030D02*
X2071610Y1691303D01*
X2069248D02*
X2071610Y1690030D01*
X2069248Y1677940D02*
X2071610D01*
X2069248D02*
Y1678758D01*
X2069360Y1679030*
X2069473Y1679121*
X2069698Y1679212*
X2069923*
X2070148Y1679121*
X2070260Y1679030*
X2070373Y1678758*
Y1677940*
Y1678576D02*
X2071610Y1679212D01*
X2069248Y1680030D02*
X2071610Y1681303D01*
X2069248D02*
X2071610Y1680030D01*
X2069810Y1670303D02*
X2069585Y1670212D01*
X2069360Y1670030*
X2069248Y1669849*
Y1669485*
X2069360Y1669303*
X2069585Y1669121*
X2069810Y1669030*
X2070148Y1668940*
X2070710*
X2071048Y1669030*
X2071273Y1669121*
X2071498Y1669303*
X2071610Y1669485*
Y1669849*
X2071498Y1670030*
X2071273Y1670212*
X2071048Y1670303*
X2070710*
Y1669849D02*
Y1670303D01*
X2069248Y1659849D02*
X2070823Y1658940D01*
Y1660303*
X2069248Y1659849D02*
X2071610D01*
X2069248Y1646894D02*
X2071610D01*
X2069248D02*
Y1647712D01*
X2069360Y1647985*
X2069473Y1648076*
X2069698Y1648167*
X2069923*
X2070148Y1648076*
X2070260Y1647985*
X2070373Y1647712*
Y1646894*
Y1647530D02*
X2071610Y1648167D01*
X2069585Y1650258D02*
X2069360Y1650076D01*
X2069248Y1649803*
Y1649440*
X2069360Y1649167*
X2069585Y1648985*
X2069810*
X2070035Y1649076*
X2070148Y1649167*
X2070260Y1649349*
X2070485Y1649894*
X2070598Y1650076*
X2070710Y1650167*
X2070935Y1650258*
X2071273*
X2071498Y1650076*
X2071610Y1649803*
Y1649440*
X2071498Y1649167*
X2071273Y1648985*
X2069248Y1651712D02*
X2071610D01*
X2069248Y1651076D02*
Y1652349D01*
Y1640121D02*
Y1639212D01*
X2070260Y1639121*
X2070148Y1639212*
X2070035Y1639485*
Y1639758*
X2070148Y1640030*
X2070373Y1640212*
X2070710Y1640303*
X2070935Y1640212*
X2071273Y1640121*
X2071498Y1639940*
X2071610Y1639667*
Y1639394*
X2071498Y1639121*
X2071385Y1639030*
X2071160Y1638940*
X2069248Y1627485D02*
X2071610Y1626758D01*
X2069248Y1627485D02*
X2071610Y1628212D01*
X2070823Y1627030D02*
Y1627940D01*
X2069248Y1629030D02*
X2071610D01*
X2069248D02*
Y1629667D01*
X2069360Y1629940*
X2069585Y1630121*
X2069810Y1630212*
X2070148Y1630303*
X2070710*
X2071048Y1630212*
X2071273Y1630121*
X2071498Y1629940*
X2071610Y1629667*
Y1629030*
X2069810Y1632485D02*
X2069585Y1632394D01*
X2069360Y1632212*
X2069248Y1632030*
Y1631667*
X2069360Y1631485*
X2069585Y1631303*
X2069810Y1631212*
X2070148Y1631121*
X2070710*
X2071048Y1631212*
X2071273Y1631303*
X2071498Y1631485*
X2071610Y1631667*
Y1632030*
X2071498Y1632212*
X2071273Y1632394*
X2071048Y1632485*
X2069810Y1620303D02*
X2069585Y1620212D01*
X2069360Y1620030*
X2069248Y1619849*
Y1619485*
X2069360Y1619303*
X2069585Y1619121*
X2069810Y1619030*
X2070148Y1618940*
X2070710*
X2071048Y1619030*
X2071273Y1619121*
X2071498Y1619303*
X2071610Y1619485*
Y1619849*
X2071498Y1620030*
X2071273Y1620212*
X2071048Y1620303*
X2070710*
Y1619849D02*
Y1620303D01*
X2069810Y1610303D02*
X2069585Y1610212D01*
X2069360Y1610030*
X2069248Y1609849*
Y1609485*
X2069360Y1609303*
X2069585Y1609121*
X2069810Y1609030*
X2070148Y1608940*
X2070710*
X2071048Y1609030*
X2071273Y1609121*
X2071498Y1609303*
X2071610Y1609485*
Y1609849*
X2071498Y1610030*
X2071273Y1610212*
X2071048Y1610303*
X2070710*
Y1609849D02*
Y1610303D01*
X2069810Y1600303D02*
X2069585Y1600212D01*
X2069360Y1600030*
X2069248Y1599849*
Y1599485*
X2069360Y1599303*
X2069585Y1599121*
X2069810Y1599030*
X2070148Y1598940*
X2070710*
X2071048Y1599030*
X2071273Y1599121*
X2071498Y1599303*
X2071610Y1599485*
Y1599849*
X2071498Y1600030*
X2071273Y1600212*
X2071048Y1600303*
X2070710*
Y1599849D02*
Y1600303D01*
X2069810Y1590303D02*
X2069585Y1590212D01*
X2069360Y1590030*
X2069248Y1589849*
Y1589485*
X2069360Y1589303*
X2069585Y1589121*
X2069810Y1589030*
X2070148Y1588940*
X2070710*
X2071048Y1589030*
X2071273Y1589121*
X2071498Y1589303*
X2071610Y1589485*
Y1589849*
X2071498Y1590030*
X2071273Y1590212*
X2071048Y1590303*
X2070710*
Y1589849D02*
Y1590303D01*
X2069810Y1580303D02*
X2069585Y1580212D01*
X2069360Y1580030*
X2069248Y1579849*
Y1579485*
X2069360Y1579303*
X2069585Y1579121*
X2069810Y1579030*
X2070148Y1578940*
X2070710*
X2071048Y1579030*
X2071273Y1579121*
X2071498Y1579303*
X2071610Y1579485*
Y1579849*
X2071498Y1580030*
X2071273Y1580212*
X2071048Y1580303*
X2070710*
Y1579849D02*
Y1580303D01*
X2056499Y1661866D02*
X2056318Y1661753D01*
X2056136Y1661528*
X2056045Y1661303*
X2055954Y1660966*
Y1660403*
X2056045Y1660066*
X2056136Y1659841*
X2056318Y1659616*
X2056499Y1659503*
X2056863*
X2057045Y1659616*
X2057227Y1659841*
X2057318Y1660066*
X2057408Y1660403*
Y1660966*
X2057318Y1661303*
X2057227Y1661528*
X2057045Y1661753*
X2056863Y1661866*
X2056499*
X2058227D02*
Y1659503D01*
Y1661866D02*
X2059499Y1659503D01*
Y1661866D02*
Y1659503D01*
G74*
X0Y0D02*
M02*
